<svg width="26" height="24" viewBox="0 0 26 24" fill="none" xmlns="http://www.w3.org/2000/svg">
<path d="M18.1507 22V19.7911C18.1507 18.6195 17.7253 17.4958 16.9681 16.6673C16.2109 15.8389 15.1839 15.3734 14.1131 15.3734H6.03769C4.96683 15.3734 3.93982 15.8389 3.18261 16.6673C2.4254 17.4958 2 18.6195 2 19.7911V22" stroke="white" stroke-width="3" stroke-linecap="round" stroke-linejoin="round"/>
<path d="M9.9017 10.8355C12.1317 10.8355 13.9394 8.85758 13.9394 6.41773C13.9394 3.97789 12.1317 2 9.9017 2C7.67175 2 5.86401 3.97789 5.86401 6.41773C5.86401 8.85758 7.67175 10.8355 9.9017 10.8355Z" stroke="white" stroke-width="3" stroke-linecap="round" stroke-linejoin="round"/>
<path d="M23.9999 21.6034V19.3945C23.9993 18.4157 23.7015 17.4648 23.1534 16.6912C22.6053 15.9176 21.8379 15.3651 20.9717 15.1204" stroke="white" stroke-width="3" stroke-linecap="round" stroke-linejoin="round"/>
<path d="M17.7474 2C18.616 2.24331 19.3858 2.79597 19.9355 3.57085C20.4852 4.34573 20.7836 5.29876 20.7836 6.27968C20.7836 7.26061 20.4852 8.21364 19.9355 8.98852C19.3858 9.7634 18.616 10.3161 17.7474 10.5594" stroke="white" stroke-width="3" stroke-linecap="round" stroke-linejoin="round"/>
</svg>
