<svg width="129" height="140" viewBox="0 0 129 140" fill="none" xmlns="http://www.w3.org/2000/svg">
<g clip-path="url(#clip0_1000_10949)">
<path d="M113.332 109.128C122.216 98.2205 127.587 84.0319 127.587 68.5179C127.587 34.0991 101.159 6.19724 68.559 6.19724C35.9585 6.19724 9.53076 34.0991 9.53076 68.5179C9.53076 84.0319 14.9018 98.2205 23.7858 109.128H113.332" fill="#FFD8A5"/>
<path d="M45.6798 127.598C45.6798 129.199 40.2648 130.497 33.5847 130.497C26.9046 130.497 21.4893 129.199 21.4893 127.598C21.4893 125.996 26.9046 124.699 33.5847 124.699C40.2648 124.699 45.6798 125.996 45.6798 127.598" fill="#CCAA85"/>
<path d="M110.437 130.428C107.917 130.428 105.516 130.507 103.328 130.649C104.855 130.2 105.723 129.684 105.723 129.137C105.723 127.389 96.8766 125.971 85.9642 125.971C75.0517 125.971 66.2051 127.389 66.2051 129.137C66.2051 130.886 75.0517 132.303 85.9642 132.303C88.7649 132.303 91.4277 132.209 93.8416 132.041C92.6436 132.422 91.969 132.85 91.969 133.302C91.969 134.89 100.238 136.177 110.437 136.177C120.637 136.177 128.905 134.89 128.905 133.302C128.905 131.715 120.637 130.428 110.437 130.428" fill="#CCAA85"/>
<path d="M57.1548 132.049C56.7895 132.049 56.4271 132.052 56.0667 132.056C56.7677 131.716 57.1548 131.347 57.1548 130.961C57.1548 129.258 49.6727 127.878 40.4425 127.878C31.2126 127.878 23.7305 129.258 23.7305 130.961C23.7305 132.657 31.1536 134.032 40.3327 134.044C38.6674 134.633 37.7092 135.318 37.7092 136.049C37.7092 138.258 46.4154 140.049 57.1548 140.049C67.8943 140.049 76.6004 138.258 76.6004 136.049C76.6004 133.84 67.8943 132.049 57.1548 132.049" fill="#CCAA85"/>
<path d="M128.441 127.549C128.441 128.2 126.654 128.726 124.449 128.726C122.245 128.726 120.457 128.2 120.457 127.549C120.457 126.899 122.245 126.372 124.449 126.372C126.654 126.372 128.441 126.899 128.441 127.549Z" fill="#CCAA85"/>
<path d="M117.795 125.493C117.795 125.757 116.993 125.971 116.003 125.971C115.013 125.971 114.21 125.757 114.21 125.493C114.21 125.228 115.013 125.014 116.003 125.014C116.993 125.014 117.795 125.228 117.795 125.493Z" fill="#CCAA85"/>
<path d="M63.0597 126.29C63.0597 126.623 62.1765 126.892 61.0867 126.892C59.9973 126.892 59.1138 126.623 59.1138 126.29C59.1138 125.958 59.9973 125.688 61.0867 125.688C62.1765 125.688 63.0597 125.958 63.0597 126.29" fill="#CCAA85"/>
<path d="M70.107 124.244C70.107 124.495 69.5507 124.699 68.8647 124.699C68.1784 124.699 67.6221 124.495 67.6221 124.244C67.6221 123.993 68.1784 123.79 68.8647 123.79C69.5507 123.79 70.107 123.993 70.107 124.244Z" fill="#CCAA85"/>
<path d="M21.49 124.392C19.5799 118.612 17.6476 112.783 14.628 107.556C11.6084 102.33 7.37553 97.6848 2.00586 95.3751C3.83746 102.724 5.64003 110.471 10.3562 116.211C13.3809 119.893 17.3696 122.196 21.49 124.392" fill="#80CC2A"/>
<path d="M19.5761 119.619C18.3626 117.226 17.1151 114.851 15.7868 112.526C15.0503 111.238 14.2892 109.965 13.4962 108.714C11.7949 106.031 9.85808 103.368 7.15967 101.848C8.22924 104.831 9.29934 107.816 10.4867 110.749C11.418 113.05 12.4307 115.335 13.8319 117.353C14.9825 119.01 16.3779 120.458 17.868 121.773C18.6184 122.435 19.3943 123.064 20.1814 123.677L20.2143 123.704C20.6376 123.935 21.0626 124.165 21.4895 124.392C21.1763 123.444 20.8618 122.495 20.5428 121.548C20.2224 120.904 19.9014 120.26 19.5761 119.619" fill="#6EB82E"/>
<path d="M19.4475 122.917C16.6575 120.262 13.8404 117.585 10.5835 115.609C7.32676 113.633 3.5519 112.385 -0.179688 112.839C3.02819 116.411 6.33748 120.22 10.7097 121.93C13.5137 123.027 16.4588 123.024 19.4475 122.917" fill="#80CC2A"/>
<path d="M16.9527 120.834C15.5574 119.874 14.1482 118.935 12.708 118.051C11.9095 117.561 11.1017 117.088 10.2824 116.638C8.52447 115.673 6.6389 114.798 4.65771 114.821C6.14521 116.165 7.63336 117.508 9.17306 118.784C10.3807 119.785 11.6301 120.75 13.0212 121.436C14.1637 121.999 15.3835 122.363 16.6177 122.62C17.2393 122.749 17.8656 122.852 18.4934 122.941L18.5199 122.945C18.8286 122.937 19.1378 122.928 19.4476 122.917C18.99 122.481 18.5315 122.045 18.0707 121.612C17.6987 121.352 17.3266 121.092 16.9527 120.834" fill="#6EB82E"/>
<path d="M17.7999 109.928C17.6636 105.965 17.5227 101.966 16.5995 98.1221C15.6762 94.2782 13.8967 90.5485 10.9908 88.0354C10.7947 92.9539 10.5083 98.1135 12.3886 102.618C13.5945 105.507 15.6469 107.737 17.7999 109.928Z" fill="#80CC2A"/>
<path d="M17.4803 106.588C17.1623 104.861 16.82 103.139 16.4184 101.432C16.1957 100.486 15.955 99.5449 15.6904 98.6107C15.1231 96.6065 14.406 94.5676 13.0107 93.0822C13.133 95.1449 13.2552 97.208 13.4592 99.2631C13.6194 100.875 13.8325 102.495 14.3347 104.026C14.7469 105.284 15.3488 106.462 16.033 107.576C16.3778 108.138 16.7441 108.684 17.1206 109.221L17.1359 109.245C17.356 109.473 17.5777 109.701 17.8009 109.928C17.7786 109.278 17.7557 108.627 17.7297 107.976C17.6477 107.513 17.5656 107.05 17.4803 106.588" fill="#6EB82E"/>
<path d="M83.7014 116.525C85.9441 113.343 88.2045 110.132 89.7633 106.523C91.3217 102.915 92.1446 98.8306 91.368 94.9502C88.2994 98.6568 85.0176 102.492 83.8138 107.248C83.0421 110.298 83.3207 113.393 83.7014 116.525" fill="#80CC2A"/>
<path d="M85.4319 113.707C86.2072 112.151 86.9607 110.582 87.6594 108.985C88.0466 108.1 88.4171 107.207 88.7645 106.303C89.5098 104.365 90.1593 102.301 89.9514 100.221C88.8242 101.91 87.6966 103.6 86.6374 105.338C85.8067 106.701 85.0132 108.105 84.4966 109.631C84.0727 110.885 83.8439 112.201 83.7171 113.522C83.6532 114.188 83.6154 114.856 83.59 115.524L83.5884 115.552C83.6246 115.876 83.6624 116.2 83.7018 116.525C84.0694 116.003 84.4377 115.48 84.8033 114.955C85.0138 114.54 85.2244 114.124 85.4319 113.707" fill="#6EB82E"/>
<path d="M85.3418 108.488C86.4795 105.293 87.6247 102.068 88.1002 98.6909C88.5754 95.3142 88.3345 91.7283 86.8168 88.714C85.1147 92.5517 83.2649 96.5491 83.3422 100.786C83.3917 103.503 84.3208 105.993 85.3418 108.488" fill="#80CC2A"/>
<path d="M86.138 105.723C86.4281 104.24 86.6976 102.753 86.9153 101.256C87.0358 100.427 87.1408 99.5944 87.2242 98.7597C87.4038 96.9692 87.4752 95.0985 86.8338 93.4301C86.2824 95.1109 85.731 96.7923 85.247 98.4961C84.8674 99.8328 84.5274 101.193 84.4447 102.586C84.3769 103.729 84.4844 104.876 84.6777 106.001C84.7748 106.567 84.8944 107.129 85.0241 107.688L85.029 107.712C85.132 107.971 85.2366 108.229 85.3422 108.488C85.5289 107.964 85.7153 107.439 85.8995 106.913C85.98 106.516 86.0601 106.12 86.138 105.723" fill="#6EB82E"/>
<path d="M85.1455 41.0534C82.7509 37.7056 79.593 34.9706 76.015 33.1453C75.3238 42.8518 74.9777 52.6182 75.1788 62.3494C77.6533 60.9883 80.0825 59.4792 82.1444 57.4943C84.206 55.5094 85.9182 53.0149 86.6036 50.1595C87.3867 46.8963 86.8271 43.4044 85.1455 41.0534Z" fill="#3972C1"/>
<path d="M76.4831 33.3934C76.2283 33.7086 76.0416 34.0936 75.9291 34.4923L75.9239 34.5161C75.8493 35.615 75.7792 36.7147 75.714 37.815C75.6863 41.6631 75.6586 45.5115 75.6309 49.3595C75.6169 51.3179 75.6124 53.3331 76.2967 55.1533C76.6304 56.042 77.1206 56.8523 77.673 57.6061C77.9839 58.03 78.7846 59.4049 79.4357 59.2294C80.0047 59.0763 80.198 57.1654 80.356 56.6159C80.6614 55.5544 80.9997 54.503 81.3696 53.4646C81.5625 52.923 81.7668 52.3708 81.7789 51.7921C81.7903 51.2288 81.6185 50.6818 81.4501 50.1471C80.474 47.0542 79.5289 43.9177 79.2434 40.6718C79.0812 38.8248 79.1356 36.9652 79.2346 35.113C78.3538 34.4782 77.4334 33.9043 76.4831 33.3934" fill="#2C5B9F"/>
<path d="M29.5692 14.5161C29.5692 14.5161 26.4954 14.2529 23.6846 18.8118C31.0171 17.0485 34.9685 18.5108 34.9685 18.5108C34.9685 18.5108 32.8877 14.3062 29.5692 14.5161Z" fill="#7A7E82"/>
<path d="M42.674 7.57833C41.7341 8.27163 40.4795 8.37554 39.4226 7.93067C38.8057 7.67089 38.2324 7.21122 37.946 6.55646C37.6804 5.94918 37.6875 5.22664 37.872 4.58392C38.0656 3.90886 38.47 3.3229 38.9804 2.89695C39.68 2.31306 43.2114 1.32182 44.0193 4.36303C44.3373 5.56039 43.6139 6.88504 42.674 7.57833ZM48.69 15.0388C47.4196 13.4595 46.3325 11.7161 45.4607 9.85951C46.7766 8.63601 46.9106 6.20586 46.3872 4.43907C45.8638 2.67228 44.4736 1.26642 42.8428 0.586201C41.2124 -0.0936768 39.3708 -0.0926587 37.6742 0.373897C35.6149 0.939888 33.6364 2.29827 32.8171 4.37128C31.9981 6.44463 32.7086 9.22677 34.6525 10.1399C33.6983 12.8911 32.4133 15.6082 30.6216 17.8453C35.7508 17.8907 40.8816 17.9368 46.0088 17.7803C46.8451 17.7548 47.7305 17.7077 48.4243 17.2143C49.1178 16.7209 49.2316 15.7117 48.69 15.0388" fill="#BBBCBD"/>
<path d="M34.8888 17.8777C35.5748 15.2335 36.4576 12.6399 37.5911 10.1774C35.6074 9.53987 34.1223 7.46309 34.0848 5.27413C34.0561 3.58613 34.8921 1.93495 36.1744 0.939903C34.7056 1.65728 33.4334 2.81197 32.8171 4.37129C31.9981 6.44464 32.7086 9.22678 34.6525 10.1399C33.6983 12.8911 32.4133 15.6082 30.6216 17.8453C32.0438 17.858 33.4663 17.8694 34.8888 17.8777" fill="#D3D4D3"/>
<path d="M10.6963 16.2396H76.8583L85.3136 118.063L19.9545 126.382L10.6963 16.2396Z" fill="#3972C1"/>
<path d="M59.8762 26.8754C59.8762 26.8754 65.8469 24.5398 63.9117 16.2396H55.6367L59.8762 26.8754" fill="#2C5B9F"/>
<path d="M10.6963 16.2396L8.2124 18.1505L17.527 125.369L19.9545 126.382L10.6963 16.2396" fill="#5F9BD9"/>
<path d="M85.3135 118.063L79.4849 47.8714L74.826 20.5308L16.3149 19.3121C16.3149 19.3121 15.6812 99.7224 27.6128 125.407L85.3135 118.063" fill="#2C5B9F"/>
<path d="M17.4683 21.2805C37.1376 20.9078 56.8071 20.5352 76.4762 20.163C78.444 50.8455 81.8544 81.4221 87.4943 111.593C67.8577 112.227 48.1231 115.124 28.8268 119.019C23.4401 98.363 17.4683 39.6014 17.4683 21.2805" fill="white"/>
<path d="M57.3447 20.5253L59.8759 26.8754C59.8759 26.8754 63.7742 25.3532 64.2539 20.3945C61.9509 20.4379 59.6478 20.4816 57.3447 20.5253" fill="#E9EAE9"/>
<path d="M35.915 15.2903C40.0822 15.09 44.2497 14.8894 48.4169 14.6892C47.6012 13.6377 46.8647 12.5178 46.2178 11.3428C44.7939 11.4632 43.3923 11.7791 42.0291 12.2532C39.8857 12.9984 37.8658 14.0929 35.915 15.2903Z" fill="#7A7E82"/>
<path d="M32.7948 26.8558L59.8761 26.8754C61.3021 23.6153 60.68 19.6988 59.5433 16.1594C59.1711 15.0013 58.1977 14.1793 57.0444 14.0668C48.2489 13.2094 39.2465 13.1478 29.5698 14.5161C32.5856 16.1924 33.0621 22.2659 32.7948 26.8558" fill="#BBBCBD"/>
<path d="M60.2727 18.8579L32.2666 18.9402C32.6863 20.6571 32.8496 22.6317 32.8578 24.5285L60.5764 24.374C60.8365 22.5935 60.6699 20.7107 60.2727 18.8579" fill="#D3D4D3"/>
<path d="M45.1452 14.1122C43.4884 14.149 41.7918 14.266 40.2735 14.9672C40.002 15.0928 39.6931 15.324 39.7475 15.6316C39.7948 15.8986 40.0855 16.0194 40.3344 16.0882C44.149 17.1462 48.1366 17.098 52.0408 16.7935C52.8079 16.7336 56.743 16.852 56.5772 15.7479C56.3552 14.2729 52.9337 14.4501 51.9707 14.3589C49.7022 14.1442 47.4226 14.0616 45.1452 14.1122" fill="#D3D4D3"/>
<path d="M38.5951 15.6509C38.5951 16.0782 37.7468 16.425 36.7007 16.425C35.6546 16.425 34.8066 16.0782 34.8066 15.6509C34.8066 15.2232 35.6546 14.8767 36.7007 14.8767C37.7468 14.8767 38.5951 15.2232 38.5951 15.6509Z" fill="#D3D4D3"/>
<path d="M64.41 48.7657L72.5087 48.3325L70.8685 37.3468L62.7698 37.7799L64.41 48.7657ZM74.0222 49.6296L63.3052 50.2028L61.2563 36.4828L71.9733 35.9096L74.0222 49.6296" fill="#BBBCBD"/>
<path d="M67.6855 72.6505L75.7858 72.2565L74.1932 61.2629L66.0929 61.6572L67.6855 72.6505ZM77.2937 73.5609L66.5742 74.0825L64.585 60.3525L75.3045 59.8312L77.2937 73.5609" fill="#BBBCBD"/>
<path d="M70.0968 85.7078L71.8729 96.6702L79.9654 96.1252L78.189 85.1628L70.0968 85.7078V85.7078ZM70.7857 98.1225L68.5674 84.4317L79.2765 83.7105L81.4948 97.4013L70.7857 98.1225Z" fill="#BBBCBD"/>
<path d="M23.6931 44.2147C23.2551 44.2147 22.8934 43.8476 22.8793 43.382C22.8647 42.9072 23.2176 42.5102 23.6673 42.495L57.4342 41.3548C57.8891 41.341 58.2603 41.7123 58.2747 42.1867C58.289 42.6619 57.9361 43.059 57.4863 43.0741L23.7198 44.2143L23.6931 44.2147" fill="#7A7E82"/>
<path d="M24.3459 47.8235C23.9082 47.8235 23.5462 47.4561 23.5322 46.9909C23.5178 46.5157 23.8708 46.1187 24.3205 46.1036L58.087 44.9633C58.5472 44.9506 58.9131 45.3208 58.9275 45.7956C58.9418 46.2704 58.5889 46.6675 58.1392 46.6826L24.3726 47.8228L24.3459 47.8235" fill="#7A7E82"/>
<path d="M24.9987 51.4322C24.5611 51.4322 24.199 51.065 24.185 50.5995C24.1707 50.1247 24.5236 49.7273 24.9733 49.7122L41.8564 49.1424C42.3127 49.1262 42.6829 49.4999 42.6969 49.9744C42.7112 50.4492 42.3583 50.8466 41.9089 50.8617L25.0255 51.4315L24.9987 51.4322" fill="#7A7E82"/>
<path d="M22.9431 40.626C22.5051 40.626 22.1434 40.2586 22.1293 39.7934C22.1147 39.3182 22.4676 38.9212 22.9174 38.906L39.8008 38.3359C40.2586 38.3229 40.6269 38.6934 40.6409 39.1679C40.6556 39.643 40.3026 40.0401 39.8529 40.0552L22.9695 40.6253L22.9431 40.626" fill="#80CC2A"/>
<path d="M28.2596 70.0321C27.8441 70.0321 27.4892 69.6984 27.4495 69.2528C27.4071 68.78 27.7359 68.3603 28.184 68.3159L61.8182 64.963C62.2644 64.9148 62.6636 65.2654 62.706 65.7385C62.7483 66.2112 62.4192 66.631 61.9714 66.6757L28.3369 70.0283L28.2596 70.0321" fill="#7A7E82"/>
<path d="M29.1239 73.5911C28.7084 73.5911 28.3535 73.2574 28.3137 72.8118C28.2714 72.3391 28.6005 71.9193 29.0483 71.8746L62.6828 68.522C63.1283 68.4759 63.5282 68.8244 63.5705 69.2975C63.6129 69.7703 63.2838 70.19 62.836 70.2344L29.2015 73.5874L29.1239 73.5911" fill="#7A7E82"/>
<path d="M29.9872 77.1502C29.5717 77.1502 29.2168 76.8161 29.177 76.3709C29.1346 75.8978 29.4635 75.4784 29.9116 75.4336L46.7288 73.757C47.174 73.7167 47.5742 74.0598 47.6166 74.5325C47.6586 75.0056 47.3301 75.425 46.882 75.4698L30.0647 77.1464L29.9872 77.1502Z" fill="#7A7E82"/>
<path d="M27.2989 66.4996C26.8834 66.4996 26.5288 66.1658 26.489 65.7203C26.4467 65.2472 26.7755 64.8278 27.2233 64.783L44.0405 63.1067C44.4864 63.061 44.8862 63.4088 44.9283 63.8819C44.9706 64.355 44.6418 64.7748 44.1937 64.8192L27.3764 66.4958L27.2989 66.4996" fill="#80CC2A"/>
<path d="M32.2514 95.2007C31.8415 95.2007 31.4889 94.8755 31.4426 94.4351C31.3927 93.963 31.7154 93.5378 32.1625 93.4858L65.7406 89.5535C66.1871 89.4988 66.5902 89.8411 66.6401 90.3135C66.69 90.7856 66.3673 91.2108 65.9202 91.2631L32.342 95.1952C32.3117 95.1989 32.2814 95.2007 32.2514 95.2007" fill="#7A7E82"/>
<path d="M33.1698 98.7442C32.7602 98.7442 32.4073 98.4187 32.361 97.9787C32.3114 97.5066 32.6338 97.0813 33.0812 97.029L66.6591 93.097C67.1058 93.0416 67.509 93.3847 67.5588 93.8571C67.6084 94.3291 67.2861 94.7544 66.8386 94.8064L33.2604 98.7387C33.2301 98.7425 33.1998 98.7442 33.1698 98.7442" fill="#7A7E82"/>
<path d="M34.0883 102.288C33.6787 102.288 33.326 101.962 33.2794 101.522C33.2299 101.05 33.5522 100.625 33.9997 100.573L50.7886 98.6066C51.2357 98.5529 51.6382 98.8942 51.688 99.3666C51.7376 99.8387 51.4153 100.264 50.9681 100.316L34.1792 102.282C34.1486 102.286 34.1183 102.288 34.0883 102.288Z" fill="#7A7E82"/>
<path d="M31.236 91.685C30.8263 91.685 30.4737 91.3599 30.4275 90.9194C30.3776 90.4474 30.6999 90.0221 31.1473 89.9702L47.9363 88.0038C48.385 87.9481 48.7862 88.2915 48.8357 88.7639C48.8856 89.2359 48.563 89.6612 48.1158 89.7135L31.3269 91.6795C31.2966 91.6833 31.266 91.685 31.236 91.685" fill="#80CC2A"/>
<path d="M60.7231 37.8666C63.0523 38.6738 65.212 39.7659 66.976 41.7295C69.2647 38.6191 71.328 35.8029 74.5566 33.3793C71.4974 37.2882 69.1233 41.6022 67.5268 46.1521C66.0228 43.0899 63.6461 40.1264 60.7231 37.8666Z" fill="#41B93C"/>
<path d="M64.0229 62.902C66.3518 63.7092 68.5114 64.8013 70.2758 66.7649C72.5645 63.6545 74.6274 60.8383 77.8564 58.415C74.7972 62.3236 72.4228 66.6375 70.8262 71.1875C69.3223 68.1253 66.9455 65.1618 64.0229 62.902" fill="#41B93C"/>
<path d="M68.1147 86.2993C70.4436 87.1061 72.6036 88.1982 74.3676 90.1618C76.6563 87.0518 78.7192 84.2356 81.9482 81.812C78.889 85.7209 76.5146 90.0345 74.918 94.5844C73.4141 91.5222 71.0373 88.5588 68.1147 86.2993" fill="#41B93C"/>
<path d="M87.9942 122.925C85.8222 124.038 83.6501 125.151 81.4777 126.264C81.2229 126.395 80.927 126.597 80.9494 126.895C80.9768 127.257 81.4239 127.367 81.7678 127.38C84.8386 127.496 87.9092 127.612 90.98 127.727V123.781C90.0297 123.606 88.8859 123.313 87.9942 122.925" fill="white"/>
<path d="M109.856 129.286C109.232 130.577 106.362 131.823 104.488 132.784C104.267 132.896 104.012 133.07 104.032 133.327C104.055 133.64 104.441 133.735 104.738 133.746C106.652 133.818 109.704 133.89 112.25 133.963C113.44 133.996 114.236 132.683 113.711 131.555L112.246 128.195C111.426 128.044 110.626 129.621 109.856 129.286" fill="white"/>
<path d="M109.104 69.1392C105.647 70.3934 102.306 70.3359 99.1292 70.7949C98.5696 71.6193 96.4233 74.9578 95.8638 75.7822C98.8525 76.1785 101.841 76.5746 104.83 76.9706C105.314 77.0349 105.811 77.0986 106.287 76.9844C106.995 76.814 107.571 76.2694 108.021 75.6676C109.35 73.8877 109.706 71.3148 109.104 69.1392Z" fill="#16283D"/>
<path d="M93.1312 64.2184C94.2933 62.3405 95.8967 61.0389 97.5187 61.2952C97.3867 61.2742 96.1333 64.3557 95.9404 64.707C95.3365 65.8059 94.675 66.8189 93.9655 67.7313C93.2681 68.6287 92.5247 69.429 91.7449 70.1181C91.5148 70.3218 90.8894 71.0905 90.6909 70.4746C90.5655 70.0848 91.0963 68.8943 91.2172 68.5354C91.7439 66.9747 92.3539 65.4743 93.1312 64.2184" fill="#16283D"/>
<path d="M127.437 46.5856L91.0331 80.6064L85.2573 73.7188L121.661 39.6978C123.463 38.0139 126.216 38.1907 127.811 40.0927C129.406 41.9947 129.238 44.9018 127.437 46.5856Z" fill="#F9A72C"/>
<path d="M85.2576 73.7188L76.2393 88.2911L91.0334 80.6063L85.2576 73.7188" fill="#F57661"/>
<path d="M122.617 47.4176L89.3062 78.5471L86.9839 75.7777L120.294 44.6482L122.617 47.4176Z" fill="#96601D"/>
<path d="M79.4737 83.0647L76.2393 88.2911L81.5454 85.5351L79.4737 83.0647Z" fill="#41B93C"/>
<path d="M121.661 39.6977L117.958 43.1591L123.733 50.047L127.436 46.5856C129.238 44.9018 129.405 41.9947 127.811 40.0927C126.216 38.1907 123.462 38.0139 121.661 39.6977" fill="#F57661"/>
<path d="M124.343 49.4765L121.72 51.9283L115.944 45.0408L118.567 42.5889L124.343 49.4765Z" fill="white"/>
<path d="M91.0332 80.6064L89.3066 78.5471L119.994 49.8691L121.72 51.928L101.86 70.4884L96.1543 75.8207L91.0332 80.6064" fill="#C18526"/>
<path d="M81.545 85.5351L80.5093 84.3003L88.1459 77.1633L89.3064 78.5471L91.033 80.6063L81.5446 85.5351" fill="#C3604F"/>
<path d="M89.306 78.5471L88.1455 77.1633L118.832 48.4839L119.993 49.8691L89.306 78.5471" fill="#774E1B"/>
<path d="M76.2393 88.2911L80.5097 84.3003L81.5454 85.5351L76.2393 88.2911Z" fill="#36923B"/>
<path d="M127.436 46.5856C127.439 46.5825 127.443 46.5794 127.446 46.5764C127.443 46.5794 127.439 46.5825 127.436 46.5856ZM127.449 46.5736C127.451 46.5715 127.453 46.5695 127.455 46.5674C127.453 46.5695 127.451 46.5715 127.449 46.5736ZM127.459 46.564C127.461 46.5619 127.463 46.5598 127.465 46.5578C127.463 46.5598 127.461 46.5619 127.459 46.564ZM127.469 46.5547C127.471 46.5526 127.474 46.5502 127.476 46.5478C127.474 46.5502 127.471 46.5526 127.469 46.5547ZM127.478 46.5454C127.482 46.5423 127.485 46.5395 127.488 46.5364C127.485 46.5395 127.482 46.5426 127.478 46.5454ZM127.491 46.5333C127.493 46.5316 127.495 46.5292 127.497 46.5275C127.495 46.5296 127.493 46.5313 127.491 46.5333ZM127.501 46.5237C127.503 46.5216 127.505 46.5199 127.507 46.5179C127.505 46.5199 127.503 46.5216 127.501 46.5237ZM127.511 46.5144C127.513 46.5124 127.515 46.5103 127.517 46.5086C127.515 46.5103 127.513 46.5124 127.511 46.5144ZM127.52 46.5048C127.523 46.502 127.526 46.4989 127.529 46.4962C127.526 46.4989 127.523 46.502 127.52 46.5048ZM127.532 46.4927C127.534 46.491 127.536 46.489 127.538 46.4869C127.536 46.489 127.534 46.4907 127.532 46.4927ZM127.542 46.4828C127.544 46.481 127.546 46.4793 127.548 46.4776C127.546 46.4793 127.544 46.481 127.542 46.4828ZM127.552 46.4735C127.554 46.4718 127.555 46.4697 127.557 46.468C127.555 46.4697 127.554 46.4718 127.552 46.4735ZM127.561 46.4642C127.563 46.4614 127.566 46.459 127.569 46.4566C127.566 46.459 127.564 46.4614 127.561 46.4642ZM127.572 46.4535C127.574 46.4508 127.576 46.4484 127.579 46.4459C127.576 46.4484 127.574 46.4508 127.572 46.4535ZM127.583 46.4418C127.585 46.4398 127.586 46.4384 127.588 46.4367C127.587 46.4384 127.585 46.4401 127.583 46.4418ZM127.592 46.4318C127.594 46.4305 127.596 46.4287 127.597 46.4274C127.596 46.4287 127.594 46.4305 127.592 46.4318ZM127.602 46.4225C127.603 46.4208 127.605 46.4191 127.606 46.4177C127.605 46.4191 127.603 46.4208 127.602 46.4225ZM127.612 46.4119C127.614 46.4095 127.617 46.4071 127.619 46.4047C127.617 46.4071 127.614 46.4095 127.612 46.4119ZM127.623 46.3998C127.625 46.3981 127.626 46.3967 127.628 46.395C127.627 46.3967 127.625 46.3981 127.623 46.3998ZM127.633 46.3906C127.634 46.3888 127.635 46.3871 127.637 46.3857C127.635 46.3871 127.634 46.3888 127.633 46.3906ZM127.642 46.3806C127.643 46.3792 127.644 46.3778 127.646 46.3761C127.645 46.3778 127.643 46.3792 127.642 46.3806ZM127.65 46.3713C127.652 46.3692 127.654 46.3675 127.656 46.3654C127.654 46.3675 127.652 46.3696 127.65 46.3713ZM127.663 46.3579C127.664 46.3561 127.666 46.3548 127.667 46.3531C127.666 46.3548 127.664 46.3561 127.663 46.3579ZM127.672 46.3482C127.673 46.3465 127.675 46.3451 127.676 46.3438C127.675 46.3451 127.673 46.3465 127.672 46.3482ZM127.681 46.3386C127.682 46.3369 127.683 46.3355 127.685 46.3341C127.683 46.3355 127.682 46.3369 127.681 46.3386ZM127.69 46.329C127.691 46.3272 127.693 46.3259 127.694 46.3241C127.693 46.3259 127.691 46.3272 127.69 46.329ZM127.702 46.3152C127.703 46.3138 127.705 46.3124 127.706 46.3107C127.705 46.3121 127.703 46.3138 127.702 46.3152ZM127.711 46.3052C127.712 46.3042 127.713 46.3025 127.715 46.3014C127.713 46.3025 127.712 46.3042 127.711 46.3052ZM127.72 46.2956C127.721 46.2942 127.722 46.2932 127.723 46.2918C127.722 46.2932 127.721 46.2942 127.72 46.2956ZM127.728 46.286C127.729 46.2849 127.73 46.2839 127.731 46.2829C127.73 46.2839 127.729 46.2849 127.728 46.286ZM127.75 46.2615C127.751 46.2605 127.751 46.2595 127.752 46.2588C127.751 46.2595 127.751 46.2605 127.75 46.2615ZM127.758 46.2522C127.759 46.2512 127.76 46.2502 127.761 46.2491C127.76 46.2502 127.759 46.2512 127.758 46.2522ZM127.766 46.2426C127.767 46.2419 127.768 46.2409 127.769 46.2399C127.768 46.2409 127.767 46.2416 127.766 46.2426ZM127.788 46.2175C127.789 46.2168 127.789 46.2161 127.79 46.2154C127.789 46.2158 127.789 46.2168 127.788 46.2175ZM127.795 46.2085C127.796 46.2075 127.797 46.2065 127.798 46.2058C127.797 46.2065 127.796 46.2075 127.795 46.2085ZM127.804 46.1992C127.804 46.1982 127.805 46.1972 127.806 46.1962C127.805 46.1972 127.804 46.1982 127.804 46.1992ZM127.812 46.1893C127.812 46.1893 127.812 46.1886 127.812 46.1886C127.812 46.1886 127.812 46.1893 127.812 46.1893ZM127.833 46.1645C127.833 46.1635 127.834 46.1628 127.835 46.1618C127.834 46.1628 127.833 46.1635 127.833 46.1645ZM127.84 46.1549C127.841 46.1542 127.842 46.1531 127.843 46.1521C127.842 46.1531 127.841 46.1542 127.84 46.1549ZM127.848 46.1452C127.849 46.1445 127.85 46.1439 127.85 46.1432C127.85 46.1439 127.849 46.1449 127.848 46.1452ZM127.869 46.1198C127.87 46.1191 127.87 46.1184 127.871 46.1177C127.87 46.1184 127.87 46.1191 127.869 46.1198ZM127.876 46.1108C127.877 46.1098 127.878 46.1088 127.879 46.1077C127.878 46.1088 127.877 46.1098 127.876 46.1108ZM127.884 46.1009C127.885 46.1002 127.885 46.0995 127.886 46.0988C127.885 46.0995 127.885 46.1002 127.884 46.1009ZM127.905 46.0744C127.906 46.0737 127.906 46.0733 127.906 46.073C127.906 46.0733 127.906 46.0737 127.905 46.0744ZM127.912 46.0654C127.913 46.0647 127.913 46.064 127.914 46.0633C127.913 46.064 127.913 46.0647 127.912 46.0654ZM127.92 46.0558C127.92 46.0551 127.921 46.0544 127.922 46.0537C127.921 46.0544 127.92 46.0551 127.92 46.0558ZM127.947 46.0203C127.948 46.0193 127.948 46.0186 127.949 46.0179C127.948 46.019 127.948 46.0193 127.947 46.0203ZM127.955 46.0104C127.955 46.01 127.955 46.009 127.956 46.0083C127.955 46.009 127.955 46.01 127.955 46.0104ZM127.962 46.0007C127.962 46.0004 127.962 46 127.963 45.9997C127.962 46 127.962 46.0004 127.962 46.0007ZM127.982 45.9739C127.982 45.9735 127.983 45.9732 127.983 45.9725C127.983 45.9729 127.982 45.9735 127.982 45.9739ZM127.988 45.9649C127.989 45.9643 127.99 45.9632 127.99 45.9625C127.99 45.9636 127.989 45.9643 127.988 45.9649ZM127.996 45.9546C127.996 45.9543 127.996 45.9543 127.997 45.9539C127.996 45.9543 127.996 45.9546 127.996 45.9546ZM128.023 45.9182C128.023 45.9178 128.023 45.9175 128.023 45.9171C128.023 45.9175 128.023 45.9178 128.023 45.9182ZM128.029 45.9085C128.03 45.9082 128.03 45.9078 128.03 45.9078C128.03 45.9082 128.03 45.9082 128.029 45.9085ZM128.056 45.8717C128.056 45.8714 128.056 45.871 128.056 45.8707C128.056 45.871 128.056 45.8714 128.056 45.8717ZM128.062 45.8621C128.062 45.8617 128.063 45.8614 128.063 45.861C128.063 45.8614 128.062 45.8617 128.062 45.8621ZM128.095 45.8153C128.095 45.8149 128.095 45.8142 128.095 45.8142C128.095 45.8146 128.095 45.8146 128.095 45.8153ZM128.126 45.7678C128.126 45.7675 128.127 45.7671 128.127 45.7668C128.127 45.7671 128.126 45.7675 128.126 45.7678ZM128.132 45.7578C128.133 45.7578 128.133 45.7575 128.133 45.7575C128.133 45.7575 128.133 45.7578 128.132 45.7578ZM128.157 45.72C128.158 45.7196 128.158 45.7196 128.158 45.7193C128.158 45.7196 128.158 45.7196 128.157 45.72ZM128.194 45.6625C128.194 45.6622 128.194 45.6615 128.194 45.6615C128.194 45.6618 128.194 45.6622 128.194 45.6625Z" fill="#BDA88E"/>
<path d="M128.224 45.6136L128.225 45.6127V45.6136H128.224Z" fill="#C18526"/>
<path d="M128.229 45.604L128.23 45.603L128.229 45.604Z" fill="#C18526"/>
<path d="M128.253 45.5651C128.253 45.5641 128.254 45.5641 128.254 45.5641H128.253C128.253 45.5651 128.253 45.5641 128.253 45.5651Z" fill="#C18526"/>
<path d="M128.258 45.5551C128.258 45.5541 128.258 45.5541 128.259 45.5541H128.258V45.5551Z" fill="#C18526"/>
<path d="M128.287 45.5063C128.287 45.5058 128.287 45.5058 128.287 45.5053C128.287 45.5058 128.287 45.5058 128.287 45.5063Z" fill="#BDA88E"/>
<path d="M128.287 45.5063C128.287 45.5058 128.287 45.5058 128.288 45.5053H128.287C128.287 45.5058 128.287 45.5058 128.287 45.5063Z" fill="#C18526"/>
<path d="M128.314 45.4568C128.315 45.4568 128.315 45.4564 128.315 45.4564V45.4568C128.314 45.4568 128.315 45.4568 128.314 45.4568ZM128.32 45.4475L128.32 45.4472L128.32 45.4475Z" fill="#C18526"/>
<path d="M128.342 45.4072C128.342 45.4067 128.342 45.4068 128.342 45.4063C128.342 45.4068 128.342 45.4068 128.342 45.4068C128.342 45.4068 128.342 45.4067 128.342 45.4072Z" fill="#C18526"/>
<path d="M128.347 45.3972C128.347 45.3968 128.347 45.3968 128.348 45.3963C128.347 45.3963 128.347 45.3963 128.347 45.3968C128.347 45.3968 128.347 45.3968 128.347 45.3972Z" fill="#C18526"/>
<path d="M128.374 45.347C128.374 45.3467 128.374 45.3467 128.374 45.3467V45.347C128.374 45.347 128.374 45.347 128.374 45.347ZM128.453 45.1847C128.454 45.1847 128.454 45.1847 128.454 45.1843C128.454 45.1847 128.454 45.1847 128.453 45.1847ZM128.505 45.0716L128.505 45.0713L128.505 45.0716ZM128.527 45.0202C128.527 45.0199 128.527 45.0196 128.527 45.0192C128.527 45.0196 128.527 45.0196 128.527 45.0202ZM128.549 44.9682C128.549 44.9679 128.549 44.9675 128.549 44.9672C128.549 44.9675 128.549 44.9679 128.549 44.9682ZM128.553 44.9575C128.553 44.9572 128.553 44.9572 128.553 44.9568C128.553 44.9568 128.553 44.9572 128.553 44.9575ZM128.569 44.9158C128.569 44.9155 128.569 44.9155 128.57 44.9151C128.569 44.9155 128.569 44.9155 128.569 44.9158ZM128.574 44.9051C128.574 44.9048 128.574 44.9048 128.574 44.9044C128.574 44.9048 128.574 44.9048 128.574 44.9051ZM128.59 44.8631V44.8627V44.8631Z" fill="#C18526"/>
<path d="M128.594 44.8539C128.594 44.8536 128.594 44.8529 128.594 44.8522C128.594 44.8526 128.594 44.8526 128.594 44.8529V44.8533C128.594 44.8536 128.594 44.8536 128.594 44.8539ZM128.598 44.8425H128.598C128.598 44.8425 128.598 44.8425 128.598 44.8425ZM128.612 44.801C128.612 44.8007 128.612 44.8 128.612 44.7996C128.612 44.8 128.612 44.8007 128.612 44.801ZM128.615 44.7903C128.616 44.7896 128.616 44.7889 128.616 44.7882C128.616 44.7889 128.616 44.7896 128.615 44.7903Z" fill="#C18526"/>
<path d="M128.632 44.7486C128.632 44.7483 128.632 44.7476 128.633 44.7468C128.633 44.7472 128.633 44.7472 128.632 44.7476C128.632 44.7479 128.632 44.7483 128.632 44.7486Z" fill="#C18526"/>
<path d="M128.636 44.7376C128.636 44.737 128.636 44.7366 128.636 44.7359C128.636 44.7363 128.636 44.7366 128.636 44.737C128.636 44.7373 128.636 44.7376 128.636 44.7376ZM128.639 44.7268C128.639 44.7264 128.639 44.7264 128.64 44.7261C128.639 44.7264 128.639 44.7264 128.639 44.7268ZM128.65 44.6958C128.65 44.6955 128.65 44.6952 128.65 44.6948C128.65 44.6952 128.65 44.6955 128.65 44.6958Z" fill="#C18526"/>
<path d="M128.653 44.6843C128.654 44.6838 128.654 44.6833 128.654 44.6833C128.654 44.6833 128.654 44.6838 128.653 44.6843Z" fill="#BDA88E"/>
<path d="M128.653 44.685C128.653 44.6843 128.653 44.6837 128.654 44.6826C128.654 44.683 128.653 44.6833 128.653 44.6837C128.653 44.6837 128.653 44.684 128.653 44.6843C128.653 44.6847 128.653 44.6847 128.653 44.685V44.685ZM128.657 44.6738C128.657 44.6731 128.657 44.6728 128.657 44.6724C128.657 44.6728 128.657 44.6735 128.657 44.6738ZM128.667 44.6425C128.667 44.6422 128.667 44.6419 128.667 44.6415C128.667 44.6419 128.667 44.6422 128.667 44.6425Z" fill="#C18526"/>
<path d="M128.671 44.631C128.672 44.6305 128.672 44.6305 128.672 44.63C128.672 44.6305 128.672 44.6305 128.671 44.631Z" fill="#BDA88E"/>
<path d="M128.671 44.632C128.672 44.631 128.672 44.6303 128.672 44.6296L128.672 44.6303C128.672 44.6306 128.672 44.6306 128.672 44.631C128.672 44.631 128.671 44.6317 128.671 44.632V44.632ZM128.675 44.6207C128.675 44.62 128.676 44.6193 128.676 44.6183C128.676 44.6193 128.675 44.62 128.675 44.6207Z" fill="#C18526"/>
<path d="M128.688 44.5787C128.689 44.578 128.69 44.5769 128.69 44.5762C128.69 44.5765 128.69 44.5765 128.69 44.5769L128.689 44.5773C128.689 44.5776 128.688 44.5783 128.688 44.5787Z" fill="#C18526"/>
<path d="M128.692 44.5677C128.692 44.5667 128.692 44.5656 128.693 44.5646C128.693 44.5653 128.693 44.5656 128.692 44.566C128.692 44.5663 128.692 44.5663 128.692 44.5667C128.692 44.567 128.692 44.5673 128.692 44.5677ZM128.695 44.5561C128.695 44.5555 128.696 44.5551 128.696 44.5544C128.696 44.5551 128.695 44.5555 128.695 44.5561ZM128.704 44.5255C128.704 44.5249 128.704 44.5242 128.705 44.5232C128.705 44.5242 128.704 44.5249 128.704 44.5255Z" fill="#C18526"/>
<path d="M128.708 44.513C128.708 44.5125 128.708 44.5125 128.708 44.512C128.708 44.5125 128.708 44.5125 128.708 44.513Z" fill="#BDA88E"/>
<path d="M128.708 44.5143C128.708 44.513 128.708 44.5123 128.708 44.5113C128.708 44.5116 128.708 44.512 128.708 44.5123C128.708 44.5127 128.708 44.5126 128.708 44.513C128.708 44.5133 128.708 44.5137 128.708 44.5143V44.5143ZM128.711 44.5025C128.711 44.5018 128.711 44.5011 128.711 44.5004C128.711 44.5011 128.711 44.5018 128.711 44.5025ZM128.719 44.4719C128.72 44.4712 128.72 44.4702 128.72 44.4695C128.72 44.4702 128.72 44.4712 128.719 44.4719Z" fill="#C18526"/>
<path d="M128.723 44.4607C128.723 44.4596 128.724 44.4582 128.724 44.4574C128.724 44.4578 128.724 44.4582 128.724 44.4585V44.4589C128.723 44.4592 128.723 44.4599 128.723 44.4607Z" fill="#C18526"/>
<path d="M128.727 44.448C128.727 44.448 128.727 44.448 128.728 44.447C128.727 44.448 128.727 44.448 128.727 44.448Z" fill="#BDA88E"/>
<path d="M128.726 44.449C128.726 44.448 128.727 44.4469 128.727 44.4459C128.727 44.4466 128.727 44.4473 128.727 44.4476C128.726 44.448 128.726 44.448 128.726 44.448C128.726 44.4483 128.726 44.4486 128.726 44.449V44.449ZM128.729 44.4374C128.729 44.4371 128.729 44.4367 128.73 44.4361C128.729 44.4364 128.729 44.4371 128.729 44.4374ZM128.735 44.417C128.735 44.4167 128.735 44.416 128.735 44.4157C128.735 44.416 128.735 44.4167 128.735 44.417Z" fill="#C18526"/>
<path d="M128.738 44.4066C128.738 44.4056 128.739 44.4045 128.74 44.4034C128.739 44.4038 128.739 44.4041 128.739 44.4045V44.4048C128.738 44.4052 128.738 44.4063 128.738 44.4066Z" fill="#C18526"/>
<path d="M128.741 44.3953C128.741 44.3943 128.742 44.3929 128.742 44.3919C128.742 44.3922 128.742 44.3929 128.742 44.3936C128.742 44.3939 128.742 44.3939 128.742 44.3939C128.741 44.3943 128.741 44.395 128.741 44.3953V44.3953ZM128.744 44.3837C128.744 44.3827 128.745 44.3817 128.745 44.3803C128.745 44.3814 128.744 44.3827 128.744 44.3837ZM128.752 44.3531C128.752 44.3521 128.752 44.3511 128.752 44.3501C128.752 44.3511 128.752 44.3521 128.752 44.3531Z" fill="#C18526"/>
<path d="M128.755 44.3402C128.755 44.3396 128.755 44.3384 128.756 44.3384C128.755 44.339 128.755 44.339 128.755 44.3402Z" fill="#BDA88E"/>
<path d="M128.755 44.3416C128.756 44.3403 128.756 44.3389 128.756 44.3375C128.756 44.3379 128.756 44.3386 128.756 44.3392C128.756 44.3392 128.756 44.3399 128.756 44.3403C128.755 44.3406 128.755 44.3413 128.755 44.3416V44.3416ZM128.758 44.3297C128.758 44.3287 128.759 44.3277 128.759 44.3263C128.759 44.3277 128.758 44.3287 128.758 44.3297ZM128.766 44.2991C128.766 44.2981 128.766 44.2971 128.766 44.2961C128.766 44.2971 128.766 44.2981 128.766 44.2991Z" fill="#C18526"/>
<path d="M128.769 44.2855C128.77 44.285 128.77 44.285 128.77 44.2845C128.77 44.285 128.77 44.285 128.769 44.2855Z" fill="#BDA88E"/>
<path d="M128.769 44.2876C128.769 44.2864 128.77 44.2852 128.77 44.2839C128.77 44.2842 128.77 44.2848 128.77 44.2852C128.77 44.2855 128.77 44.2855 128.769 44.2858C128.769 44.2864 128.769 44.287 128.769 44.2876Z" fill="#C18526"/>
<path d="M128.771 44.2745C128.772 44.274 128.772 44.274 128.772 44.2735C128.772 44.274 128.772 44.274 128.771 44.2745Z" fill="#BDA88E"/>
<path d="M128.771 44.2759C128.772 44.2742 128.772 44.2729 128.772 44.2715C128.772 44.2722 128.772 44.2728 128.772 44.2739C128.772 44.2742 128.772 44.2742 128.771 44.2745C128.771 44.2749 128.771 44.2752 128.771 44.2759V44.2759ZM128.774 44.264C128.774 44.2626 128.775 44.2613 128.775 44.2599C128.775 44.2613 128.774 44.2626 128.774 44.264ZM128.778 44.2457C128.779 44.2443 128.779 44.2429 128.779 44.2416C128.779 44.2429 128.779 44.2443 128.778 44.2457Z" fill="#C18526"/>
<path d="M128.782 44.2339C128.782 44.2323 128.783 44.2308 128.783 44.2292C128.783 44.2295 128.783 44.2301 128.783 44.2304C128.783 44.2308 128.783 44.2311 128.783 44.2317C128.782 44.2323 128.782 44.233 128.782 44.2339Z" fill="#C18526"/>
<path d="M128.784 44.2205C128.785 44.2198 128.785 44.2194 128.785 44.2187C128.785 44.2194 128.785 44.2198 128.784 44.2205Z" fill="#BDA88E"/>
<path d="M128.784 44.2219C128.784 44.2202 128.785 44.2185 128.785 44.2168C128.785 44.2175 128.785 44.2182 128.784 44.2188C128.784 44.2195 128.784 44.2199 128.784 44.2205C128.784 44.2209 128.784 44.2216 128.784 44.2219V44.2219ZM128.786 44.21C128.787 44.2083 128.787 44.2063 128.787 44.2049C128.787 44.2066 128.787 44.2083 128.786 44.21ZM128.791 44.191C128.791 44.1896 128.791 44.1883 128.791 44.1872C128.791 44.1883 128.791 44.1896 128.791 44.191Z" fill="#C18526"/>
<path d="M128.794 44.1765C128.794 44.176 128.794 44.176 128.794 44.1755C128.794 44.176 128.794 44.176 128.794 44.1765Z" fill="#BDA88E"/>
<path d="M128.793 44.1799C128.793 44.1783 128.794 44.1764 128.795 44.1748C128.794 44.1752 128.794 44.1755 128.794 44.1761C128.794 44.1764 128.794 44.1764 128.794 44.1768C128.794 44.1777 128.793 44.179 128.793 44.1799Z" fill="#C18526"/>
<path d="M128.796 44.1662C128.797 44.1653 128.797 44.1644 128.797 44.1636C128.797 44.1644 128.797 44.1653 128.796 44.1662Z" fill="#BDA88E"/>
<path d="M128.796 44.1682C128.796 44.1663 128.798 44.164 128.798 44.162C128.798 44.1627 128.798 44.1637 128.798 44.1643C128.797 44.165 128.797 44.1656 128.796 44.1663C128.796 44.1669 128.796 44.1676 128.796 44.1682Z" fill="#C18526"/>
<path d="M128.799 44.1544C128.799 44.1533 128.799 44.1533 128.8 44.1527C128.799 44.1533 128.799 44.1539 128.799 44.1544Z" fill="#BDA88E"/>
<path d="M128.798 44.1558C128.799 44.1537 128.799 44.1512 128.8 44.1491C128.799 44.1505 128.799 44.1519 128.799 44.1533C128.799 44.1537 128.799 44.1537 128.799 44.1544C128.799 44.1548 128.798 44.1551 128.798 44.1558V44.1558ZM128.801 44.143C128.801 44.1401 128.802 44.1373 128.802 44.1344C128.802 44.1373 128.801 44.1401 128.801 44.143Z" fill="#C18526"/>
<path d="M128.805 44.1262C128.805 44.1243 128.806 44.122 128.807 44.1201C128.807 44.1207 128.807 44.121 128.806 44.1214C128.806 44.123 128.805 44.1246 128.805 44.1262Z" fill="#C18526"/>
<path d="M128.808 44.1111C128.808 44.1104 128.808 44.11 128.808 44.1093C128.808 44.11 128.808 44.1104 128.808 44.1111Z" fill="#BDA88E"/>
<path d="M128.807 44.1139C128.808 44.1119 128.809 44.11 128.809 44.108C128.809 44.1084 128.809 44.109 128.809 44.1096C128.808 44.1103 128.808 44.1106 128.808 44.1113C128.808 44.1119 128.807 44.1129 128.807 44.1139Z" fill="#C18526"/>
<path d="M128.81 44.0998C128.81 44.099 128.81 44.0987 128.811 44.098C128.81 44.0987 128.81 44.099 128.81 44.0998Z" fill="#BDA88E"/>
<path d="M128.81 44.1015C128.81 44.0991 128.81 44.0971 128.811 44.095C128.811 44.096 128.81 44.0971 128.81 44.0981C128.81 44.0988 128.81 44.0991 128.81 44.0998C128.81 44.1001 128.81 44.1008 128.81 44.1015V44.1015ZM128.812 44.0892C128.812 44.0865 128.813 44.0841 128.813 44.0814C128.813 44.0841 128.812 44.0865 128.812 44.0892ZM128.815 44.0736C128.815 44.0709 128.816 44.0682 128.816 44.0655C128.816 44.0682 128.815 44.0709 128.815 44.0736Z" fill="#C18526"/>
<path d="M128.819 44.0561C128.819 44.0556 128.819 44.0546 128.819 44.0541C128.819 44.0546 128.819 44.0556 128.819 44.0561Z" fill="#BDA88E"/>
<path d="M128.818 44.0598C128.819 44.0575 128.819 44.0553 128.82 44.053C128.82 44.0537 128.82 44.0543 128.82 44.055C128.82 44.0553 128.819 44.0559 128.819 44.0563C128.819 44.0576 128.818 44.0585 128.818 44.0598Z" fill="#C18526"/>
<path d="M128.821 44.0447C128.822 44.0442 128.822 44.0432 128.822 44.0428C128.822 44.0432 128.822 44.0442 128.821 44.0447Z" fill="#BDA88E"/>
<path d="M128.82 44.0471C128.821 44.0447 128.821 44.0424 128.822 44.0403C128.822 44.0413 128.821 44.0424 128.821 44.0434C128.821 44.0437 128.821 44.0444 128.821 44.0447C128.821 44.0454 128.821 44.0464 128.82 44.0471V44.0471ZM128.822 44.0349C128.823 44.0322 128.823 44.0298 128.824 44.0271C128.823 44.0298 128.823 44.0322 128.822 44.0349ZM128.825 44.0226C128.826 44.0186 128.826 44.0148 128.827 44.0108C128.826 44.0148 128.826 44.0186 128.825 44.0226Z" fill="#C18526"/>
<path d="M128.829 44.001C128.83 44 128.83 44 128.83 43.9991C128.83 43.9996 128.83 44.0005 128.829 44.001Z" fill="#BDA88E"/>
<path d="M128.829 44.0054C128.829 44.0032 128.83 44.0009 128.831 43.9983C128.831 43.999 128.83 43.9996 128.83 43.9999C128.83 44.0006 128.83 44.0006 128.83 44.0012C128.829 44.0025 128.829 44.0042 128.829 44.0054Z" fill="#C18526"/>
<path d="M128.831 43.9903C128.831 43.9893 128.831 43.9885 128.831 43.9878C128.831 43.9885 128.831 43.9893 128.831 43.9903Z" fill="#BDA88E"/>
<path d="M128.831 43.9927C128.831 43.9905 128.832 43.9882 128.833 43.9856C128.832 43.9866 128.832 43.9872 128.832 43.9882C128.832 43.9888 128.832 43.9895 128.831 43.9905C128.831 43.9911 128.831 43.9921 128.831 43.9927Z" fill="#C18526"/>
<path d="M128.833 43.98C128.833 43.9776 128.834 43.9752 128.834 43.9725C128.834 43.9742 128.834 43.9756 128.833 43.9773C128.833 43.9776 128.833 43.978 128.833 43.9783C128.833 43.979 128.833 43.9797 128.833 43.98V43.98ZM128.835 43.9678C128.836 43.964 128.836 43.9599 128.837 43.9559C128.836 43.9599 128.836 43.9637 128.835 43.9678Z" fill="#C18526"/>
<path d="M128.838 43.9518C128.838 43.9493 128.839 43.9465 128.84 43.9441C128.84 43.9447 128.839 43.945 128.839 43.9456C128.839 43.9456 128.839 43.9456 128.839 43.9459C128.839 43.9478 128.838 43.9499 128.838 43.9518Z" fill="#C18526"/>
<path d="M128.84 43.9349C128.84 43.9341 128.84 43.9332 128.84 43.9323C128.84 43.9332 128.84 43.9341 128.84 43.9349Z" fill="#BDA88E"/>
<path d="M128.839 43.9384C128.84 43.9359 128.841 43.9337 128.841 43.9313C128.841 43.9319 128.841 43.9328 128.841 43.9334C128.841 43.9341 128.84 43.9347 128.84 43.9353C128.84 43.9362 128.84 43.9375 128.839 43.9384Z" fill="#C18526"/>
<path d="M128.842 43.9236C128.842 43.9228 128.842 43.9219 128.842 43.921C128.842 43.9219 128.842 43.9228 128.842 43.9236Z" fill="#BDA88E"/>
<path d="M128.842 43.9256C128.842 43.9229 128.842 43.9205 128.843 43.9178C128.843 43.9188 128.843 43.9202 128.842 43.9216C128.842 43.9222 128.842 43.9229 128.842 43.9236C128.842 43.9243 128.842 43.925 128.842 43.9256V43.9256ZM128.844 43.9131C128.844 43.909 128.845 43.9052 128.846 43.9015C128.845 43.9052 128.844 43.909 128.844 43.9131ZM128.846 43.9005C128.846 43.8967 128.847 43.8927 128.847 43.8886C128.847 43.8927 128.846 43.8964 128.846 43.9005Z" fill="#C18526"/>
<path d="M128.849 43.8795C128.849 43.8792 128.85 43.8785 128.85 43.8778C128.85 43.8785 128.849 43.8792 128.849 43.8795Z" fill="#BDA88E"/>
<path d="M128.849 43.8837C128.85 43.8812 128.85 43.8791 128.851 43.8766C128.851 43.8772 128.85 43.8778 128.85 43.8784C128.85 43.879 128.85 43.8797 128.85 43.88C128.85 43.8812 128.849 43.8825 128.849 43.8837Z" fill="#C18526"/>
<path d="M128.85 43.8706C128.851 43.8682 128.851 43.8658 128.851 43.8631C128.851 43.8641 128.851 43.8651 128.851 43.8665C128.851 43.8668 128.851 43.8675 128.851 43.8682C128.85 43.8689 128.85 43.8699 128.85 43.8706V43.8706ZM128.852 43.858C128.853 43.8553 128.853 43.8522 128.853 43.8492C128.853 43.8522 128.853 43.8553 128.852 43.858ZM128.854 43.8458C128.854 43.8417 128.855 43.838 128.855 43.8339C128.855 43.8376 128.854 43.842 128.854 43.8458Z" fill="#C18526"/>
<path d="M128.857 43.8241C128.857 43.8237 128.858 43.8227 128.858 43.8222C128.858 43.8227 128.858 43.8232 128.857 43.8241Z" fill="#BDA88E"/>
<path d="M128.856 43.8296C128.857 43.8269 128.858 43.8241 128.858 43.8216C128.858 43.8222 128.858 43.8228 128.858 43.8235C128.858 43.8238 128.857 43.8244 128.857 43.8247C128.857 43.8262 128.857 43.8278 128.856 43.8296Z" fill="#C18526"/>
<path d="M128.858 43.8131C128.858 43.8124 128.859 43.8113 128.859 43.8106C128.859 43.8113 128.858 43.8124 128.858 43.8131Z" fill="#BDA88E"/>
<path d="M128.858 43.8162C128.858 43.8137 128.859 43.8113 128.859 43.8085C128.859 43.8094 128.859 43.8103 128.859 43.8113C128.859 43.8119 128.858 43.8128 128.858 43.8134C128.858 43.8144 128.858 43.8153 128.858 43.8162Z" fill="#C18526"/>
<path d="M128.86 43.8014C128.86 43.8007 128.861 43.8 128.861 43.7996C128.861 43.8 128.86 43.8007 128.86 43.8014Z" fill="#BDA88E"/>
<path d="M128.859 43.8035C128.86 43.8001 128.86 43.797 128.861 43.794C128.86 43.7957 128.86 43.7977 128.86 43.7998C128.86 43.8001 128.86 43.8008 128.86 43.8015C128.86 43.8021 128.859 43.8028 128.859 43.8035V43.8035ZM128.861 43.7909C128.862 43.7868 128.862 43.7828 128.863 43.7784C128.862 43.7828 128.862 43.7868 128.861 43.7909Z" fill="#C18526"/>
<path d="M128.864 43.7684C128.865 43.7678 128.865 43.7672 128.865 43.7666C128.865 43.7672 128.865 43.7678 128.864 43.7684Z" fill="#BDA88E"/>
<path d="M128.864 43.7763C128.865 43.7729 128.865 43.7698 128.866 43.7664C128.866 43.7671 128.866 43.7677 128.866 43.7683C128.866 43.7686 128.866 43.7689 128.865 43.7692C128.865 43.7717 128.864 43.7739 128.864 43.7763Z" fill="#C18526"/>
<path d="M128.866 43.7578C128.866 43.757 128.866 43.756 128.867 43.7552C128.866 43.7563 128.866 43.757 128.866 43.7578Z" fill="#BDA88E"/>
<path d="M128.866 43.7619C128.866 43.7591 128.867 43.7563 128.868 43.7535C128.867 43.7544 128.867 43.7554 128.867 43.756C128.867 43.7566 128.867 43.7575 128.867 43.7582C128.866 43.7594 128.866 43.7606 128.866 43.7619" fill="#C18526"/>
<path d="M128.868 43.746C128.868 43.7452 128.868 43.7443 128.868 43.7435C128.868 43.7443 128.868 43.7452 128.868 43.746Z" fill="#BDA88E"/>
<path d="M128.867 43.7484C128.868 43.7454 128.868 43.7423 128.868 43.7393C128.868 43.741 128.868 43.7423 128.868 43.744C128.868 43.7447 128.868 43.7454 128.868 43.7461C128.868 43.7468 128.867 43.7478 128.867 43.7484V43.7484ZM128.869 43.7362C128.87 43.7277 128.871 43.7192 128.872 43.7107C128.871 43.7192 128.87 43.7277 128.869 43.7362Z" fill="#C18526"/>
<path d="M128.873 43.7023C128.873 43.7016 128.873 43.7009 128.873 43.6998C128.873 43.7005 128.873 43.7016 128.873 43.7023Z" fill="#BDA88E"/>
<path d="M128.872 43.7075C128.873 43.7044 128.873 43.7013 128.874 43.6985C128.874 43.6994 128.874 43.7001 128.873 43.7007C128.873 43.7016 128.873 43.7022 128.873 43.7028C128.873 43.7044 128.872 43.7059 128.872 43.7075" fill="#C18526"/>
<path d="M128.874 43.6906C128.875 43.6899 128.875 43.6888 128.875 43.6881C128.875 43.6888 128.875 43.6899 128.874 43.6906Z" fill="#BDA88E"/>
<path d="M128.874 43.6938C128.875 43.691 128.876 43.6879 128.876 43.6851C128.876 43.6863 128.876 43.6876 128.875 43.6888C128.875 43.6894 128.875 43.6903 128.875 43.691C128.875 43.6919 128.875 43.6928 128.874 43.6938" fill="#C18526"/>
<path d="M128.876 43.681C128.876 43.677 128.877 43.6732 128.877 43.6691C128.877 43.6722 128.877 43.6749 128.876 43.678C128.876 43.6783 128.876 43.6786 128.876 43.6786C128.876 43.6793 128.876 43.6804 128.876 43.681V43.681ZM128.877 43.6685C128.878 43.664 128.878 43.6596 128.879 43.6556C128.878 43.6596 128.878 43.664 128.877 43.6685Z" fill="#C18526"/>
<path d="M128.879 43.6459C128.88 43.6453 128.88 43.6447 128.88 43.6441C128.88 43.6447 128.88 43.6453 128.879 43.6459Z" fill="#BDA88E"/>
<path d="M128.878 43.6528C128.879 43.6497 128.88 43.6466 128.88 43.6435C128.88 43.6441 128.88 43.6447 128.88 43.6457C128.88 43.646 128.88 43.6463 128.879 43.6466C128.879 43.6488 128.879 43.6509 128.878 43.6528" fill="#C18526"/>
<path d="M128.88 43.6353C128.88 43.6345 128.88 43.6335 128.881 43.6328C128.88 43.6335 128.88 43.6342 128.88 43.6353Z" fill="#BDA88E"/>
<path d="M128.88 43.6387C128.881 43.6359 128.881 43.6331 128.882 43.63C128.881 43.6313 128.881 43.6322 128.881 43.6334C128.881 43.6341 128.881 43.635 128.881 43.6356C128.881 43.6365 128.88 43.6378 128.88 43.6387" fill="#C18526"/>
<path d="M128.881 43.6256C128.882 43.6225 128.882 43.6194 128.883 43.616C128.882 43.6182 128.882 43.6201 128.882 43.6222C128.882 43.6225 128.882 43.6231 128.882 43.6235C128.881 43.6244 128.881 43.625 128.881 43.6256" fill="#C18526"/>
<path d="M128.885 43.5905C128.885 43.5896 128.885 43.5891 128.885 43.5886C128.885 43.5891 128.885 43.5896 128.885 43.5905Z" fill="#BDA88E"/>
<path d="M128.883 43.6129C128.883 43.6044 128.884 43.5959 128.885 43.5871C128.885 43.5881 128.885 43.5888 128.885 43.5895C128.885 43.5898 128.885 43.5901 128.885 43.5908C128.884 43.5983 128.883 43.6054 128.883 43.6129" fill="#C18526"/>
<path d="M128.885 43.5799C128.885 43.5787 128.886 43.5779 128.886 43.5767C128.886 43.5779 128.885 43.5787 128.885 43.5799Z" fill="#BDA88E"/>
<path d="M128.885 43.5843C128.886 43.5812 128.886 43.5778 128.887 43.5747C128.887 43.576 128.886 43.5766 128.886 43.5778C128.886 43.5788 128.886 43.5794 128.886 43.5803C128.886 43.5815 128.885 43.5831 128.885 43.5843" fill="#C18526"/>
<path d="M128.886 43.5682C128.887 43.567 128.887 43.5658 128.887 43.565C128.887 43.5658 128.887 43.567 128.886 43.5682Z" fill="#BDA88E"/>
<path d="M128.886 43.5709C128.887 43.5672 128.887 43.5638 128.887 43.56C128.887 43.5617 128.887 43.5638 128.887 43.5655C128.887 43.5662 128.887 43.5672 128.886 43.5682C128.886 43.5689 128.886 43.5699 128.886 43.5709V43.5709ZM128.887 43.558C128.888 43.5492 128.889 43.5407 128.889 43.5322C128.889 43.5407 128.888 43.5495 128.887 43.558Z" fill="#C18526"/>
<path d="M128.89 43.5296C128.89 43.5262 128.891 43.5228 128.891 43.5197C128.891 43.5207 128.891 43.5216 128.891 43.5225C128.891 43.5231 128.891 43.5237 128.891 43.5244C128.89 43.5262 128.89 43.5278 128.89 43.5296" fill="#C18526"/>
<path d="M128.891 43.5124C128.891 43.5112 128.891 43.5104 128.891 43.5092C128.891 43.51 128.891 43.5116 128.891 43.5124Z" fill="#BDA88E"/>
<path d="M128.891 43.5159C128.891 43.5125 128.891 43.5094 128.892 43.506C128.892 43.5075 128.891 43.5088 128.891 43.5103C128.891 43.5112 128.891 43.5119 128.891 43.5128C128.891 43.5137 128.891 43.5149 128.891 43.5159" fill="#C18526"/>
<path d="M128.892 43.5004C128.892 43.4999 128.892 43.4994 128.893 43.4984C128.892 43.4994 128.892 43.4994 128.892 43.5004Z" fill="#BDA88E"/>
<path d="M128.892 43.5028C128.893 43.494 128.893 43.4851 128.894 43.4763C128.893 43.4841 128.893 43.4916 128.892 43.4991C128.892 43.4997 128.892 43.5001 128.892 43.5004C128.892 43.5011 128.892 43.5021 128.892 43.5028Z" fill="#C18526"/>
<path d="M128.895 43.4677C128.895 43.467 128.895 43.4666 128.895 43.4659C128.895 43.4666 128.895 43.4673 128.895 43.4677Z" fill="#BDA88E"/>
<path d="M128.894 43.4756C128.895 43.4718 128.895 43.468 128.895 43.4642C128.895 43.4651 128.895 43.4658 128.895 43.4667C128.895 43.4673 128.895 43.4677 128.895 43.4683C128.895 43.4708 128.894 43.4731 128.894 43.4756Z" fill="#C18526"/>
<path d="M128.895 43.4608C128.895 43.4577 128.896 43.4543 128.896 43.4509C128.896 43.4522 128.896 43.4534 128.896 43.4546C128.896 43.4556 128.896 43.4562 128.896 43.4571C128.895 43.4583 128.895 43.4596 128.895 43.4608" fill="#C18526"/>
<path d="M128.896 43.4474C128.896 43.4436 128.897 43.4401 128.897 43.4359C128.897 43.4385 128.897 43.441 128.896 43.4436C128.896 43.4439 128.896 43.4445 128.896 43.4448C128.896 43.4458 128.896 43.4464 128.896 43.4474" fill="#C18526"/>
<path d="M128.896 43.4347C128.898 43.4258 128.898 43.417 128.899 43.4082C128.899 43.4092 128.899 43.4099 128.899 43.4109C128.899 43.4109 128.899 43.4112 128.899 43.4116C128.898 43.419 128.897 43.4269 128.896 43.4347" fill="#C18526"/>
<path d="M128.898 43.4061C128.898 43.4026 128.899 43.3988 128.899 43.3956C128.899 43.3966 128.899 43.3978 128.899 43.3991C128.899 43.3997 128.899 43.4004 128.899 43.4013C128.898 43.4029 128.898 43.4045 128.898 43.4061" fill="#C18526"/>
<path d="M128.899 43.3923C128.899 43.3883 128.899 43.3845 128.9 43.3804C128.9 43.3825 128.899 43.3845 128.899 43.3869C128.899 43.3876 128.899 43.3883 128.899 43.3889C128.899 43.3903 128.899 43.3913 128.899 43.3923ZM128.9 43.3798C128.9 43.3706 128.9 43.3617 128.901 43.3526C128.9 43.3617 128.9 43.3706 128.9 43.3798Z" fill="#C18526"/>
<path d="M128.901 43.3521C128.901 43.3479 128.901 43.3441 128.902 43.34C128.902 43.3409 128.901 43.3422 128.901 43.3432C128.901 43.3441 128.901 43.3451 128.901 43.3457C128.901 43.3479 128.901 43.3499 128.901 43.3521" fill="#C18526"/>
<path d="M128.901 43.3335C128.901 43.3323 128.902 43.3311 128.902 43.3303C128.902 43.3311 128.901 43.3323 128.901 43.3335Z" fill="#BDA88E"/>
<path d="M128.901 43.3376C128.901 43.3335 128.902 43.3297 128.902 43.3259C128.902 43.3278 128.902 43.3294 128.902 43.3313C128.902 43.3319 128.901 43.3329 128.901 43.3338C128.901 43.3351 128.901 43.3364 128.901 43.3376Z" fill="#C18526"/>
<path d="M128.902 43.3215C128.902 43.3208 128.902 43.3204 128.902 43.3198C128.902 43.3204 128.902 43.3208 128.902 43.3215ZM128.904 43.2895C128.904 43.2888 128.904 43.2881 128.904 43.2875C128.904 43.2881 128.904 43.2888 128.904 43.2895Z" fill="#BDA88E"/>
<path d="M128.902 43.3242C128.903 43.311 128.903 43.2974 128.904 43.2838C128.904 43.2851 128.904 43.2862 128.904 43.2875C128.904 43.2882 128.904 43.2889 128.904 43.2896C128.903 43.2997 128.903 43.3096 128.902 43.3198C128.902 43.3205 128.902 43.3208 128.902 43.3215C128.902 43.3222 128.902 43.3232 128.902 43.3242Z" fill="#C18526"/>
<path d="M128.903 43.2829C128.903 43.2788 128.903 43.2747 128.904 43.2709C128.904 43.2724 128.904 43.2737 128.903 43.2753C128.903 43.2763 128.903 43.2772 128.903 43.2782C128.903 43.2798 128.903 43.2814 128.903 43.2829Z" fill="#C18526"/>
<path d="M128.904 43.2654C128.904 43.265 128.904 43.2643 128.904 43.264C128.904 43.2643 128.904 43.265 128.904 43.2654ZM128.905 43.232C128.905 43.2317 128.905 43.2313 128.905 43.231C128.905 43.2313 128.905 43.2317 128.905 43.232ZM128.905 43.2213C128.905 43.2202 128.905 43.2195 128.905 43.2185C128.905 43.2195 128.905 43.2206 128.905 43.2213Z" fill="#BDA88E"/>
<path d="M128.904 43.2692C128.904 43.2508 128.905 43.2323 128.905 43.2139C128.905 43.2157 128.905 43.2171 128.905 43.2185C128.905 43.2195 128.905 43.2202 128.905 43.2212C128.905 43.2244 128.905 43.2278 128.905 43.231C128.905 43.2313 128.905 43.2317 128.905 43.232C128.905 43.2428 128.904 43.2532 128.904 43.264C128.904 43.2643 128.904 43.265 128.904 43.2653C128.904 43.2667 128.904 43.2678 128.904 43.2692" fill="#C18526"/>
<path d="M128.905 43.21C128.905 43.2089 128.905 43.2082 128.905 43.2075C128.905 43.2082 128.905 43.2089 128.905 43.21ZM128.905 43.1652C128.905 43.1645 128.905 43.1638 128.905 43.1631C128.905 43.1638 128.905 43.1645 128.905 43.1652Z" fill="#BDA88E"/>
<path d="M128.904 43.2141C128.905 43.1954 128.905 43.1773 128.905 43.1585C128.905 43.1603 128.905 43.1613 128.905 43.1631C128.905 43.1637 128.905 43.1644 128.905 43.1651C128.905 43.1794 128.905 43.1933 128.905 43.2075C128.905 43.2082 128.905 43.2089 128.905 43.2099C128.905 43.2113 128.904 43.2127 128.904 43.2141Z" fill="#C18526"/>
<path d="M128.905 43.1539C128.905 43.1532 128.905 43.1525 128.905 43.1518C128.905 43.1525 128.905 43.1532 128.905 43.1539ZM128.905 43.1419C128.905 43.1419 128.905 43.1415 128.905 43.1412C128.905 43.1415 128.905 43.1419 128.905 43.1419ZM128.905 43.1095C128.905 43.1088 128.905 43.1081 128.905 43.1078C128.905 43.1081 128.905 43.1088 128.905 43.1095ZM128.905 43.0982C128.905 43.0975 128.905 43.0964 128.905 43.0958C128.905 43.0964 128.905 43.0971 128.905 43.0982ZM128.905 43.0861C128.905 43.0854 128.905 43.0851 128.905 43.0847C128.905 43.0851 128.905 43.0854 128.905 43.0861ZM128.904 43.0527C128.904 43.0524 128.904 43.0521 128.904 43.0521C128.904 43.0521 128.904 43.0524 128.904 43.0527ZM128.904 43.0424C128.904 43.0414 128.904 43.0407 128.904 43.0397C128.904 43.0407 128.904 43.0414 128.904 43.0424ZM128.904 43.0304C128.904 43.0297 128.904 43.029 128.904 43.028C128.904 43.0287 128.904 43.0297 128.904 43.0304ZM128.903 42.9857C128.903 42.9853 128.903 42.9846 128.902 42.9843C128.903 42.9846 128.903 42.9853 128.903 42.9857ZM128.902 42.9743C128.902 42.9736 128.902 42.9733 128.902 42.9726C128.902 42.9729 128.902 42.974 128.902 42.9743ZM128.9 42.9296C128.9 42.9289 128.9 42.9289 128.9 42.9285C128.9 42.9289 128.9 42.9292 128.9 42.9296ZM128.9 42.9186C128.9 42.9179 128.9 42.9172 128.9 42.9165C128.9 42.9172 128.9 42.9179 128.9 42.9186ZM128.899 42.9065C128.899 42.9062 128.899 42.9058 128.899 42.9055C128.899 42.9058 128.899 42.9062 128.899 42.9065ZM128.897 42.8628C128.897 42.8621 128.897 42.8611 128.897 42.8604C128.897 42.8614 128.897 42.8621 128.897 42.8628ZM128.897 42.8511C128.897 42.8504 128.897 42.8497 128.896 42.8491C128.897 42.8497 128.897 42.8504 128.897 42.8511ZM128.894 42.8064C128.894 42.8061 128.894 42.8054 128.894 42.805C128.894 42.8057 128.894 42.8061 128.894 42.8064ZM128.893 42.795C128.893 42.7944 128.893 42.794 128.893 42.7937C128.893 42.794 128.893 42.7944 128.893 42.795ZM128.889 42.7503C128.889 42.7496 128.889 42.7496 128.889 42.7493C128.889 42.7496 128.889 42.75 128.889 42.7503ZM128.889 42.7393C128.889 42.739 128.889 42.7379 128.889 42.7372C128.889 42.7379 128.889 42.7386 128.889 42.7393ZM128.888 42.7273V42.7269V42.7273ZM128.884 42.6832C128.884 42.6829 128.884 42.6822 128.884 42.6818C128.884 42.6825 128.884 42.6829 128.884 42.6832ZM128.883 42.6719C128.883 42.6712 128.883 42.6708 128.883 42.6701C128.883 42.6708 128.883 42.6712 128.883 42.6719ZM128.878 42.6271C128.878 42.6268 128.878 42.6264 128.878 42.6261C128.878 42.6264 128.878 42.6268 128.878 42.6271ZM128.877 42.6158C128.877 42.6154 128.877 42.6151 128.877 42.6147C128.877 42.6151 128.877 42.6154 128.877 42.6158ZM128.871 42.56C128.871 42.5597 128.871 42.5594 128.871 42.559C128.871 42.5594 128.871 42.5597 128.871 42.56ZM128.864 42.504V42.5036V42.504Z" fill="#BDA88E"/>
<path d="M128.905 43.1587C128.909 42.1011 128.57 41.0379 127.875 40.1715C128.144 40.5066 128.359 40.8713 128.523 41.254C128.694 41.6555 128.807 42.0766 128.864 42.5036V42.504C128.866 42.5222 128.868 42.5408 128.871 42.559C128.871 42.5594 128.871 42.5597 128.871 42.56C128.873 42.5783 128.875 42.5965 128.877 42.6147C128.877 42.6151 128.877 42.6154 128.877 42.6158C128.878 42.6192 128.878 42.6227 128.878 42.6261C128.878 42.6264 128.878 42.6268 128.878 42.6271C128.88 42.6416 128.881 42.656 128.883 42.6701C128.883 42.6708 128.883 42.6712 128.883 42.6719C128.883 42.675 128.883 42.6784 128.884 42.6818C128.884 42.6822 128.884 42.6829 128.884 42.6832C128.885 42.6977 128.887 42.7125 128.888 42.7269V42.7273C128.888 42.7307 128.888 42.7338 128.889 42.7372C128.889 42.7379 128.889 42.739 128.889 42.7393C128.889 42.7427 128.889 42.7458 128.89 42.7493C128.89 42.7496 128.89 42.7496 128.89 42.7503C128.891 42.7648 128.892 42.7789 128.893 42.7937C128.893 42.794 128.893 42.7944 128.893 42.795C128.893 42.7981 128.894 42.8016 128.894 42.805C128.894 42.8054 128.894 42.8061 128.894 42.8064C128.895 42.8205 128.896 42.835 128.896 42.8491C128.897 42.8497 128.897 42.8504 128.897 42.8511C128.897 42.8542 128.897 42.8573 128.897 42.8604C128.897 42.8611 128.897 42.8621 128.897 42.8628C128.898 42.8659 128.898 42.8694 128.898 42.8728C128.899 42.8838 128.899 42.8948 128.9 42.9055C128.9 42.9058 128.9 42.9062 128.9 42.9065C128.9 42.91 128.9 42.9131 128.9 42.9165C128.9 42.9172 128.9 42.9179 128.9 42.9186C128.9 42.922 128.901 42.9251 128.901 42.9285C128.901 42.9289 128.901 42.9289 128.901 42.9296C128.901 42.9402 128.902 42.9512 128.902 42.9623C128.902 42.9657 128.902 42.9691 128.902 42.9726C128.902 42.9733 128.902 42.9736 128.903 42.9743C128.903 42.9777 128.903 42.9808 128.903 42.9843C128.903 42.9846 128.903 42.9853 128.903 42.9857C128.903 42.9998 128.904 43.0139 128.904 43.028C128.904 43.029 128.904 43.0297 128.904 43.0304C128.904 43.0335 128.904 43.0366 128.904 43.0397C128.904 43.0407 128.904 43.0414 128.904 43.0424C128.904 43.0455 128.904 43.0486 128.905 43.0521C128.905 43.0521 128.905 43.0524 128.905 43.0527C128.905 43.0634 128.905 43.0741 128.905 43.0847C128.905 43.0851 128.905 43.0854 128.905 43.0861C128.905 43.0892 128.905 43.0927 128.905 43.0958C128.905 43.0964 128.905 43.0975 128.905 43.0982C128.905 43.1013 128.905 43.1044 128.905 43.1078C128.905 43.1081 128.905 43.1088 128.905 43.1095C128.905 43.1202 128.905 43.1305 128.905 43.1412C128.905 43.1415 128.905 43.1419 128.905 43.1419C128.905 43.1453 128.905 43.1484 128.905 43.1518C128.905 43.1525 128.905 43.1532 128.905 43.1539C128.905 43.1556 128.905 43.157 128.905 43.1587V43.1587ZM127.875 40.1712C127.869 40.1639 127.863 40.1564 127.857 40.1492C127.863 40.1564 127.869 40.1639 127.875 40.1712ZM127.856 40.1481C127.854 40.145 127.851 40.1416 127.848 40.1381C127.851 40.1416 127.854 40.145 127.856 40.1481ZM127.847 40.1371C127.842 40.1299 127.836 40.123 127.83 40.1158C127.836 40.123 127.842 40.1299 127.847 40.1371ZM127.828 40.1137C127.826 40.111 127.823 40.1082 127.821 40.1055C127.824 40.1082 127.826 40.111 127.828 40.1137ZM127.819 40.103C127.816 40.0996 127.813 40.0962 127.811 40.0927C127.813 40.0962 127.816 40.0996 127.819 40.103Z" fill="#C18526"/>
<path d="M124.343 49.4765L121.455 46.0324L127.81 40.0927C127.813 40.0962 127.816 40.0996 127.819 40.103C127.819 40.1037 127.82 40.1048 127.821 40.1055C127.823 40.1082 127.826 40.111 127.828 40.1137C127.828 40.1144 127.829 40.1151 127.83 40.1158C127.835 40.123 127.841 40.1299 127.847 40.1371C127.847 40.1375 127.848 40.1378 127.848 40.1381C127.851 40.1416 127.853 40.145 127.856 40.1481C127.856 40.1485 127.857 40.1488 127.857 40.1492C127.863 40.1564 127.869 40.1639 127.874 40.1712C127.875 40.1712 127.875 40.1715 127.875 40.1715C128.57 41.0379 128.909 42.1011 128.905 43.1587V43.1591C128.905 43.1776 128.905 43.1955 128.904 43.2141V43.2145C128.904 43.2327 128.904 43.2509 128.903 43.2692C128.903 43.2692 128.903 43.2695 128.903 43.2698C128.903 43.274 128.903 43.2784 128.903 43.2829V43.2833C128.902 43.297 128.902 43.3108 128.901 43.3242C128.901 43.3246 128.901 43.3249 128.901 43.3249C128.901 43.329 128.901 43.3332 128.901 43.3376C128.901 43.338 128.901 43.3387 128.901 43.339C128.901 43.3435 128.901 43.3476 128.9 43.3521C128.9 43.3614 128.899 43.3703 128.899 43.3796C128.899 43.3796 128.899 43.3799 128.899 43.3803C128.899 43.3844 128.899 43.3882 128.898 43.3923C128.898 43.393 128.898 43.3941 128.898 43.3947C128.898 43.3982 128.898 43.4023 128.898 43.4061C128.898 43.4068 128.898 43.4071 128.898 43.4078C128.897 43.4168 128.897 43.4257 128.896 43.4347V43.435C128.896 43.4395 128.895 43.4433 128.895 43.4474C128.895 43.4481 128.895 43.4491 128.895 43.4498C128.895 43.4536 128.895 43.4574 128.895 43.4608C128.895 43.4615 128.894 43.4625 128.894 43.4632C128.894 43.4673 128.894 43.4715 128.894 43.4756V43.4759C128.893 43.4849 128.892 43.4938 128.892 43.5028C128.892 43.5035 128.891 43.5042 128.891 43.5049C128.891 43.5086 128.891 43.5121 128.891 43.5159C128.89 43.5169 128.89 43.5176 128.89 43.5186C128.89 43.5221 128.89 43.5258 128.889 43.5296C128.889 43.5303 128.889 43.531 128.889 43.5317C128.889 43.5403 128.888 43.5489 128.887 43.5578C128.887 43.5585 128.887 43.5592 128.887 43.5599C128.887 43.5637 128.886 43.5671 128.886 43.5709C128.886 43.5719 128.886 43.573 128.886 43.5737C128.885 43.5771 128.885 43.5809 128.885 43.5843C128.885 43.585 128.884 43.586 128.884 43.5867C128.884 43.5957 128.883 43.6043 128.882 43.6129C128.882 43.6136 128.882 43.6143 128.882 43.615C128.881 43.6187 128.881 43.6222 128.881 43.6256C128.88 43.627 128.881 43.628 128.881 43.6291C128.88 43.6325 128.88 43.6356 128.88 43.6387C128.879 43.6397 128.879 43.6411 128.879 43.6425C128.879 43.6459 128.878 43.6494 128.878 43.6528C128.878 43.6535 128.878 43.6545 128.878 43.6552C128.877 43.6593 128.877 43.6638 128.876 43.6683C128.876 43.6683 128.876 43.6686 128.876 43.669C128.876 43.6731 128.875 43.6769 128.875 43.681C128.875 43.682 128.875 43.6831 128.875 43.6841C128.874 43.6872 128.874 43.6906 128.873 43.6937C128.873 43.6948 128.873 43.6965 128.873 43.6975C128.873 43.7006 128.872 43.7041 128.872 43.7075C128.872 43.7082 128.872 43.7092 128.872 43.7103C128.871 43.7189 128.869 43.7275 128.868 43.7361C128.868 43.7371 128.868 43.7381 128.868 43.7392C128.868 43.7423 128.867 43.7453 128.867 43.7484C128.867 43.7498 128.866 43.7512 128.866 43.7526C128.866 43.7557 128.866 43.7588 128.865 43.7619C128.865 43.7629 128.865 43.7643 128.865 43.7653C128.864 43.7691 128.864 43.7725 128.863 43.7763C128.863 43.777 128.863 43.7777 128.863 43.778C128.863 43.7825 128.862 43.7866 128.861 43.7908C128.861 43.7918 128.861 43.7928 128.861 43.7939C128.861 43.797 128.86 43.8001 128.86 43.8035C128.86 43.8049 128.859 43.8062 128.859 43.8076C128.859 43.8107 128.858 43.8135 128.858 43.8162C128.858 43.8176 128.857 43.819 128.857 43.8207C128.857 43.8235 128.856 43.8266 128.856 43.8296C128.856 43.8307 128.856 43.8321 128.855 43.8334C128.855 43.8376 128.854 43.8413 128.854 43.8455C128.853 43.8469 128.853 43.8479 128.853 43.8489C128.853 43.852 128.852 43.8551 128.852 43.8579C128.851 43.8596 128.851 43.8613 128.851 43.863C128.851 43.8658 128.851 43.8682 128.85 43.8706C128.85 43.8723 128.85 43.874 128.849 43.8758C128.849 43.8785 128.849 43.8809 128.848 43.8837C128.848 43.885 128.848 43.8868 128.847 43.8881C128.847 43.8923 128.846 43.8964 128.845 43.9002C128.845 43.9005 128.845 43.9009 128.845 43.9012C128.845 43.905 128.844 43.9088 128.843 43.9129C128.843 43.9143 128.843 43.916 128.843 43.9177C128.842 43.9205 128.842 43.9229 128.841 43.9256C128.841 43.9274 128.841 43.9287 128.84 43.9305C128.84 43.9332 128.84 43.9356 128.839 43.9384C128.839 43.9397 128.839 43.9415 128.838 43.9432C128.838 43.9459 128.837 43.949 128.837 43.9518C128.837 43.9532 128.836 43.9545 128.836 43.9556C128.836 43.9597 128.835 43.9638 128.834 43.9676C128.834 43.969 128.834 43.9711 128.834 43.9724C128.833 43.9752 128.833 43.9776 128.832 43.98C128.832 43.9817 128.832 43.9834 128.831 43.9852C128.831 43.9879 128.83 43.9903 128.83 43.9927C128.83 43.9945 128.829 43.9962 128.829 43.9979C128.828 44.0006 128.828 44.0031 128.828 44.0055C128.827 44.0072 128.827 44.0089 128.827 44.0103C128.826 44.0144 128.825 44.0182 128.824 44.0223C128.824 44.0237 128.824 44.0254 128.824 44.0268C128.823 44.0296 128.823 44.032 128.822 44.0347C128.822 44.0364 128.822 44.0385 128.821 44.0402C128.821 44.0423 128.82 44.0447 128.82 44.0471C128.82 44.0488 128.819 44.0509 128.819 44.0526C128.818 44.055 128.818 44.0574 128.818 44.0598C128.817 44.0615 128.817 44.0633 128.817 44.065C128.816 44.0677 128.815 44.0705 128.815 44.0733C128.814 44.076 128.814 44.0788 128.813 44.0812C128.813 44.0839 128.812 44.0863 128.812 44.0891C128.811 44.0908 128.811 44.0929 128.811 44.0949C128.81 44.097 128.81 44.0991 128.809 44.1015C128.809 44.1035 128.808 44.1052 128.808 44.1077C128.808 44.1097 128.807 44.1118 128.807 44.1138C128.807 44.1159 128.806 44.1176 128.806 44.1197C128.805 44.1218 128.805 44.1242 128.804 44.1262C128.804 44.1293 128.803 44.1324 128.802 44.1352C128.802 44.1379 128.801 44.1407 128.801 44.1434C128.8 44.1455 128.8 44.1476 128.799 44.1493C128.799 44.1514 128.798 44.1538 128.798 44.1558C128.798 44.1579 128.797 44.16 128.797 44.1617C128.796 44.1637 128.796 44.1661 128.795 44.1682C128.795 44.1703 128.794 44.1723 128.794 44.1744C128.793 44.1761 128.793 44.1782 128.793 44.1799C128.792 44.1823 128.792 44.1844 128.791 44.1868C128.791 44.1878 128.791 44.1892 128.791 44.1906C128.79 44.1954 128.789 44.1999 128.787 44.2047C128.787 44.2061 128.787 44.2081 128.786 44.2098C128.786 44.2119 128.785 44.2143 128.785 44.2167C128.784 44.2184 128.784 44.2202 128.783 44.2219C128.783 44.2243 128.782 44.2264 128.782 44.2288C128.781 44.2305 128.781 44.2322 128.781 44.2339C128.78 44.2363 128.779 44.2387 128.779 44.2412C128.779 44.2425 128.778 44.2439 128.778 44.2453C128.777 44.2501 128.776 44.2549 128.775 44.2597C128.774 44.2611 128.774 44.2625 128.774 44.2639C128.773 44.2663 128.773 44.2687 128.772 44.2714C128.772 44.2728 128.771 44.2742 128.771 44.2759C128.77 44.2783 128.77 44.2807 128.769 44.2835C128.769 44.2848 128.768 44.2862 128.768 44.2876C128.767 44.29 128.767 44.2928 128.766 44.2955C128.766 44.2965 128.765 44.2976 128.765 44.2986C128.763 44.3079 128.761 44.3168 128.759 44.3261C128.758 44.3275 128.758 44.3285 128.758 44.3296C128.757 44.3323 128.756 44.3351 128.756 44.3375C128.755 44.3389 128.755 44.3402 128.755 44.3416C128.754 44.3444 128.753 44.3468 128.752 44.3495C128.752 44.3506 128.752 44.3516 128.752 44.3526C128.749 44.3619 128.747 44.3712 128.745 44.3802C128.744 44.3815 128.744 44.3826 128.744 44.3836C128.743 44.3863 128.742 44.3891 128.741 44.3919C128.741 44.3929 128.741 44.3943 128.741 44.3953C128.74 44.398 128.739 44.4008 128.738 44.4036C128.738 44.4046 128.738 44.4056 128.737 44.4067C128.737 44.4097 128.736 44.4125 128.735 44.4153C128.735 44.4156 128.735 44.4163 128.735 44.4166C128.733 44.4232 128.731 44.4294 128.73 44.4359C128.729 44.4366 128.729 44.4369 128.729 44.4373C128.728 44.44 128.728 44.4428 128.727 44.4459C128.726 44.4469 128.726 44.4479 128.726 44.449C128.725 44.4517 128.724 44.4545 128.723 44.4576C128.723 44.4583 128.723 44.4596 128.723 44.4607C128.722 44.4634 128.721 44.4662 128.72 44.4689C128.72 44.4696 128.72 44.4706 128.719 44.4713C128.717 44.481 128.714 44.4906 128.711 44.5002C128.711 44.5009 128.711 44.5016 128.711 44.5023C128.71 44.5051 128.709 44.5082 128.708 44.5112C128.708 44.5123 128.707 44.513 128.707 44.5143C128.706 44.5171 128.705 44.5198 128.705 44.5226C128.704 44.5236 128.704 44.5243 128.704 44.525C128.701 44.535 128.698 44.5446 128.695 44.5543C128.695 44.5549 128.695 44.5553 128.695 44.556C128.694 44.5587 128.693 44.5618 128.692 44.5646C128.691 44.5656 128.691 44.5666 128.691 44.5677C128.69 44.5704 128.689 44.5732 128.688 44.5763C128.688 44.577 128.688 44.578 128.688 44.5787C128.683 44.5921 128.679 44.6052 128.675 44.6182C128.675 44.6193 128.675 44.62 128.674 44.6207C128.673 44.6238 128.673 44.6265 128.672 44.6296C128.671 44.6303 128.671 44.631 128.671 44.632C128.67 44.6351 128.669 44.6379 128.668 44.641C128.668 44.6413 128.668 44.6416 128.667 44.642C128.664 44.652 128.661 44.6623 128.658 44.6723C128.657 44.6726 128.657 44.673 128.657 44.6736C128.656 44.6767 128.655 44.6795 128.654 44.6826C128.654 44.6836 128.653 44.6843 128.653 44.685C128.652 44.6881 128.651 44.6912 128.65 44.6943C128.65 44.6946 128.65 44.695 128.65 44.6953C128.646 44.7056 128.643 44.7156 128.639 44.7259C128.639 44.7263 128.639 44.7263 128.639 44.7266C128.638 44.7297 128.637 44.7328 128.636 44.7359C128.635 44.7366 128.635 44.737 128.635 44.7376C128.634 44.7407 128.633 44.7438 128.632 44.7469C128.632 44.7476 128.632 44.7483 128.631 44.7487C128.627 44.7621 128.622 44.7755 128.617 44.7886C128.617 44.7892 128.617 44.7899 128.616 44.7906C128.615 44.7937 128.614 44.7968 128.613 44.7999C128.613 44.8003 128.613 44.801 128.612 44.8013C128.607 44.8151 128.602 44.8288 128.597 44.8426H128.597C128.596 44.846 128.595 44.8491 128.593 44.8522C128.593 44.8529 128.593 44.8536 128.593 44.8539C128.591 44.8574 128.59 44.8605 128.589 44.8636V44.8639C128.584 44.8777 128.578 44.8914 128.573 44.9052C128.573 44.9055 128.573 44.9055 128.573 44.9059C128.572 44.9093 128.57 44.9124 128.569 44.9159C128.569 44.9162 128.569 44.9162 128.569 44.9166C128.563 44.9303 128.558 44.9437 128.552 44.9575C128.552 44.9578 128.552 44.9578 128.552 44.9582C128.551 44.9613 128.549 44.9647 128.548 44.9678C128.548 44.9682 128.548 44.9685 128.548 44.9689C128.541 44.9857 128.533 45.0026 128.526 45.0198C128.526 45.0201 128.526 45.0205 128.526 45.0208C128.519 45.0377 128.511 45.0549 128.504 45.0717L128.504 45.0721C128.487 45.1096 128.471 45.1474 128.453 45.1846C128.453 45.1849 128.453 45.1849 128.453 45.1849C128.435 45.2224 128.417 45.2596 128.399 45.2964C128.39 45.3133 128.382 45.3298 128.373 45.3466C128.373 45.3466 128.373 45.3466 128.373 45.347C128.364 45.3635 128.355 45.38 128.347 45.3965C128.347 45.3969 128.347 45.3969 128.347 45.3972C128.345 45.4003 128.343 45.4034 128.341 45.4065C128.341 45.4069 128.341 45.4069 128.341 45.4072C128.334 45.4203 128.327 45.4333 128.32 45.4464L128.32 45.4468C128.318 45.4499 128.316 45.453 128.314 45.4564C128.314 45.4564 128.314 45.4567 128.314 45.4567C128.305 45.4729 128.296 45.4894 128.287 45.5056C128.287 45.5059 128.287 45.5059 128.286 45.5063C128.277 45.5225 128.268 45.5386 128.259 45.5548C128.258 45.5548 128.258 45.5548 128.258 45.5551C128.256 45.5582 128.255 45.5613 128.253 45.5648C128.253 45.5648 128.253 45.5648 128.253 45.5651C128.245 45.5779 128.237 45.5909 128.23 45.6037L128.229 45.604C128.227 45.6071 128.226 45.6102 128.224 45.6133L128.224 45.6136C128.214 45.6295 128.204 45.6456 128.194 45.6615C128.194 45.6615 128.194 45.6622 128.194 45.6625C128.184 45.6783 128.174 45.6941 128.164 45.71C128.162 45.7134 128.16 45.7162 128.158 45.7193C128.158 45.7196 128.158 45.7196 128.157 45.72C128.15 45.7323 128.141 45.7447 128.133 45.7575C128.133 45.7575 128.133 45.7578 128.133 45.7578C128.131 45.7609 128.129 45.764 128.127 45.7668C128.127 45.7671 128.126 45.7674 128.126 45.7678C128.116 45.7833 128.106 45.7987 128.095 45.8142C128.095 45.8142 128.095 45.8149 128.095 45.8153C128.084 45.8304 128.074 45.8459 128.063 45.861C128.063 45.8614 128.063 45.8617 128.063 45.8621C128.06 45.8648 128.059 45.8676 128.056 45.8707C128.056 45.871 128.056 45.8713 128.056 45.8717C128.047 45.8837 128.039 45.8958 128.03 45.9078C128.03 45.9078 128.03 45.9082 128.03 45.9085C128.028 45.9113 128.025 45.9144 128.023 45.9171C128.023 45.9174 128.023 45.9178 128.023 45.9181C128.014 45.9302 128.005 45.9422 127.997 45.9539C127.996 45.9543 127.996 45.9543 127.996 45.9546C127.994 45.9574 127.992 45.9601 127.99 45.9625C127.99 45.9632 127.989 45.9642 127.989 45.9649C127.987 45.9673 127.985 45.9701 127.983 45.9725C127.983 45.9732 127.982 45.9735 127.982 45.9739C127.975 45.9825 127.969 45.9911 127.963 45.9997C127.962 46 127.962 46.0004 127.962 46.0007C127.96 46.0031 127.958 46.0059 127.956 46.0083C127.956 46.009 127.955 46.01 127.955 46.0103C127.953 46.0131 127.951 46.0155 127.949 46.0179C127.948 46.0186 127.948 46.0193 127.947 46.0203C127.939 46.0313 127.93 46.0423 127.922 46.0537C127.921 46.0544 127.92 46.0551 127.92 46.0558C127.918 46.0585 127.916 46.0609 127.914 46.0633C127.913 46.064 127.913 46.0647 127.912 46.0654C127.91 46.0678 127.908 46.0706 127.906 46.073C127.906 46.0733 127.906 46.0737 127.905 46.0743C127.899 46.0826 127.893 46.0905 127.886 46.0988C127.886 46.0995 127.885 46.1002 127.884 46.1008C127.883 46.1032 127.881 46.1053 127.879 46.1077C127.878 46.1088 127.877 46.1098 127.876 46.1108C127.874 46.1129 127.873 46.1153 127.871 46.1177C127.87 46.1184 127.87 46.1191 127.869 46.1198C127.863 46.1277 127.857 46.1352 127.85 46.1432C127.85 46.1438 127.849 46.1445 127.848 46.1452C127.846 46.1476 127.844 46.15 127.843 46.1521C127.842 46.1531 127.841 46.1542 127.841 46.1549C127.839 46.1573 127.837 46.1597 127.835 46.1617C127.834 46.1628 127.833 46.1635 127.833 46.1645C127.826 46.1724 127.819 46.1803 127.813 46.1886C127.813 46.1886 127.812 46.1893 127.812 46.1893C127.81 46.1917 127.808 46.1937 127.806 46.1961C127.805 46.1972 127.804 46.1982 127.804 46.1992C127.802 46.2013 127.8 46.2034 127.798 46.2058C127.797 46.2065 127.797 46.2075 127.796 46.2085C127.794 46.2109 127.792 46.213 127.79 46.2154C127.789 46.2161 127.789 46.2168 127.788 46.2175C127.782 46.225 127.775 46.2323 127.769 46.2398C127.768 46.2409 127.767 46.2419 127.766 46.2426C127.765 46.2447 127.763 46.2471 127.761 46.2491C127.76 46.2502 127.759 46.2512 127.758 46.2522C127.756 46.2543 127.754 46.2567 127.753 46.2588C127.752 46.2595 127.751 46.2605 127.75 46.2615C127.744 46.2684 127.738 46.2756 127.731 46.2829C127.73 46.2839 127.729 46.2849 127.728 46.2859C127.727 46.288 127.725 46.2897 127.723 46.2918C127.722 46.2932 127.721 46.2942 127.72 46.2956C127.718 46.2976 127.716 46.2994 127.715 46.3014C127.713 46.3025 127.712 46.3042 127.711 46.3052C127.71 46.3073 127.708 46.309 127.706 46.3107C127.705 46.3124 127.703 46.3138 127.702 46.3152C127.699 46.3183 127.697 46.321 127.694 46.3241C127.693 46.3259 127.691 46.3272 127.69 46.329C127.688 46.3307 127.686 46.3324 127.685 46.3341C127.683 46.3355 127.683 46.3369 127.681 46.3386C127.68 46.34 127.678 46.342 127.676 46.3438C127.675 46.3451 127.673 46.3465 127.672 46.3482C127.671 46.3496 127.669 46.3513 127.668 46.353C127.666 46.3548 127.665 46.3561 127.663 46.3579C127.661 46.3606 127.658 46.363 127.656 46.3654C127.654 46.3675 127.653 46.3692 127.651 46.3713C127.649 46.373 127.648 46.3744 127.646 46.3761C127.644 46.3778 127.643 46.3792 127.642 46.3806C127.64 46.3823 127.639 46.384 127.637 46.3857C127.636 46.3871 127.634 46.3888 127.633 46.3905C127.631 46.3919 127.63 46.3933 127.628 46.395C127.626 46.3967 127.625 46.3981 127.624 46.3998C127.622 46.4016 127.621 46.4029 127.619 46.4047C127.617 46.4071 127.614 46.4095 127.612 46.4119C127.61 46.4136 127.609 46.4157 127.607 46.4177C127.605 46.4191 127.603 46.4208 127.602 46.4225C127.6 46.4239 127.599 46.4256 127.597 46.4274C127.596 46.4287 127.594 46.4305 127.593 46.4318C127.591 46.4336 127.59 46.4349 127.588 46.4367C127.586 46.4384 127.585 46.4397 127.583 46.4418C127.582 46.4432 127.581 46.4446 127.579 46.4459C127.577 46.4484 127.574 46.4508 127.572 46.4535C127.571 46.4545 127.57 46.4556 127.569 46.4566C127.566 46.459 127.564 46.4614 127.561 46.4642C127.56 46.4652 127.559 46.4666 127.557 46.468C127.555 46.4697 127.554 46.4717 127.552 46.4735C127.551 46.4748 127.549 46.4762 127.548 46.4776C127.546 46.4793 127.544 46.481 127.542 46.4828C127.541 46.4841 127.54 46.4855 127.538 46.4869C127.537 46.4889 127.535 46.491 127.532 46.4927C127.531 46.4941 127.53 46.4951 127.529 46.4962C127.526 46.4989 127.523 46.502 127.52 46.5048C127.519 46.5062 127.518 46.5072 127.517 46.5086C127.515 46.5103 127.513 46.5123 127.511 46.5144C127.509 46.5154 127.508 46.5165 127.507 46.5178C127.505 46.5199 127.503 46.5216 127.501 46.5237C127.5 46.5251 127.498 46.5261 127.497 46.5275C127.495 46.5292 127.493 46.5316 127.491 46.5333C127.49 46.5344 127.489 46.5354 127.488 46.5364C127.485 46.5395 127.482 46.5423 127.479 46.5454C127.478 46.5464 127.477 46.5471 127.476 46.5478C127.474 46.5502 127.471 46.5526 127.469 46.5547C127.468 46.5557 127.466 46.5567 127.465 46.5578C127.464 46.5598 127.461 46.5619 127.459 46.564C127.458 46.565 127.457 46.566 127.455 46.5674C127.453 46.5695 127.451 46.5715 127.449 46.5736C127.448 46.5746 127.447 46.5753 127.446 46.5763C127.443 46.5794 127.439 46.5825 127.436 46.5856L124.343 49.4765" fill="#C3604F"/>
<path d="M121.72 51.928L119.994 49.8691L118.832 48.4839L121.455 46.0324L124.343 49.4765L121.72 51.928" fill="#C8C6C4"/>
<path d="M106.99 66.3358C107.829 67.9185 107.895 72.2527 107.509 74.0199C108.794 74.248 110.243 72.0972 111.527 72.325C111.042 70.7171 110.902 68.9937 111.123 67.3219C111.196 66.7697 111.292 66.1483 110.974 65.703C110.572 65.1395 109.749 65.198 109.127 65.4543C108.504 65.711 107.656 66.3901 106.99 66.3358" fill="#E6644E"/>
<path d="M101.471 91.1303C101.471 91.1303 93.4263 99.0408 91.688 105.349C89.9501 111.657 87.4941 122.323 87.4941 122.323L91.9781 123.251L96.5764 108.216L103.855 100.188C103.855 100.188 104.192 92.2806 101.471 91.1303" fill="#16283D"/>
<path d="M101.47 91.1303C101.47 91.1303 98.3951 94.1557 95.6367 97.9553C96.0741 100.376 96.5981 102.784 97.1133 105.144C97.258 105.807 97.4073 106.469 97.5604 107.13L103.854 100.188C103.854 100.188 104.192 92.2806 101.47 91.1303Z" fill="#151E28"/>
<path d="M109.877 92.862C109.469 94.0098 106.421 95.4611 105.257 95.6985C104.258 95.9022 103.211 95.424 102.504 94.6725C101.798 93.9214 101.099 92.9807 101.086 91.9355C100.885 76.4146 103.612 73.1476 106.091 70.5627C108.258 68.3035 111.181 68.7123 112.831 71.365C114.657 74.2989 113.691 78.2591 112.96 81.4049C111.97 85.6631 111.527 88.2319 109.877 92.862" fill="#1D3D65"/>
<path d="M106.823 87.1333C109.658 82.9783 111.232 77.88 111.262 72.7592C110.312 75.4791 108.779 77.6979 106.887 79.7988C106.597 80.1215 106.293 80.4374 105.932 80.6665C104.903 81.3192 103.596 81.1641 102.429 80.8651C102.172 80.7994 101.912 80.7278 101.654 80.6573C101.444 82.092 101.285 83.7487 101.187 85.6683C103.013 86.3282 104.894 86.7968 106.823 87.1333" fill="#16283D"/>
<path d="M108.308 101.589C109.387 98.0908 110.17 96.1754 110.05 92.3731C104.475 94.1647 101.078 91.1303 101.078 91.1303C100.205 99.5359 100 104.044 101.076 112.427C101.707 117.349 106.415 124.495 109.069 128.726C110.212 128.423 110.736 128.178 111.879 127.875C110.894 123.968 109.09 116.914 107.13 113.374C107.591 108.981 106.99 105.864 108.308 101.589" fill="#16283D"/>
<path d="M96.6845 61.7917C97.5889 61.0035 99.2992 60.5813 100.377 61.0702C100.654 61.1961 100.939 61.4236 100.95 61.7418C100.965 62.1499 100.543 62.4035 100.177 62.5363C99.0411 62.9491 97.8314 63.1353 96.6305 63.0826C96.2498 62.9674 95.7799 62.58 96.6845 61.7917" fill="#F57661"/>
<path d="M104.704 80.8527C105.059 80.8771 105.426 80.8995 105.758 80.7657C106.269 80.5596 106.588 80.0311 106.847 79.5229C107.703 77.8404 108.293 76.0065 108.583 74.121C108.759 72.9767 108.496 71.6706 107.667 70.9092C105.586 72.6553 104.196 75.2933 103.888 78.0816C103.325 78.0651 102.73 78.0541 102.141 78.042C101.96 78.821 101.797 79.6798 101.656 80.6418C102.672 80.712 103.688 80.7822 104.704 80.8527" fill="#16283D"/>
<path d="M92.8747 77.2338C92.5769 76.8127 92.2298 76.3895 91.755 76.2329C91.2801 76.0764 90.659 76.3121 90.5534 76.8254C90.4022 77.559 91.3297 78.2526 91.0507 78.9435C90.9709 79.1417 90.8024 79.2862 90.7085 79.4778C90.5286 79.8446 90.6662 80.3142 90.9347 80.615C91.2032 80.9153 91.5757 81.0832 91.9401 81.2343C92.4511 81.4462 92.9842 81.6444 93.5327 81.6213C93.8684 81.6072 94.2187 81.4968 94.44 81.2295C94.8747 80.7041 94.3787 79.9172 94.1418 79.4131C93.7826 78.6483 93.3583 77.9178 92.8747 77.2338Z" fill="#F57661"/>
<path d="M104.307 79.5322C105.302 75.2864 105.178 74.2559 106.6 71.4648C107.07 70.5431 107.963 69.8959 108.881 69.5029C109.8 69.11 110.935 69.1479 111.697 69.8171C112.292 70.339 112.585 71.1717 112.626 71.9871C112.667 72.8029 112.483 73.6118 112.265 74.3956C110.747 79.8522 109.957 80.6325 106.799 85.2392C102.493 84.8136 96.8065 83.8709 93.7529 82.1712C93.1328 81.8257 93.093 80.7137 93.4645 80.0858C93.8663 79.4062 94.7922 79.3932 95.5382 79.5401C97.9338 80.0121 100.646 79.6051 104.307 79.5322Z" fill="#1D3D65"/>
<path d="M87.2826 121.301L92.5649 122.806L91.995 124.699L86.8267 123.251L87.2826 121.301Z" fill="#1D3D65"/>
<path d="M112.092 126.372L108.276 128.211L109.109 130.018L112.802 128.211L112.092 126.372Z" fill="#1D3D65"/>
<path d="M90.9801 127.727V126.663C87.6876 126.617 84.3948 126.571 81.102 126.526C81.0036 126.628 80.9384 126.75 80.9495 126.895C80.9768 127.257 81.424 127.367 81.7678 127.38C84.8387 127.496 87.9092 127.612 90.9801 127.727Z" fill="#7A7E82"/>
<path d="M104.338 132.87C104.167 132.979 104.017 133.128 104.032 133.327C104.055 133.64 104.441 133.735 104.738 133.746C106.652 133.818 109.704 133.89 112.25 133.963C113.069 133.986 113.701 133.372 113.845 132.619C110.677 132.741 107.507 132.824 104.338 132.87Z" fill="#7A7E82"/>
<path d="M103.568 64.6303C103.437 65.7358 103.572 67.4471 104.273 68.2798C104.845 68.9586 105.796 69.1764 106.644 69.0185C107.491 68.8606 108.253 68.3789 108.947 67.8414C110.139 66.9183 111.196 65.8018 112.07 64.5432C112.886 63.3675 113.563 61.8829 113.154 60.4911C112.854 59.471 112.017 58.7171 111.111 58.2413C110.008 57.6622 108.717 57.4179 107.525 57.7451C104.515 58.5719 103.892 61.9049 103.568 64.6303Z" fill="#F57661"/>
<path d="M111.312 64.1379C111.519 63.1714 111.33 62.1182 110.804 61.2976C110.277 60.4774 109.421 59.9017 108.494 59.7455C107.661 59.6048 106.813 59.7906 105.977 59.9148C105.141 60.039 104.253 60.0941 103.487 59.7173C102.814 59.3856 102.305 58.7415 102.016 58.0183C101.727 57.2951 101.642 56.4965 101.658 55.7117C101.669 55.1601 101.731 54.6017 101.926 54.0894C102.121 53.5774 102.46 53.1119 102.924 52.8573C103.547 52.5156 104.363 52.6147 104.896 53.0971C105.429 53.5798 105.647 54.4156 105.423 55.1182C105.994 54.2274 106.858 53.565 107.802 53.1584C108.378 52.9099 109.116 52.8047 109.558 53.2664C109.839 53.5599 109.92 54.0182 109.853 54.4293C109.787 54.8409 109.595 55.2162 109.392 55.5747C110.274 54.6351 111.602 54.1868 112.837 54.4115C112.976 54.4366 113.123 54.4748 113.221 54.5818C113.389 54.7658 113.346 55.0673 113.263 55.3074C113.025 55.9911 112.542 56.5763 111.934 56.9194C112.86 57.3009 113.842 57.7265 114.413 58.5864C114.859 59.2573 114.992 60.1168 114.929 60.9336C114.811 62.4533 114.013 63.9153 112.786 64.7187C112.505 64.9024 112.181 65.0566 111.855 65.0008C111.529 64.9454 111.239 64.4782 111.312 64.1379" fill="#16283D"/>
<path d="M111.912 63.4622C112.114 63.3613 112.346 63.2839 112.559 63.3558C112.798 63.4364 112.954 63.6941 112.988 63.9562C113.021 64.2184 112.951 64.4837 112.856 64.7283C112.535 65.5496 111.91 66.2336 111.144 66.6025C110.987 66.6778 110.796 66.7384 110.65 66.6413C110.243 66.3706 110.379 65.2179 110.545 64.8057C110.778 64.2298 111.396 63.7202 111.912 63.4622" fill="#F57661"/>
<path d="M107.878 62.6952C107.689 63.1965 107.327 63.5155 107.07 63.4074C106.813 63.2991 106.758 62.8053 106.947 62.304C107.136 61.8027 107.497 61.4837 107.755 61.5918C108.012 61.7002 108.067 62.1939 107.878 62.6952Z" fill="#16283D"/>
<path d="M105.179 62.6952C104.99 63.1965 104.628 63.5155 104.371 63.4074C104.114 63.2991 104.058 62.8053 104.247 62.304C104.437 61.8027 104.798 61.4837 105.056 61.5918C105.313 61.7002 105.368 62.1939 105.179 62.6952" fill="#16283D"/>
<path d="M104.808 64.4345C104.7 64.4734 104.586 64.5005 104.49 64.5652C104.394 64.6299 104.318 64.7455 104.336 64.8642C104.355 64.9846 104.463 65.0665 104.571 65.1116C104.92 65.2582 105.343 65.1405 105.605 64.856C105.866 64.5714 105.966 64.1434 105.896 63.7543C105.875 63.6421 105.795 63.4099 105.651 63.4962C105.554 63.5547 105.522 63.7928 105.465 63.8922C105.318 64.1479 105.073 64.3378 104.808 64.4345" fill="#D25541"/>
<path d="M106.601 66.5261C106.5 66.5261 106.399 66.5144 106.302 66.4906C106.214 66.4696 106.159 66.3774 106.179 66.2849C106.199 66.192 106.286 66.1331 106.374 66.1555C106.65 66.2219 106.955 66.1631 107.191 65.9983C107.426 65.8331 107.596 65.5589 107.645 65.2651C107.661 65.1715 107.745 65.1082 107.834 65.1257C107.923 65.1422 107.982 65.2313 107.966 65.3249C107.902 65.7099 107.679 66.0688 107.371 66.2849C107.146 66.4425 106.872 66.5261 106.601 66.5261" fill="#D25541"/>
<path d="M87.3566 38.8527C86.6005 39.7139 85.0418 40.8235 83.9775 41.1762C81.3619 45.5132 83.399 46.0589 85.5254 44.825C86.3692 44.3354 87.2122 43.8448 88.0556 43.3548C88.1964 43.2729 88.3444 43.1835 88.4219 43.0348C88.536 42.815 88.4601 42.5435 88.3822 42.3068C88.027 41.2288 88.1625 39.6131 87.3566 38.8527" fill="#E6644E"/>
<path d="M77.432 74.5119C76.9037 75.295 76.4318 76.1204 76.0218 76.9785C75.9351 77.1598 75.8494 77.3652 75.9068 77.5593C75.9606 77.7409 76.1326 77.8617 76.3093 77.9006C76.4859 77.9395 76.6691 77.9116 76.8476 77.8834C76.5934 78.8361 76.2708 80.3762 76.307 80.5998C76.3428 80.8234 76.5035 81.0423 76.7176 81.0585C76.9773 81.0784 77.6796 80.03 78.2503 78.9848C78.6606 78.81 79.0833 78.6162 79.4479 78.352C79.8129 78.0878 80.1294 77.7248 80.2666 77.2806C80.4729 76.6117 80.2405 75.8689 79.8641 75.2881C79.6321 74.9303 79.3407 74.6082 78.9832 74.3949C78.6257 74.1816 77.8331 74.4183 77.432 74.5119" fill="#F57661"/>
<path d="M86.9189 46.4232C87.4938 56.3582 84.3779 67.2293 80.1126 76.1765C79.0059 76.2983 77.9986 76.2229 76.9492 75.8317C77.4778 68.031 78.943 60.3266 80.8563 52.7716C81.1809 51.4893 81.5397 50.167 82.3486 49.1506C83.1575 48.1343 85.7597 45.9092 86.9189 46.4232" fill="#3972C1"/>
<path d="M91.5492 45.8514C90.6556 46.5557 89.0704 47.3426 87.9201 47.1564C86.9818 47.0044 86.2231 46.2684 85.8562 45.4254C85.4892 44.5828 85.4579 43.6449 85.5163 42.7383C85.6167 41.1814 85.9676 39.6427 86.5526 38.1925C87.0995 36.8382 88.0002 35.4437 89.4684 35.0718C90.5441 34.7996 91.7066 35.1488 92.665 35.7076C93.8324 36.3878 94.8172 37.4142 95.2409 38.6552C96.3108 41.79 93.7515 44.1156 91.5492 45.8514" fill="#F57661"/>
<path d="M86.5028 38.2833C88.2756 38.8221 89.6496 38.5403 90.5376 36.7312C90.9769 38.8647 94.8032 46.1273 98.5031 42.6502C96.6875 41.6606 96.7928 39.6499 96.185 37.6942C95.9422 36.9122 95.5785 36.1428 94.9798 35.5589C94.3812 34.9751 93.5173 34.5997 92.6781 34.717C93.1676 34.5295 93.6378 34.2983 94.0817 34.0271C94.2313 33.936 94.3929 33.8166 94.403 33.6463C94.418 33.3996 94.1166 33.2502 93.8614 33.211C93.2116 33.1106 92.523 33.2964 92.0296 33.7058C91.8523 32.9998 91.383 32.3622 90.7469 31.9631C90.5895 31.8643 90.4167 31.778 90.23 31.7615C90.0436 31.7453 89.8409 31.812 89.7431 31.9638C89.6577 32.0962 89.6656 32.2652 89.6887 32.4204C89.776 33.0053 90.0452 33.5661 90.4532 34.0127C89.2305 33.809 88.0051 34.4851 87.254 35.4189C86.5028 36.3531 86.1326 37.5115 85.7764 38.6432C85.9491 38.5857 86.3301 38.3407 86.5028 38.2833" fill="#16283D"/>
<path d="M87.5968 37.76C87.5649 37.5253 87.4945 37.2769 87.3045 37.1245C87.091 36.9535 86.771 36.9497 86.5204 37.0588C86.2701 37.1678 86.0788 37.3715 85.9207 37.5869C85.3902 38.3098 85.1614 39.2322 85.2944 40.1134C85.3214 40.294 85.3827 40.4977 85.5551 40.5768C86.0361 40.7977 86.9682 40.0645 87.2311 39.6967C87.5991 39.1827 87.6779 38.359 87.5968 37.76Z" fill="#F57661"/>
<path d="M90.6779 40.9656C90.35 41.4009 90.2855 41.8939 90.5342 42.0666C90.7825 42.2397 91.2498 42.0271 91.5777 41.5918C91.9058 41.1566 91.97 40.6635 91.7217 40.4908C91.4731 40.3177 91.0057 40.5304 90.6779 40.9656Z" fill="#16283D"/>
<path d="M92.2884 43.3824C91.9602 43.8176 91.896 44.3107 92.1443 44.4834C92.393 44.6564 92.8603 44.4438 93.1882 44.0086C93.516 43.5733 93.5805 43.0803 93.3319 42.9075C93.0836 42.7345 92.6162 42.9471 92.2884 43.3824Z" fill="#16283D"/>
<path d="M90.9815 44.6378C91.0115 44.7552 91.0555 44.8711 91.0558 44.9915C91.0561 45.1116 91.0004 45.2417 90.885 45.2878C90.7677 45.3349 90.6311 45.2816 90.5275 45.2093C90.1905 44.9747 90.041 44.5329 90.1351 44.1479C90.2296 43.7629 90.5461 43.4463 90.9303 43.3028C91.0411 43.2616 91.293 43.2103 91.3028 43.3847C91.3097 43.5031 91.1193 43.6579 91.0659 43.7618C90.929 44.0288 90.9078 44.3485 90.9815 44.6378" fill="#D25541"/>
<path d="M88.0727 44.1417C88.1327 44.2319 88.203 44.3158 88.2822 44.3912C88.3533 44.4586 88.467 44.4586 88.5364 44.3915C88.6062 44.3244 88.6058 44.215 88.5338 44.1483C88.3109 43.9366 88.1802 43.6322 88.1848 43.3335C88.1894 43.0352 88.3288 42.7376 88.5583 42.5377C88.6313 42.4737 88.6365 42.3649 88.568 42.2944C88.5006 42.2239 88.3868 42.2184 88.3142 42.282C88.0137 42.5439 87.8312 42.9333 87.8253 43.3242C87.8211 43.6094 87.9104 43.8985 88.0727 44.1417" fill="#D25541"/>
<path d="M52.7686 112.914C53.5039 112.808 54.2518 112.702 54.985 112.823C55.7183 112.943 56.4483 113.323 56.8354 113.992C57.3077 114.808 57.1802 115.855 56.9387 116.776C56.475 118.544 55.658 120.182 54.8283 121.793C52.8853 125.566 50.84 129.28 48.7954 132.992C48.1765 132.994 47.4446 133.072 46.8576 132.865C46.2707 132.657 45.7261 132.201 45.5625 131.571C45.4472 131.126 45.5303 130.655 45.614 130.203C46.3593 126.174 47.105 122.145 47.8506 118.116C48.0908 116.816 48.3535 115.464 49.1242 114.419C49.8949 113.374 51.6662 112.283 52.7686 112.914Z" fill="#16283D"/>
<path d="M55.3457 120.773C55.2691 120.651 55.1971 120.529 55.1374 120.407C54.369 118.831 53.9065 117.089 53.7833 115.321C53.7244 114.476 53.7481 113.626 53.8475 112.786C53.4871 112.811 53.1267 112.862 52.7688 112.914C52.6075 112.821 52.4309 112.77 52.2461 112.746C51.6338 112.915 51.0224 113.088 50.412 113.265C49.8948 113.584 49.4304 114.004 49.1244 114.419C48.5775 115.16 48.2882 116.057 48.0796 116.979C48.5345 117.634 48.9621 118.316 49.4053 118.975C50.644 120.819 52.0705 122.521 53.6487 124.048C54.0447 123.298 54.44 122.547 54.8285 121.793C55.0028 121.454 55.1755 121.114 55.3457 120.773" fill="#151E28"/>
<path d="M52.8915 123.086C52.2263 121.956 51.557 120.82 50.7246 119.821C50.0051 118.957 48.9482 118.147 47.9089 118.492C47.8604 118.508 47.8161 118.533 47.7698 118.553C47.4119 120.487 47.0541 122.421 46.6963 124.355C46.883 124.407 47.0675 124.459 47.2213 124.539C48.373 125.138 49.2223 126.302 49.7043 127.535C50.0357 128.383 50.2198 129.277 50.3385 130.187C51.4201 128.214 52.4929 126.237 53.5452 124.247C53.338 123.852 53.1151 123.466 52.8915 123.086" fill="#151E28"/>
<path d="M30.365 98.9816C34.9803 104.589 40.2767 109.57 46.0834 113.764C45.5372 114.503 44.9128 115.306 44.0322 115.423C43.31 115.519 42.6188 115.127 41.986 114.747C39.095 113.015 36.1629 111.251 33.8351 108.746C31.5073 106.241 30.1639 102.485 30.365 98.9816" fill="#80CC2A"/>
<path d="M30.365 98.9816C30.1639 102.485 31.5073 106.241 33.8351 108.746C34.5775 109.544 35.3857 110.262 36.2301 110.933C36.247 110.269 36.2538 109.605 36.2437 108.94C36.2248 107.704 36.16 106.461 36.0489 105.224C34.059 103.243 32.159 101.161 30.365 98.9816" fill="#6EB82E"/>
<path d="M24.9551 97.402C23.3491 98.0399 21.7675 98.7225 20.213 99.4485C19.633 99.7197 19.027 100.022 18.7182 100.534C18.3055 101.219 18.5335 102.074 18.7735 102.842C20.7746 109.24 23.0183 115.587 25.4993 121.868C25.6557 122.263 27.7515 127.76 28.1527 127.824C30.3189 128.171 30.769 123.047 32.9391 122.879C33.5316 122.833 34.1514 122.758 34.6145 122.441C35.2037 122.038 35.409 121.34 35.5632 120.688C36.2606 117.735 33.6446 102.832 31.8728 100.012C30.1012 97.1914 28.1768 96.1224 24.9551 97.402" fill="#80CC2A"/>
<path d="M34.642 116.12C34.9096 116.218 35.2137 116.299 35.4988 116.302C35.3665 114.984 35.169 113.499 34.9246 111.967C33.4864 111.751 32.0812 111.348 30.7278 110.788C29.9215 110.455 29.1348 110.069 28.37 109.641C25.77 108.187 23.4285 106.269 21.1978 104.244C22.0597 105.926 22.9334 107.627 24.1471 109.047C25.2346 110.319 26.5642 111.331 27.9078 112.293C30.0242 113.807 32.2259 115.237 34.642 116.12" fill="#6EB82E"/>
<path d="M26.368 94.3711C26.0809 95.6762 26.0375 97.0401 26.235 98.3633C26.3341 99.0264 25.8322 99.6106 25.1981 99.5607C24.6965 99.5211 24.1985 99.4475 23.7058 99.325C23.5142 99.2775 23.316 99.2201 23.1707 99.08C22.9706 98.8874 22.9149 98.5829 22.8702 98.3007C22.6669 97.0173 22.4638 95.734 22.2608 94.4506C22.2031 94.0862 22.1506 93.6871 22.327 93.3675C22.5655 92.935 23.1104 92.8366 23.5842 92.8201C24.0995 92.8025 24.6313 92.8314 25.1003 93.0571C25.5696 93.2828 26.4847 93.8409 26.368 94.3711Z" fill="#E6644E"/>
<path d="M29.8724 91.0873C30.1761 92.22 30.3058 94.0642 29.7297 95.1322C29.2601 96.003 28.3378 96.4882 27.4611 96.5487C26.5845 96.6093 25.7437 96.3051 24.9625 95.9232C23.6212 95.2681 22.3854 94.3721 21.3116 93.2766C20.3088 92.2534 19.3974 90.8668 19.5931 89.2865C19.7365 88.1283 20.461 87.1072 21.2979 86.3616C22.3166 85.4536 23.5768 84.849 24.826 84.8752C27.9813 84.9406 29.1242 88.2949 29.8724 91.0873" fill="#F57661"/>
<path d="M25.2386 90.1996C25.5065 90.6786 25.9194 90.918 26.1612 90.735C26.403 90.5516 26.3821 90.0149 26.1143 89.5363C25.8464 89.0573 25.4331 88.8175 25.1913 89.0009C24.9495 89.184 24.9707 89.7207 25.2386 90.1996Z" fill="#16283D"/>
<path d="M27.9531 89.4754C28.221 89.9543 28.6342 90.1941 28.8761 90.0108C29.1179 89.8277 29.0967 89.291 28.8288 88.812C28.5612 88.3331 28.148 88.0933 27.9062 88.2767C27.6644 88.4597 27.6856 88.9964 27.9531 89.4754Z" fill="#16283D"/>
<path d="M28.5962 91.2129C28.7106 91.2253 28.8289 91.2232 28.9355 91.2659C29.042 91.3086 29.1372 91.4101 29.1369 91.5405C29.1366 91.6729 29.0404 91.7882 28.9394 91.8649C28.6115 92.1133 28.167 92.1027 27.8604 91.8722C27.5534 91.6416 27.3865 91.2164 27.3969 90.7863C27.3999 90.6624 27.4445 90.3954 27.6026 90.448C27.7098 90.4838 27.7786 90.7267 27.8516 90.8165C28.0386 91.0471 28.314 91.1823 28.5962 91.2129" fill="#D25541"/>
<path d="M27.1174 93.9039C27.2188 93.877 27.3182 93.8378 27.413 93.7862C27.4981 93.7405 27.5388 93.6283 27.5043 93.5357C27.4697 93.4432 27.3729 93.4043 27.2879 93.4514C27.0213 93.5959 26.7052 93.6156 26.4425 93.5044C26.1802 93.3933 25.967 93.1493 25.8719 92.8521C25.8416 92.7571 25.7471 92.7131 25.6604 92.7554C25.574 92.7963 25.5284 92.9064 25.5587 93.0011C25.6829 93.3909 25.9621 93.7102 26.306 93.8557C26.5566 93.9617 26.8443 93.9768 27.1174 93.9039Z" fill="#D25541"/>
<path d="M21.5886 93.5227C22.1266 92.8259 22.4444 91.9423 22.4799 91.044C22.5157 90.1456 22.269 89.2373 21.788 88.4951C23.6733 88.2137 25.4634 87.7203 27.2483 87.0208C28.0168 86.7198 28.8325 86.3244 29.205 85.5534C29.4807 84.9825 29.4595 84.2989 29.3226 83.6744C28.9091 81.7862 27.5524 80.2919 26.1168 79.0839C26.3694 79.8811 26.6216 80.6779 26.8742 81.4751C26.1673 80.6769 25.3213 80.0163 24.3916 79.5367C24.8957 80.6156 25.304 81.7445 25.6104 82.9033C23.8512 82.7399 21.9959 82.9288 20.4463 83.823C18.897 84.7176 17.6929 86.4159 17.6674 88.2801C17.6515 89.4424 18.0878 90.5829 18.7701 91.4951C19.4524 92.4072 20.6027 93.0048 21.5886 93.5227" fill="#16283D"/>
<path d="M21.3024 92.0924C21.0837 92.0397 20.8387 92.0204 20.6356 92.1536C20.4081 92.3026 20.2905 92.6171 20.2977 92.903C20.3045 93.1889 20.4163 93.45 20.5502 93.683C21.0003 94.4647 21.7345 95.0197 22.5613 95.2038C22.7311 95.2416 22.9328 95.254 23.0648 95.1122C23.4321 94.7169 23.1163 93.5357 22.8849 93.1449C22.562 92.5988 21.8613 92.2262 21.3024 92.0924Z" fill="#F57661"/>
<path d="M21.4245 110.872C23.7416 112.863 26.1939 114.676 28.8666 116.075C31.0106 117.196 33.3078 118.039 35.6607 118.474C35.6226 117.535 35.5226 116.406 35.3749 115.171C34.3278 114.776 33.2915 114.351 32.2715 113.884C27.7458 111.811 23.4982 109.06 19.6987 105.737C20.2562 107.453 20.832 109.164 21.4245 110.872" fill="#6EB82E"/>
<path d="M23.5045 103.583C24.196 106.616 26.6552 109.143 29.5817 110.763C32.5085 112.383 35.8848 113.207 39.2414 113.862C39.4455 114.162 39.566 114.445 39.6367 114.792C39.7075 115.138 39.612 115.534 39.3017 115.748C39.0453 115.924 38.7001 115.944 38.3775 115.95C34.108 116.029 29.8238 114.839 26.3345 112.62C22.8449 110.4 20.1667 107.165 18.7855 103.522C18.5787 102.976 18.3985 102.411 18.418 101.835C18.4373 101.259 18.684 100.664 19.1936 100.317C20.0364 99.742 21.3181 100.042 22.0618 100.719C22.8051 101.396 23.2917 102.65 23.5045 103.583" fill="#80CC2A"/>
<path d="M55.4903 109.742C55.6304 110.386 55.6112 112.218 55.7315 113.04C49.7888 115.312 43.6138 116.199 37.2632 118.076C36.2595 118.373 35.2554 118.669 34.2513 118.966C33.888 119.074 33.4822 119.177 33.1482 118.992C32.8145 118.806 32.7177 118.193 33.067 118.043C39.5171 115.265 45.7106 111.774 52.3301 109.483C52.8291 109.311 53.3381 109.141 53.8631 109.129C54.3881 109.118 55.373 109.201 55.4903 109.742" fill="#9BC9ED"/>
<path d="M40.4642 102.419L55.8514 100.026C56.6205 99.9065 57.2769 100.619 57.1358 101.426C56.4654 105.265 55.9886 109.148 55.7318 113.04C50.2855 113.807 45.0713 114.495 38.7744 115.505C39.1925 111.018 39.392 107.455 39.4927 103.577C39.5077 102.993 39.9163 102.504 40.4642 102.419" fill="#9BC9ED"/>
<path d="M50.4241 108.081C50.24 109.196 49.3722 109.968 48.4854 109.805C47.599 109.642 47.0297 108.606 47.2138 107.49C47.3979 106.375 48.2658 105.603 49.1525 105.766C50.0389 105.929 50.6083 106.966 50.4241 108.081Z" fill="#B1DBF5"/>
<path d="M29.8621 129.625C31.735 130.336 33.9989 130.146 35.8914 129.494C40.2629 127.988 43.7441 124.534 47.0688 121.181C49.3696 124.69 52.1683 128.06 54.4688 131.569C54.9616 132.321 55.5022 133.113 56.3104 133.44C57.1186 133.768 59.2105 131.123 59.1098 130.421C59.0094 129.72 58.6959 129.076 58.3795 128.45C56.4639 124.664 54.2681 121.042 51.9529 117.513C51.0779 116.179 50.082 114.776 48.6145 114.294C47.0851 113.792 45.4517 114.42 43.9526 115.015C39.1268 116.932 35.2243 117.547 29.8621 119.315C23.7242 121.338 26.831 128.472 29.8621 129.625" fill="#16283D"/>
<path d="M65.5021 132.147C65.7133 132.191 65.9655 132.274 66.0144 132.495C66.0734 132.761 65.7921 132.961 65.5533 133.067C63.1485 134.127 60.5313 134.505 57.9486 134.873C57.6256 134.919 57.2825 134.962 56.9869 134.818C56.6421 134.65 56.444 134.267 56.295 133.898C56.1419 133.519 56.0135 133.107 56.0773 132.7C56.1669 132.131 56.6144 131.696 57.0922 131.416C57.4627 131.199 58.0718 130.786 58.499 130.77C58.966 130.751 59.5422 130.978 60.0056 131.065C61.1883 131.288 62.37 131.516 63.5503 131.752C64.2011 131.882 64.8516 132.014 65.5021 132.147" fill="white"/>
<path d="M44.7163 133.315C44.6127 133.688 44.5325 134.099 44.6775 134.456C44.8056 134.771 45.094 134.99 45.402 135.1C45.7099 135.21 46.0397 135.226 46.3647 135.238C48.1046 135.306 49.8461 135.3 51.5874 135.295C52.0752 135.293 52.5657 135.291 53.047 135.207C53.3169 135.16 53.6486 134.994 53.6151 134.708C53.5916 134.505 53.3909 134.387 53.2139 134.303C51.9045 133.679 50.5791 133.092 49.2397 132.544C48.5595 132.266 47.8761 131.998 47.1892 131.74C46.802 131.594 46.0639 131.149 45.6392 131.332C45.1119 131.559 44.8594 132.8 44.7163 133.315" fill="white"/>
</g>
<defs>
<clipPath id="clip0_1000_10949">
<rect width="129" height="140" fill="white"/>
</clipPath>
</defs>
</svg>
