<svg width="294" height="121" viewBox="0 0 294 121" fill="none" xmlns="http://www.w3.org/2000/svg">
<path d="M36.2806 58.8008C34.0384 60.1953 31.8782 62.1836 32.2727 65.0586C32.6556 67.8594 35.3118 69.3164 37.8352 69.8867C44.1634 71.3164 50.3704 67 54.3821 62.5937C58.6907 57.8633 61.2727 51.9727 61.7493 45.6289C62.0462 41.6953 61.3079 37.0898 58.0306 34.4961C51.4876 29.3125 41.1751 34.0664 34.8392 37.2539C26.2806 41.5547 18.7532 47.375 12.9485 55.0195C3.3704 67.6328 -5.02413 87.5078 5.71025 101.91C16.9798 117.023 34.0579 100.742 41.3665 90.168C43.0032 87.7969 39.136 85.5781 37.5149 87.9219C31.929 96.0039 18.0735 111.082 9.09306 99.0312C0.604779 87.6484 7.20244 71.6328 13.9915 61.1992C19.5813 52.6172 27.1087 46.3984 36.0774 41.6172C40.3235 39.3555 53.5501 32.543 56.6087 39.7734C59.0227 45.4805 56.1595 52.5469 52.9524 57.2695C50.8743 60.3281 48.0306 62.8789 44.7376 64.5625C43.0306 65.4375 41.1517 65.707 39.2571 65.6289C38.4602 65.5937 37.5149 65.2656 36.8977 64.7578C35.9837 64.0117 38.1595 62.8711 38.5306 62.6406C40.9642 61.1289 38.7298 57.2812 36.2806 58.8008Z" fill="#FD6062"/>
<path d="M43.6953 78.0273C40.8906 82.371 30.9922 95.1562 40.7227 98.0429C44.1367 99.0585 47.5 95.7421 49.5078 93.4765C52.0508 90.6015 54.1719 87.2382 55.6133 83.6835C56.9453 80.4023 56.1524 76.621 52.7461 75.1874C49.668 73.8945 46.1797 76.5312 45.2461 79.3124C43.9375 83.1952 47.668 86.414 51.2969 85.9101C55.2383 85.3593 58.668 82.6406 61.8008 80.3867C60.6836 79.746 59.5664 79.1054 58.4492 78.4648C58.6289 84.4101 55.8633 90.0663 54.0781 95.6171C53.3047 98.0234 56.9649 99.5507 58.1563 97.332C61.4649 91.1757 65.6485 85.7265 71.7266 82.0937L68.3711 80.1718C68.7227 85.0351 61.7774 96.5468 70.3867 97.6327C73.7188 98.0546 76.8516 94.332 78.6485 92.0781C80.793 89.3749 82.7461 86.3632 84.0274 83.1562C85.0938 80.4882 80.7813 79.3437 79.7305 81.9687C78.3086 85.5273 74.6328 92.1093 70.5977 93.1992C70.2266 93.3007 70.3945 92.8827 70.5899 93.4609C70.418 92.9687 70.5664 92.2734 70.6094 91.7656C70.7266 90.2929 71.1445 88.8124 71.4883 87.3749C72.0235 85.1054 73.0039 82.539 72.832 80.1718C72.7149 78.5429 71.0117 77.332 69.4805 78.2499C62.7578 82.2734 57.9649 88.2734 54.3047 95.0898C55.6602 95.6601 57.0195 96.2304 58.3789 96.8046C60.2969 90.8398 63.0977 84.8554 62.9063 78.4648C62.8594 76.9218 60.9922 75.5117 59.5508 76.5507C57.8789 77.746 56.2149 78.9452 54.4336 79.9882C53.7578 80.3788 49.0664 82.9726 49.543 80.4999C49.7422 79.457 51.4258 78.9218 51.7344 80.0117C52.211 81.7187 50.5899 84.0624 49.8125 85.4179C49.1055 86.6406 43.6016 95.3046 41.6016 93.6132C38.6992 91.1601 46.1289 82.4726 47.543 80.2734C49.1055 77.8476 45.2461 75.6249 43.6953 78.0273Z" fill="#FD6062"/>
<path d="M101.581 70.5429C101.363 66.039 98.6985 61.9453 94.1242 60.8984C90.2649 60.0078 86.9875 62.2265 84.7844 65.1367C80.4914 70.7968 79.3313 80.0898 79.6633 86.996C79.718 88.0585 80.3235 88.7812 81.3 89.1445C91.1985 92.7968 96.1985 80.5273 101.609 74.9179C100.339 74.3984 99.0695 73.8711 97.8039 73.3476C98.1008 84.5664 96.3195 97.0585 90.9211 107.031C89.1125 110.383 86.3039 113.59 83.0461 115.586C81.382 116.602 80.175 116.656 79.218 114.875C77.7961 112.238 79.136 109.066 80.425 106.699C83.0227 101.957 87.007 97.7578 90.218 93.414C94.6125 87.4531 99.1242 81.5703 103.655 75.7148C106.218 72.3984 108.882 69.2109 111.136 65.6718C113.046 62.6757 115.542 58.3242 114.163 54.6679C113.745 53.5781 112.652 52.7187 111.421 53.1171C108.675 54.0039 107.003 55.8007 106.913 58.7421C106.835 61.3789 108.566 64.1992 110.988 65.1367C112.015 65.5351 113.655 64.6679 113.335 65.8554C112.933 67.3359 111.913 68.7109 111.171 70.0468C109.96 72.2031 108.882 74.4453 107.972 76.75C107.109 78.9218 106.23 81.7968 107.288 84.0507C108.312 86.2382 110.757 87.0625 112.995 86.5234C117.452 85.4453 120.429 79.4414 122.491 75.832C123.913 73.3359 120.066 71.0937 118.64 73.5898C117.003 76.4531 115.273 79.8281 112.558 81.8164C110.726 83.1484 111.316 81.0195 111.628 79.8242C112.163 77.8085 113.109 75.8906 114.077 74.0585C115.769 70.8828 118.546 67.4257 117.796 63.6406C117.39 61.5898 115.284 60.957 113.491 60.8906C112.261 60.8359 112.159 61.0585 111.652 59.8593C111.148 58.6601 111.292 57.832 112.605 57.4062C111.691 56.8867 110.773 56.371 109.863 55.8515C111.284 59.6054 106.015 65.4609 103.96 68.1953C100.159 73.2578 96.1516 78.1757 92.3235 83.2187C88.0227 88.8828 83.8 94.5976 79.4485 100.219C75.9406 104.762 72.5774 110.695 75.0852 116.484C79.7063 127.105 90.9016 115.5 94.2961 110.109C97.4836 105.039 99.132 98.8906 100.366 93.0976C101.745 86.6406 102.437 79.9492 102.265 73.3476C102.21 71.457 99.843 70.3359 98.4602 71.7773C94.468 75.9101 89.7141 87.5195 82.4875 84.8515C83.0344 85.5664 83.5813 86.2851 84.1242 86.996C83.8781 81.8867 84.761 76.5976 86.4133 71.7578C87.1789 69.5117 88.3703 67 90.4563 65.6953C93.8703 63.5664 96.968 67.4257 97.1203 70.5429C97.257 73.4023 101.718 73.414 101.581 70.5429Z" fill="#FD6062"/>
<path d="M138.457 66.7735C139.555 60.9219 133.902 52.3243 127.555 57.2579C125.219 59.0704 124.148 61.9805 123.141 64.6563C122.16 67.2461 121.031 69.7774 120.18 72.418C119.383 74.8829 118.906 77.5235 119.996 79.9532C121.086 82.3829 124.531 82.4063 126.555 81.3868C132.422 78.418 134.695 71.4102 139.254 67.0743C141.344 65.0899 138.18 61.9454 136.098 63.9258C133.273 66.6172 131.316 70.1954 128.922 73.2461C127.726 74.7579 126.418 76.3086 124.758 77.3165C123.207 78.2618 123.75 76.629 123.984 75.4415C124.644 72.1133 126.258 69.004 127.441 65.836C128.117 64.0157 128.832 62.129 130.258 60.754C132.703 58.3868 134.457 63.9805 134.16 65.5938C133.637 68.3907 137.937 69.5899 138.457 66.7735Z" fill="#FD6062"/>
<path d="M137.163 59.6992C136.691 65.2852 136.175 71.0586 137.175 76.6094C137.554 78.7617 138.78 81.543 141.359 81.5664C144.519 81.5899 146.64 78.1328 148.14 75.832C149.714 73.4258 145.855 71.1953 144.292 73.5899C143.546 74.7344 142.788 75.8281 141.8 76.7734C140.945 77.6094 141.609 76.668 142.085 77.3555C141.14 75.9883 141.218 73.6406 141.144 72.0547C140.948 67.9336 141.269 63.8008 141.62 59.6992C141.859 56.8359 137.402 56.8594 137.163 59.6992Z" fill="#FD6062"/>
<path d="M158.117 30.7812C155.019 44.4453 146.433 56.2226 144.715 70.2929C144.308 73.5976 143.679 82.9101 149.226 82.7226C153.562 82.5664 156.914 78.1133 158.929 74.7343C160.406 72.2695 156.547 70.0351 155.078 72.4961C154.144 74.0586 153.054 75.4453 151.75 76.7265C150.988 77.4687 149.703 78.914 149.316 77.6875C147.757 72.7734 149.703 66.3359 151.183 61.6367C154.371 51.539 160.066 42.3437 162.414 31.9648C163.047 29.1718 158.746 27.9883 158.117 30.7812Z" fill="#FD6062"/>
<path d="M158.801 55.6953C158.106 60.3164 155.774 64.5273 155.235 69.2344C154.77 73.2344 157.504 77.0586 161.829 76.0938C165.727 75.2227 168.219 70.1055 169.825 66.9258C171.626 63.3633 173.028 59.6016 174.399 55.8516C172.934 55.6563 171.473 55.4609 170.016 55.2617C169.77 60.8242 165.786 65.5469 166.954 71.332C167.43 73.6992 169.801 76.3359 172.333 76.3359C175.579 76.3359 177.512 72.9492 178.618 70.3789C179.739 67.7695 175.895 65.5039 174.766 68.1289C174.422 68.9297 174.051 69.6914 173.618 70.4492C172.766 71.9375 172.372 72.125 171.454 70.7109C170.516 69.2617 171.418 66.7266 171.821 65.25C172.731 61.9297 174.321 58.75 174.473 55.2617C174.586 52.6172 170.907 52.4297 170.094 54.668C168.106 60.1445 166.11 66.543 162.004 70.8359C159.227 73.7461 159.665 69.0391 160.043 67.2695C160.809 63.7539 162.563 60.4297 163.098 56.8789C163.52 54.0703 159.223 52.8672 158.801 55.6953Z" fill="#FD6062"/>
<path d="M177.032 52.0079C189.692 51.3789 199.817 41.543 200.829 28.9688C200.907 27.961 200.079 27.1094 199.188 26.8243C194.434 25.2891 190.786 30.5313 188.645 33.9141C185.219 39.3164 182.829 45.4297 180.606 51.3985C178.868 56.0704 176.926 61.0235 176.278 65.9727C175.907 68.7657 176.11 71.9805 179.125 73.1719C182.688 74.5821 186.79 72.5703 188.543 69.336C189.911 66.8086 186.059 64.5664 184.688 67.086C183.981 68.3985 182.579 69.4336 180.997 69.1563C180.098 69.0039 180.676 66.4219 180.766 65.8946C181.122 63.7383 181.813 61.6329 182.5 59.5625C183.594 56.3008 184.696 53.0586 185.946 49.8555C187.633 45.5 189.543 41.2071 191.883 37.1641C192.801 35.5821 195.547 30.3204 198.004 31.1133C197.458 30.3985 196.911 29.6836 196.368 28.9688C195.559 39.0508 187.129 47.0625 177.032 47.5625C174.172 47.7032 174.161 52.1485 177.032 52.0079Z" fill="#FD6062"/>
<path d="M205.956 57.6172C206.147 54.8242 205.917 51.5273 203.44 49.7383C201.284 48.1836 198.663 48.7734 196.425 49.7812C190.855 52.2969 188.585 58.1914 187.312 63.7031C186.73 66.2265 186.218 69.4765 187.8 71.7539C189.339 73.9765 192.245 73.9961 194.394 72.7305C199.78 69.5469 200.991 62.2969 205.304 58.164C207.378 56.1758 204.222 53.0351 202.151 55.0195C199.46 57.6015 197.812 61.3711 195.815 64.4726C194.804 66.0312 193.687 67.7969 192.14 68.8906C190.651 69.9375 191.222 67.1094 191.366 66.1601C191.937 62.2773 193.167 58.2265 196.038 55.4453C197.105 54.4101 198.628 53.3242 200.167 53.207C202.034 53.0625 201.569 56.5742 201.499 57.6172C201.3 60.4765 205.761 60.4648 205.956 57.6172Z" fill="#FD6062"/>
<path d="M203.211 53.1797C202.468 59.2305 196.878 64.543 200.445 70.7461C203.937 76.8125 210.668 69.7188 213.175 66.6953C214.992 64.5039 211.855 61.3399 210.019 63.5547C208.871 64.9336 207.687 66.2617 206.351 67.4649C206.136 67.6641 204.738 68.8594 204.347 68.5391C203.441 67.7969 203.621 66.168 203.789 65.1914C204.507 61.0039 207.14 57.4492 207.671 53.1797C208.015 50.3399 203.554 50.3711 203.211 53.1797Z" fill="#FD6062"/>
<path d="M224.081 20.1133C223.237 28.2422 219.081 35.5078 217.827 43.5195C216.624 51.2109 214.655 58.7617 213.651 66.4883C213.003 71.4805 215.241 75.5586 220.878 74.2969C225.597 73.2422 227.542 66.6914 228.464 62.6758C229.105 59.8867 224.808 58.6992 224.163 61.4961C223.476 64.5039 222.296 70.0742 218.444 70.1055C217.046 70.1172 219.401 58.7305 219.526 58.0781C220.765 51.6211 221.722 44.9531 223.659 38.668C225.558 32.5039 227.87 26.5742 228.542 20.1133C228.839 17.2617 224.378 17.2891 224.081 20.1133Z" fill="#FD6062"/>
<path d="M226.44 44.9257C224.562 49.0273 224.253 54.5351 224.46 58.9648C224.562 61.0507 224.937 63.3476 226.792 64.5898C228.956 66.0429 231.394 63.8437 232.679 62.2968C234.503 60.1015 231.366 56.9375 229.526 59.1484C229.101 59.664 228.659 60.2343 228.093 60.6015C228.659 60.2343 229.401 61.3789 229.171 60.625C228.737 59.2187 228.866 57.6015 228.921 56.1562C228.987 54.3671 229.194 52.5859 229.48 50.8242C229.651 49.7773 230.112 47.5703 230.288 47.1718C231.48 44.582 227.636 42.3203 226.44 44.9257Z" fill="#FD6062"/>
<path d="M231.105 40.4258C233.98 40.4258 233.98 35.9766 231.105 35.9766C228.23 35.9766 228.23 40.4258 231.105 40.4258Z" fill="#FD6062"/>
<path d="M237.745 43.4493C234.433 46.1993 232.097 50.3985 230.843 54.4532C229.874 57.6016 230.277 62.5586 234.031 63.75C240.285 65.7305 245.867 55.4141 247.812 50.9961C249.167 47.9219 249.257 44.6524 247.87 41.5547C245.843 37 240.874 40.6055 239.601 43.6172C236.288 51.4453 249.3 52.3243 252.538 46.8282C253.995 44.3516 250.144 42.1133 248.687 44.5821C247.917 45.8907 246.07 46.293 244.636 46.0821C244.386 46.043 243.589 45.8789 243.574 45.6446C243.652 45.3321 243.788 45.043 243.984 44.7813C244.941 43.0743 244.078 43.9453 244.167 44.2266C245.339 47.7188 242.859 51.25 241.035 54.0196C240.499 54.836 236.234 60.8008 235.175 59.1758C233.992 57.3438 235.503 54.3438 236.324 52.6719C237.437 50.4063 238.941 48.2188 240.898 46.5977C243.109 44.7578 239.933 41.6328 237.745 43.4493Z" fill="#FD6062"/>
<path d="M252.571 40.6797C250.774 46.164 249.426 51.7851 248.122 57.4023C247.575 59.75 251.106 61.4961 252.196 59.1133C253.657 55.9258 255.247 52.7851 257.172 49.8437C257.973 48.625 258.907 47.2695 260.204 46.5273C259.883 46.7109 259.586 46.0703 260.079 46.9531C260.614 47.9101 260.383 48.6914 260.133 49.6875C259.301 53.0195 256.887 58.6914 261.442 60.4648C265.739 62.1289 269.653 57.3047 272.036 54.4453C273.864 52.2578 270.723 49.0937 268.887 51.3008C267.465 52.9961 266.02 54.7461 264.149 55.9609C263.036 56.6797 263.079 56.4414 263.254 55.3359C263.469 54.0312 263.903 52.7539 264.266 51.4843C265.231 48.1015 264.985 43.664 261.126 42.2343C257.981 41.0703 255.114 45.0468 253.641 47.1328C251.512 50.1406 249.872 53.5273 248.348 56.8711C249.704 57.4414 251.059 58.0117 252.422 58.5859C253.723 52.9648 255.075 47.3437 256.868 41.8633C257.766 39.125 253.461 37.9648 252.571 40.6797Z" fill="#FD6062"/>
<path d="M277.473 29.3281C277.829 33.8477 279.692 37.8281 281.223 42.0352C282.591 45.7695 283.423 50.6524 280.313 53.7774C278.805 55.2969 276.18 55.1367 274.595 53.8438C272.27 51.9609 273.095 49.0313 274.438 46.8281C275.938 44.3711 272.087 42.1406 270.587 44.582C268.516 47.9805 267.763 52.1758 270.208 55.6016C272.36 58.6172 276.13 59.8008 279.677 59.0352C284.048 58.0899 286.559 53.3633 286.856 49.25C287.384 42.0781 282.477 36.2813 281.93 29.3281C281.708 26.4883 277.247 26.4649 277.473 29.3281Z" fill="#FD6062"/>
<path d="M280.013 58.9916C284.977 59.1873 289.707 55.9293 293.317 52.6522C295.35 50.8064 292.39 47.7287 290.372 49.563C287.594 52.0842 283.838 54.7743 280.013 54.6208C277.323 54.5172 277.334 58.8842 280.013 58.9916Z" fill="#FD6062"/>
<path d="M68.9731 57.1836C82.5005 47.7305 100.286 48.5938 116.024 47.2852C136.028 45.6289 156.196 44.3672 175.801 39.8398C178.602 39.1914 177.411 34.9023 174.61 35.5508C154.614 40.1719 133.911 41.5117 113.485 43.0391C97.7388 44.2188 80.2114 43.9219 66.7192 53.3438C64.3833 54.9727 66.6059 58.832 68.9731 57.1836Z" fill="#FD6062"/>
<path d="M211.034 34.3476C225.667 30.2031 240.534 31.2226 255.448 29.4336C264.358 28.3632 276.644 26.6679 282.53 19.0429C288.065 11.8711 282.737 3.2109 274.812 1.35934C266.425 -0.597692 257.624 4.41793 257.761 13.539C257.8 16.4023 262.261 16.4101 262.218 13.539C262.112 6.37106 269.968 3.77731 275.855 6.332C278.683 7.56246 280.386 9.89059 280.331 12.9882C280.273 16.5625 276.519 18.8632 273.73 20.2851C266.671 23.8828 258.034 24.9023 250.233 25.5039C236.573 26.5547 223.167 26.2851 209.847 30.0586C207.089 30.8437 208.257 35.1328 211.034 34.3476Z" fill="#FD6062"/>
</svg>
