<svg width="24" height="24" viewBox="0 0 24 24" fill="none" xmlns="http://www.w3.org/2000/svg">
<path d="M12 20.5H7C4 20.5 2 19 2 15.5V8.5C2 5 4 3.5 7 3.5H17C20 3.5 22 5 22 8.5V11.5" stroke="white" stroke-width="2.5" stroke-miterlimit="10" stroke-linecap="round" stroke-linejoin="round"/>
<path d="M17 9L13.87 11.5C12.84 12.32 11.15 12.32 10.12 11.5L7 9" stroke="white" stroke-width="1.5" stroke-miterlimit="10" stroke-linecap="round" stroke-linejoin="round"/>
<path d="M19.211 14.77L15.671 18.31C15.531 18.45 15.401 18.71 15.371 18.9L15.181 20.25C15.111 20.74 15.451 21.0801 15.941 21.0101L17.291 20.82C17.481 20.79 17.751 20.66 17.881 20.52L21.421 16.9801C22.031 16.3701 22.321 15.6601 21.421 14.7601C20.531 13.8701 19.821 14.16 19.211 14.77Z" stroke="white" stroke-width="1.5" stroke-miterlimit="10" stroke-linecap="round" stroke-linejoin="round"/>
<path d="M18.6992 15.28C18.9992 16.36 19.8392 17.2 20.9192 17.5" stroke="white" stroke-width="1.5" stroke-miterlimit="10" stroke-linecap="round" stroke-linejoin="round"/>
</svg>
