<svg width="92" height="101" viewBox="0 0 92 101" fill="none" xmlns="http://www.w3.org/2000/svg">
<path d="M46.0003 73.0146C49.4512 73.0146 52.2486 69.9434 52.2486 66.155C52.2486 62.3666 49.4512 59.2954 46.0003 59.2954C42.5494 59.2954 39.752 62.3666 39.752 66.155C39.752 69.9434 42.5494 73.0146 46.0003 73.0146Z" fill="black" fill-opacity="1"/>
<path d="M70.0727 40.1054V34.845C70.0727 23.4825 67.581 8.41667 45.9994 8.41667C24.4177 8.41667 21.926 23.4825 21.926 34.845V40.1054C11.1927 41.5783 7.66602 47.5542 7.66602 62.2413V70.0688C7.66602 87.3229 12.4577 92.5833 28.1743 92.5833H63.8243C79.541 92.5833 84.3327 87.3229 84.3327 70.0688V62.2413C84.3327 47.5542 80.806 41.5783 70.0727 40.1054ZM45.9994 78.8642C39.5977 78.8642 34.4227 73.1408 34.4227 66.155C34.4227 59.1271 39.636 53.4458 45.9994 53.4458C52.3627 53.4458 57.576 59.1692 57.576 66.155C57.576 73.1829 52.401 78.8642 45.9994 78.8642ZM28.1743 39.7267C27.8677 39.7267 27.5993 39.7267 27.2927 39.7267V34.845C27.2927 22.5146 30.4743 14.3083 45.9994 14.3083C61.5244 14.3083 64.706 22.5146 64.706 34.845V39.7688C64.3993 39.7688 64.131 39.7688 63.8243 39.7688H28.1743V39.7267Z" fill="black" fill-opacity="1"/>
</svg>
