<svg width="24" height="24" viewBox="0 0 24 24" fill="none" xmlns="http://www.w3.org/2000/svg">
<path d="M12 19H7.81395C4.75814 19 3 17.1838 3 14.027V7.97297C3 4.81622 4.75814 3 7.81395 3H16.186C19.2419 3 21 4.81622 21 7.97297V10.5676C21 10.9222 20.7153 11.2162 20.3721 11.2162C20.0288 11.2162 19.7442 10.9222 19.7442 10.5676V7.97297C19.7442 5.49946 18.5805 4.2973 16.186 4.2973H7.81395C5.41953 4.2973 4.25581 5.49946 4.25581 7.97297V14.027C4.25581 16.5005 5.41953 17.7027 7.81395 17.7027H12C12.3433 17.7027 12.6279 17.9968 12.6279 18.3514C12.6279 18.7059 12.3433 19 12 19Z" fill="white"/>
<path d="M12.003 11C11.2725 11 10.5332 10.8314 9.96795 10.4877L7.24586 8.86632C6.96757 8.6977 6.91539 8.3929 7.14151 8.18537C7.36762 7.97784 7.77636 7.94541 8.05466 8.10755L10.7767 9.72888C11.4377 10.1245 12.5596 10.1245 13.2205 9.72888L15.9426 8.10755C16.2209 7.93893 16.6297 7.97135 16.8558 8.18537C17.0819 8.3929 17.0384 8.70419 16.7514 8.86632L14.0293 10.4877C13.4727 10.8314 12.7335 11 12.003 11Z" fill="white"/>
<path d="M17 20C15.3443 20 14 18.6557 14 17C14 15.3443 15.3443 14 17 14C18.6557 14 20 15.3443 20 17C20 18.6557 18.6557 20 17 20ZM17 15.1392C15.9747 15.1392 15.1392 15.9747 15.1392 17C15.1392 18.0253 15.9747 18.8608 17 18.8608C18.0253 18.8608 18.8608 18.0253 18.8608 17C18.8608 15.9747 18.0253 15.1392 17 15.1392Z" fill="white"/>
<path d="M20.4008 21C20.2485 21 20.0962 20.9439 19.976 20.8238L19.1743 20.023C18.9419 19.7908 18.9419 19.4064 19.1743 19.1742C19.4068 18.9419 19.7916 18.9419 20.024 19.1742L20.8257 19.975C21.0581 20.2072 21.0581 20.5916 20.8257 20.8238C20.7054 20.9439 20.5531 21 20.4008 21Z" fill="white"/>
</svg>
