<svg width="36" height="36" viewBox="0 0 36 36" fill="none" xmlns="http://www.w3.org/2000/svg">
<path d="M18.0039 31.5614C14.3139 31.5614 13.8789 31.5419 12.4389 31.4789C11.316 31.442 10.2076 31.2137 9.16141 30.8039C7.35137 30.0995 5.92012 28.6677 5.21641 26.8574C4.82237 25.8075 4.60983 24.6982 4.58791 23.5769C4.50391 22.1399 4.50391 21.6689 4.50391 18.0074C4.50391 14.3069 4.52341 13.8749 4.58791 12.4424C4.61031 11.3227 4.82284 10.215 5.21641 9.16645C5.91935 7.35374 7.35293 5.9207 9.16591 5.21845C10.2139 4.82275 11.3219 4.60966 12.4419 4.58845C13.8744 4.50745 14.3454 4.50745 18.0039 4.50745C21.7239 4.50745 22.1514 4.52695 23.5689 4.58845C24.6918 4.60985 25.8028 4.82291 26.8539 5.21845C28.6664 5.9215 30.0997 7.35426 30.8034 9.16645C31.2041 10.2302 31.4177 11.3553 31.4349 12.4919C31.5189 13.9289 31.5189 14.3984 31.5189 18.0584C31.5189 21.7184 31.4979 22.1984 31.4349 23.6189C31.4126 24.7412 31.1995 25.8516 30.8049 26.9024C30.0994 28.714 28.666 30.1463 26.8539 30.8504C25.8043 31.2437 24.6956 31.4562 23.5749 31.4789C22.1424 31.5614 21.6729 31.5614 18.0039 31.5614ZM17.9529 6.88195C14.2839 6.88195 13.9029 6.89995 12.4704 6.96445C11.6154 6.97577 10.7686 7.13356 9.96691 7.43095C8.78304 7.88396 7.84625 8.81693 7.38841 9.99895C7.08873 10.8094 6.93092 11.6654 6.92191 12.5294C6.84241 13.9829 6.84241 14.3639 6.84241 18.0074C6.84241 21.6074 6.85591 22.0439 6.92191 23.4884C6.93533 24.3437 7.09305 25.1906 7.38841 25.9934C7.84692 27.1747 8.78355 28.1069 9.96691 28.5599C10.7681 28.8593 11.6152 29.0172 12.4704 29.0264C13.9224 29.1104 14.3049 29.1104 17.9529 29.1104C21.6324 29.1104 22.0134 29.0924 23.4339 29.0264C24.2895 29.016 25.1369 28.8582 25.9389 28.5599C27.1156 28.103 28.0463 27.1729 28.5039 25.9964C28.803 25.1853 28.9608 24.3289 28.9704 23.4644H28.9869C29.0514 22.0304 29.0514 21.6479 29.0514 17.9834C29.0514 14.3189 29.0349 13.9334 28.9704 12.5009C28.957 11.6466 28.7992 10.8007 28.5039 9.99895C28.0473 8.82081 27.1165 7.88888 25.9389 7.43095C25.1371 7.13206 24.2896 6.97423 23.4339 6.96445C21.9834 6.88195 21.6039 6.88195 17.9529 6.88195ZM18.0039 24.9359C15.1989 24.9378 12.669 23.2495 11.5942 20.6586C10.5194 18.0677 11.1113 15.0844 13.0939 13.1001C15.0764 11.1158 18.0592 10.5214 20.651 11.5939C23.2429 12.6665 24.9333 15.1949 24.9339 17.9999C24.9298 21.8265 21.8305 24.9285 18.0039 24.9359ZM18.0039 13.4969C15.5186 13.4969 13.5039 15.5117 13.5039 17.9969C13.5039 20.4822 15.5186 22.4969 18.0039 22.4969C20.4892 22.4969 22.5039 20.4822 22.5039 17.9969C22.4981 15.5141 20.4868 13.5027 18.0039 13.4969ZM25.2039 12.4275C24.312 12.4241 23.5913 11.6993 23.5929 10.8075C23.5946 9.91559 24.318 9.19346 25.2099 9.19346C26.1018 9.19346 26.8252 9.91558 26.8269 10.8074C26.8273 11.2377 26.6563 11.6505 26.3518 11.9545C26.0473 12.2584 25.6342 12.4286 25.2039 12.4275Z" fill="#CE4768"/>
</svg>
