 <svg width="92" height="101" viewBox="0 0 65 75" fill="none" xmlns="http://www.w3.org/2000/svg">
    <path d="M45.4547 65.1122H20.1758V57.2278H45.4547V65.1122Z" fill="#BDBCBC"/>
    <path d="M45.455 65.1122V64.7031H20.6466V57.6356H44.9845V65.1122H45.455V64.7031V65.1122H45.9255V57.2278C45.9255 57.119 45.8751 57.0142 45.7875 56.9378C45.6984 56.8614 45.5782 56.8174 45.455 56.8174H20.1761C20.0529 56.8174 19.9327 56.8614 19.8451 56.9378C19.7575 57.0142 19.707 57.119 19.707 57.2278V65.1122C19.707 65.2196 19.7575 65.3245 19.8451 65.4009C19.9327 65.4773 20.0529 65.5213 20.1761 65.5213H45.455C45.5782 65.5213 45.6984 65.4773 45.7875 65.4009C45.8751 65.3245 45.9255 65.2196 45.9255 65.1122H45.455Z" fill="#040606"/>
    <path d="M46.9632 57.2277C46.9632 58.134 46.1201 58.8706 45.0766 58.8706H20.1762C19.1356 58.8706 18.291 58.134 18.291 57.2277C18.291 56.3202 19.1356 55.5848 20.1762 55.5848H45.0766C46.1201 55.5848 46.9632 56.3202 46.9632 57.2277Z" fill="#7B7979"/>
    <path d="M46.963 57.2278H46.494C46.494 57.5683 46.3366 57.8751 46.0784 58.0991C45.8216 58.3231 45.4698 58.4603 45.0764 58.4616H20.176C19.7841 58.4603 19.4338 58.3231 19.1755 58.0991C18.9188 57.8751 18.7599 57.5683 18.7599 57.2278C18.7599 56.886 18.9188 56.5792 19.1755 56.3552C19.4338 56.1325 19.7841 55.994 20.176 55.994H45.0764C45.4698 55.994 45.8216 56.1325 46.0784 56.3552C46.3366 56.5792 46.494 56.886 46.494 57.2278H47.4336C47.4336 56.0937 46.3782 55.1758 45.0764 55.1758H20.176C18.8757 55.1758 17.8203 56.0937 17.8203 57.2278C17.8203 58.3606 18.8757 59.2785 20.176 59.2798H45.0764C46.3797 59.2785 47.4336 58.3606 47.4336 57.2278H46.963Z" fill="#040606"/>
    <path d="M46.9632 66.7525C46.9632 67.6601 46.1201 68.3967 45.0766 68.3967H20.1762C19.1356 68.3967 18.291 67.6601 18.291 66.7525C18.291 65.8462 19.1356 65.1122 20.1762 65.1122H45.0766C46.1201 65.1122 46.9632 65.8462 46.9632 66.7525Z" fill="#7B7979"/>
    <path d="M46.963 66.7525H46.494C46.494 67.0943 46.3366 67.4012 46.0784 67.6251C45.8216 67.8504 45.4698 67.9876 45.0764 67.9876H20.176C19.7841 67.9876 19.4338 67.8504 19.1755 67.6251C18.9188 67.4012 18.7599 67.0943 18.7599 66.7525C18.7599 66.4121 18.9188 66.1065 19.1755 65.8812C19.4338 65.6586 19.7841 65.5213 20.176 65.5213H45.0764C45.4698 65.5213 45.8216 65.6586 46.0784 65.8812C46.3366 66.1065 46.494 66.4121 46.494 66.7525H47.4336C47.4336 65.6197 46.3782 64.7031 45.0764 64.7031H20.176C18.8757 64.7031 17.8203 65.6197 17.8203 66.7525C17.8203 67.8867 18.8757 68.8046 20.176 68.8058H45.0764C46.3797 68.8058 47.4336 67.8867 47.4336 66.7525H46.963Z" fill="#040606"/>
    <path d="M47.0441 63.3877C46.9165 64.2875 45.9739 64.9271 44.9378 64.8157L20.2289 62.1436C19.1943 62.0309 18.461 61.2101 18.5887 60.3091C18.7178 59.4093 19.6604 58.771 20.6935 58.8824L45.4039 61.5558C46.4385 61.6671 47.1718 62.4867 47.0441 63.3877Z" fill="#7B7979"/>
    <path d="M47.0448 63.3877L46.5788 63.3359C46.5327 63.6492 46.3591 63.9185 46.1067 64.1114C45.8544 64.3043 45.5248 64.4195 45.173 64.4195C45.1152 64.4195 45.0558 64.4156 44.9964 64.4092L20.2875 61.737C19.9268 61.6982 19.6195 61.5467 19.3969 61.3266C19.1757 61.1065 19.0451 60.8204 19.0451 60.5149C19.0451 60.4631 19.048 60.4113 19.0555 60.3621L19.057 60.3595C19.1015 60.0462 19.2737 59.7782 19.526 59.5853C19.7784 59.3937 20.1064 59.2785 20.4597 59.2798C20.5176 59.2798 20.5755 59.2824 20.6348 59.2889H20.6363L45.3467 61.9623C45.7074 62.0011 46.0147 62.1526 46.2373 62.3714C46.4585 62.5915 46.5891 62.8763 46.5891 63.1831C46.5891 63.2323 46.5862 63.2841 46.5788 63.3385V63.3359L47.0448 63.3877L47.5109 63.4369C47.5228 63.3527 47.5288 63.2673 47.5288 63.1831C47.5288 62.6718 47.3105 62.1953 46.9439 61.8315C46.5773 61.4677 46.0563 61.214 45.4625 61.1493L20.7521 58.4771H20.7536C20.6541 58.4668 20.5562 58.4603 20.4597 58.4616C19.8734 58.4603 19.3241 58.6506 18.907 58.9704C18.4884 59.2889 18.196 59.7407 18.1233 60.2586L18.1248 60.2573C18.1099 60.344 18.1055 60.4307 18.1055 60.5149C18.1055 61.025 18.3237 61.5014 18.6903 61.8665C19.057 62.2303 19.5765 62.4853 20.1702 62.5488L44.8806 65.2222C44.9786 65.2326 45.0766 65.2377 45.173 65.2377C45.7609 65.2377 46.3086 65.0461 46.7272 64.7264C47.1458 64.4079 47.4367 63.956 47.5109 63.4382V63.4369L47.0448 63.3877Z" fill="#040606"/>
    <path d="M45.4384 68.3966H20.1758C22.2598 70.4383 25.6561 71.9362 29.6595 72.4605C29.6431 72.5291 29.6194 72.5964 29.6194 72.6663C29.6194 73.5739 31.0503 74.3092 32.8152 74.3092C34.5802 74.3092 36.0111 73.5739 36.0111 72.6663C36.0111 72.5951 35.9873 72.5278 35.971 72.4592C39.9669 71.9336 43.3573 70.4344 45.4384 68.3966Z" fill="#A7A5A6"/>
    <path d="M45.4391 68.3967V67.9875H20.1765C19.9925 67.9875 19.8247 68.0821 19.749 68.2284C19.6719 68.3772 19.703 68.5481 19.8262 68.6685C22.0038 70.7995 25.4965 72.3272 29.5904 72.8658L29.6602 72.4605L29.2015 72.3738C29.1911 72.4217 29.1526 72.5162 29.1496 72.6664C29.1496 72.9888 29.2802 73.2917 29.4895 73.5455C29.8057 73.9248 30.2836 74.2096 30.8551 74.409C31.4266 74.6084 32.0976 74.7184 32.816 74.7184C33.7734 74.7184 34.6462 74.5229 35.3142 74.1811C35.6482 74.0089 35.9332 73.7979 36.1425 73.5455C36.3518 73.2917 36.4824 72.9888 36.4809 72.6664C36.4794 72.5175 36.4393 72.4191 36.4304 72.3725L35.9718 72.4592L36.0415 72.8632C40.128 72.3246 43.6148 70.7956 45.7909 68.6685C45.9141 68.5481 45.9438 68.3772 45.8681 68.2284C45.7909 68.0821 45.6247 67.9875 45.4391 67.9875V68.3967L45.0873 68.1248C43.1027 70.0745 39.8074 71.5426 35.9005 72.054C35.7729 72.0709 35.6571 72.133 35.5843 72.2262C35.5116 72.3194 35.4849 72.4346 35.5116 72.5447C35.5235 72.59 35.5324 72.6224 35.5368 72.6431L35.5413 72.6638V72.6677L35.5487 72.6664H35.5413V72.6677L35.5487 72.6664H35.5413C35.5413 72.7984 35.4923 72.9266 35.3795 73.0677C35.2088 73.2775 34.8778 73.495 34.4295 73.649C33.9812 73.8044 33.4216 73.9002 32.816 73.9002C32.0085 73.9015 31.2826 73.7293 30.7943 73.4755C30.5508 73.3513 30.3668 73.2076 30.2525 73.0677C30.1397 72.9266 30.0907 72.7984 30.0892 72.6664H30.0699L30.0892 72.6677V72.6664H30.0699L30.0892 72.6677C30.0892 72.6664 30.0981 72.6263 30.1204 72.5473C30.1471 72.4372 30.1204 72.3207 30.0476 72.2275C29.9734 72.1356 29.8576 72.0721 29.73 72.0566C25.8186 71.5452 22.5174 70.0771 20.5283 68.1248L20.1765 68.3967V68.8058H45.4391V68.3967L45.0873 68.1248L45.4391 68.3967Z" fill="#040606"/>
    <path d="M32.4621 51.3256V8.11296C32.4621 4.51515 35.4665 1.59572 39.1745 1.59572C40.1541 1.59572 41.0759 1.80934 41.9146 2.17573C42.9284 1.17885 44.3327 0.558716 45.8883 0.558716C48.7888 0.558716 51.1445 2.713 51.4176 5.45765C55.5753 5.77483 58.8617 9.11372 58.8617 13.2294C58.8617 14.5409 58.4981 15.7565 57.9117 16.8414C61.3481 17.0926 64.063 19.8476 64.063 23.246C64.063 25.579 62.7731 27.6077 60.8582 28.7405C62.7938 30.1711 64.063 32.4082 64.063 34.9535C64.063 38.5811 61.5084 41.6054 58.0587 42.4948C58.2947 43.3441 58.4327 44.2322 58.4327 45.154C58.4327 50.7857 53.7273 55.3545 47.9234 55.3545C46.7685 55.3545 45.6612 55.1668 44.6221 54.8327C43.681 57.11 41.3951 58.7231 38.7128 58.7231C35.1904 58.7231 32.3359 55.95 32.3359 52.5348C32.3359 52.1205 32.382 51.7178 32.4621 51.3256Z" fill="#F57C8F"/>
    <path d="M32.462 51.3255H32.931V8.11289C32.931 6.41302 33.642 4.88016 34.7776 3.77842C35.9146 2.67539 37.4658 2.00605 39.1743 2.00605C40.0738 2.00605 40.9229 2.20025 41.7052 2.54204C41.8952 2.62489 42.1252 2.58605 42.2677 2.44623C43.2029 1.52704 44.4795 0.969045 45.8881 0.967751C47.2018 0.969045 48.3923 1.45324 49.3007 2.26498C50.2077 3.07543 50.8222 4.21213 50.9498 5.49253C50.9691 5.69061 51.1487 5.84726 51.3759 5.86539C53.3219 6.01427 55.069 6.86873 56.3396 8.1815C57.6087 9.49557 58.3925 11.2666 58.3925 13.2293C58.391 14.4748 58.0466 15.6283 57.487 16.6679C57.4217 16.7896 57.4277 16.9307 57.5048 17.0459C57.582 17.1624 57.7186 17.2388 57.873 17.2492C59.4568 17.3657 60.8803 18.057 61.9179 19.1264C62.9525 20.1971 63.5937 21.6419 63.5937 23.246C63.5937 25.4469 62.3751 27.35 60.5923 28.4012C60.4706 28.4737 60.3964 28.589 60.3875 28.7184C60.3801 28.8466 60.4409 28.9696 60.5523 29.0524C62.3825 30.4041 63.5937 32.5273 63.5937 34.9534C63.5937 36.6831 62.9852 38.2638 61.9713 39.5145C60.956 40.7664 59.5414 41.6869 57.9264 42.1012C57.6859 42.1646 57.5434 42.3782 57.6028 42.5905C57.8299 43.4113 57.962 44.2671 57.962 45.1539C57.962 47.8701 56.8265 50.3234 55.0052 52.0932C53.1794 53.8617 50.6797 54.9453 47.9232 54.9453C46.8262 54.9453 45.7753 54.7679 44.7852 54.4495C44.6665 54.4119 44.5373 54.4158 44.4245 54.4624C44.3102 54.509 44.2227 54.5919 44.1796 54.6954C43.7387 55.7622 42.9832 56.6711 42.0332 57.308C41.0832 57.9463 39.9447 58.314 38.7127 58.314C37.0947 58.314 35.6296 57.6809 34.5534 56.6374C33.4773 55.5926 32.8048 54.1426 32.8048 52.5347C32.8048 52.1463 32.8479 51.7683 32.9236 51.3967C32.928 51.3734 32.931 51.3501 32.931 51.3255H32.462L31.9988 51.2543C31.9142 51.666 31.8652 52.0932 31.8652 52.5347C31.8652 54.342 32.6193 55.9862 33.8543 57.1838C35.0848 58.38 36.8067 59.1322 38.7127 59.1322C40.1629 59.1322 41.5092 58.6946 42.6077 57.9567C43.7076 57.2174 44.5641 56.1804 45.0643 54.9712L44.622 54.8327L44.4602 55.2172C45.5452 55.5667 46.709 55.7648 47.9232 55.7635C50.9691 55.7648 53.7241 54.5621 55.7043 52.6396C57.6845 50.7157 58.9031 48.0695 58.9031 45.1539C58.9031 44.1959 58.7606 43.2754 58.5157 42.3989L58.0585 42.4947L58.1936 42.887C60.0268 42.4145 61.6121 41.3762 62.7387 39.987C63.8654 38.5966 64.5334 36.8501 64.5334 34.9534C64.5334 32.2891 63.2034 29.938 61.1609 28.4284L60.858 28.7404L61.1208 29.0783C63.1707 27.8666 64.5334 25.7123 64.5334 23.246C64.5334 21.4516 63.8164 19.8191 62.6363 18.5995C61.4562 17.3799 59.8041 16.5682 57.9516 16.4336L57.9116 16.8414L58.3376 17.0149C58.9477 15.8833 59.3321 14.6068 59.3321 13.2293C59.3321 11.0763 58.4727 9.11882 57.058 7.65588C55.6464 6.19164 53.6722 5.21936 51.4575 5.04976L51.4174 5.45757L51.8865 5.42262C51.7395 3.95838 51.0389 2.6469 49.9746 1.69405C48.9118 0.742483 47.4734 0.149536 45.8881 0.149536C44.1855 0.149536 42.6522 0.830519 41.5627 1.90507L41.9145 2.17565L42.1252 1.80927C41.2287 1.41829 40.2327 1.18655 39.1743 1.18655C37.1763 1.18655 35.3698 1.97628 34.077 3.23208C32.7841 4.48789 31.9914 6.21365 31.9914 8.11289V51.3255H32.462L31.9988 51.2543L32.462 51.3255Z" fill="#040606"/>
    <path d="M41.2615 51.1494L41.214 51.2038L41.2615 51.1494L41.214 51.2038L41.2615 51.1494C41.2466 51.1404 40.6707 50.7623 40.1141 50.128C39.8365 49.8121 39.5619 49.4328 39.3615 49.0068C39.1596 48.5809 39.0275 48.1109 39.0275 47.6021C39.029 46.7554 39.2101 46.1275 39.4669 45.6576C39.8528 44.9533 40.4124 44.583 40.8844 44.372C41.1205 44.2697 41.3342 44.2089 41.4826 44.1752C41.5583 44.1584 41.6177 44.148 41.6548 44.1415L41.6949 44.1364L41.7023 44.1351L41.683 44.0017L41.6994 44.1351H41.7023L41.683 44.0017L41.6994 44.1351C41.9576 44.1131 42.1447 43.9111 42.118 43.6871C42.0912 43.4619 41.8597 43.2987 41.6029 43.322C41.5524 43.3272 40.6989 43.4062 39.8187 43.994C39.3808 44.2878 38.9414 44.7138 38.6193 45.3054C38.2942 45.8984 38.0894 46.6532 38.0879 47.6021C38.0879 48.2443 38.2571 48.8307 38.5035 49.3434C38.8746 50.1137 39.4194 50.7222 39.8721 51.143C40.3234 51.5637 40.6855 51.7968 40.7019 51.8071C40.9112 51.9418 41.2051 51.9029 41.3594 51.7217C41.5138 51.5404 41.4693 51.2828 41.2615 51.1494Z" fill="#040606"/>
    <path d="M50.9493 5.48087C50.9567 5.60257 50.9612 5.72168 50.9612 5.83819C50.9612 6.75609 50.7281 7.529 50.4951 8.07016C50.3778 8.34074 50.262 8.55306 50.1774 8.69547C50.1344 8.76667 50.1002 8.81975 50.0765 8.85471L50.0498 8.89225L50.0453 8.90002C49.9028 9.08904 49.9651 9.34279 50.1833 9.46578C50.4001 9.58877 50.691 9.53569 50.8335 9.34538C50.8469 9.32596 51.1111 8.96993 51.3738 8.35757C51.638 7.7452 51.9008 6.8765 51.9008 5.83819C51.9008 5.70614 51.8963 5.5715 51.8874 5.43427C51.8726 5.209 51.6514 5.03681 51.3916 5.04976C51.1319 5.0627 50.9344 5.25561 50.9493 5.48087Z" fill="#040606"/>
    <path d="M45.0424 54.9751C45.1701 54.5932 45.2369 54.1103 45.2369 53.6028C45.2369 53.1043 45.1716 52.5878 44.9994 52.136C44.9133 51.9094 44.7975 51.6984 44.6357 51.5132C44.4724 51.3294 44.2527 51.1701 43.9752 51.0899C43.7287 51.0187 43.463 51.1352 43.3814 51.3501C43.2998 51.5637 43.4334 51.7955 43.6798 51.8667C43.7436 51.8861 43.8119 51.9249 43.8905 52.013C44.0078 52.1411 44.1221 52.3768 44.1919 52.6616C44.2631 52.9464 44.2973 53.2778 44.2973 53.6028C44.2988 54.0417 44.2334 54.4728 44.1414 54.7434C44.0672 54.9609 44.2097 55.1887 44.4591 55.2522C44.7084 55.3156 44.9682 55.1913 45.0424 54.9751Z" fill="#040606"/>
    <path d="M41.8045 49.803C41.5981 49.9053 41.423 50.0451 41.2597 50.2095C41.0163 50.4581 40.8025 50.7624 40.6422 51.0925C40.4834 51.4226 40.375 51.7774 40.375 52.1334C40.375 52.2965 40.3987 52.4622 40.4566 52.6228C40.516 52.7833 40.614 52.9399 40.7535 53.0733C40.9272 53.2403 41.2255 53.252 41.417 53.1005C41.6085 52.9477 41.6234 52.6888 41.4482 52.5218C41.4066 52.4816 41.3755 52.4363 41.3517 52.3716C41.328 52.3082 41.3146 52.2279 41.3146 52.1334C41.3116 51.8602 41.4438 51.4822 41.6456 51.1637C41.7451 51.0032 41.8594 50.8569 41.9722 50.7429C42.085 50.629 42.1963 50.5487 42.2676 50.5138C42.4932 50.4025 42.5719 50.1526 42.4442 49.9571C42.3166 49.7603 42.0301 49.6904 41.8045 49.803Z" fill="#040606"/>
    <path d="M52.0648 47.3833C50.1975 47.5632 48.5914 45.5733 48.7948 43.7078Z" fill="#F57C8F"/>
    <path d="M52.0126 46.9768C51.9503 46.9819 51.888 46.9858 51.8286 46.9858C51.505 46.9858 51.1888 46.9043 50.886 46.7515C50.4333 46.5249 50.0147 46.1275 49.7178 45.6433C49.4209 45.1591 49.2458 44.5894 49.2458 44.0315C49.2458 43.9356 49.2502 43.8411 49.2606 43.7479C49.2859 43.5227 49.0973 43.3233 48.8391 43.3C48.5808 43.2793 48.3507 43.4437 48.3255 43.6677C48.3121 43.7894 48.3047 43.9111 48.3047 44.0315C48.3077 44.9727 48.6877 45.8893 49.3066 46.5936C49.6169 46.9457 49.9894 47.2448 50.414 47.4597C50.84 47.6746 51.3209 47.804 51.8286 47.804C51.9221 47.804 52.0186 47.8002 52.1151 47.7898C52.3733 47.7652 52.5589 47.5632 52.5307 47.3393C52.5025 47.114 52.2709 46.9522 52.0126 46.9768Z" fill="#040606"/>
    <path d="M58.474 42.298C58.235 41.5238 57.8357 40.8454 57.3978 40.3081C57.1781 40.0401 56.9481 39.8071 56.7209 39.6142C56.4909 39.4213 56.2638 39.2672 56.0352 39.1585C55.8066 39.051 55.5201 39.1248 55.3984 39.3242C55.2752 39.5236 55.3598 39.7708 55.5884 39.8783C55.7131 39.9365 55.8852 40.0466 56.0663 40.2019C56.3409 40.4324 56.6408 40.7586 56.908 41.1535C57.1766 41.5484 57.4112 42.0106 57.567 42.5116C57.6338 42.7304 57.8921 42.8586 58.143 42.8003C58.3938 42.7407 58.5423 42.5168 58.474 42.298Z" fill="#040606"/>
    <path d="M50.1976 43.3415C49.8651 44.0017 47.548 43.8062 47.3906 42.8469Z" fill="#F57C8F"/>
    <path d="M49.7649 43.1771L49.7619 43.181C49.756 43.1913 49.6981 43.2341 49.5823 43.2664C49.4695 43.2988 49.3077 43.3195 49.1326 43.3195C48.8238 43.3208 48.472 43.2535 48.2286 43.1421C48.1054 43.0878 48.0118 43.023 47.9525 42.9635C47.8931 42.9013 47.8664 42.8495 47.856 42.7887C47.8189 42.566 47.5814 42.4094 47.3246 42.4417C47.0678 42.4741 46.8897 42.68 46.9268 42.9039C46.9624 43.1331 47.0826 43.3376 47.24 43.4969C47.4775 43.7351 47.7892 43.8878 48.1158 43.9888C48.4453 44.0898 48.7941 44.1377 49.1326 44.1377C49.4265 44.1377 49.71 44.1028 49.9727 44.0134C50.1033 43.9681 50.2295 43.9086 50.3438 43.827C50.4581 43.7441 50.5605 43.6367 50.6273 43.5046C50.7297 43.2975 50.6214 43.0567 50.3839 42.9661C50.1464 42.8754 49.8688 42.9699 49.7649 43.1771Z" fill="#040606"/>
    <path d="M55.9891 22.6777C55.9891 22.6777 56.5338 21.2937 55.3018 19.2508C54.0683 17.2091 52.6641 17.2829 52.6641 17.2829" fill="#F57C8F"/>
    <path d="M56.4339 22.8109C56.4472 22.776 56.5779 22.4277 56.5779 21.8387C56.5793 21.1745 56.4072 20.2048 55.7169 19.0617C55.1098 18.0544 54.4359 17.4965 53.8629 17.2013C53.2914 16.9022 52.8313 16.8724 52.6814 16.8724C52.6591 16.8724 52.6413 16.8724 52.6324 16.8737C52.3726 16.8893 52.1767 17.0835 52.1945 17.3087C52.2108 17.5353 52.435 17.7062 52.6947 17.6906L52.6725 17.3968L52.6828 17.6906H52.6947L52.6725 17.3968L52.6828 17.6906L52.6814 17.6389V17.6919L52.6828 17.6906L52.6814 17.6389V17.6919C52.6992 17.6919 52.9738 17.6919 53.382 17.903C53.7902 18.1153 54.3409 18.5438 54.8857 19.441C55.5032 20.4664 55.6382 21.2949 55.6382 21.8387C55.6382 22.0795 55.6115 22.2646 55.5878 22.385C55.5744 22.4459 55.5611 22.4899 55.5536 22.5171L55.5447 22.5443L55.5432 22.5481L55.7481 22.6064L55.5432 22.5455V22.5481L55.7481 22.6064L55.5432 22.5455C55.4601 22.7592 55.5922 22.9922 55.8372 23.0647C56.0821 23.1385 56.3493 23.0246 56.4339 22.8109Z" fill="#040606"/>
    <path d="M53.0063 16.4232C52.892 17.0693 52.2864 17.5703 51.5605 17.4965Z" fill="#F57C8F"/>
    <path d="M52.5425 16.3611C52.5054 16.5773 52.3896 16.7676 52.2352 16.8958C52.0823 17.0252 51.9027 17.0938 51.7038 17.0938C51.6756 17.0938 51.6459 17.0926 51.6147 17.09C51.3579 17.0641 51.1249 17.2246 51.0952 17.4499C51.064 17.6738 51.2496 17.8771 51.5079 17.903C51.5732 17.9095 51.6385 17.9134 51.7038 17.9134C52.1654 17.9134 52.5855 17.7438 52.8913 17.4822C53.1971 17.222 53.4019 16.8725 53.4717 16.4854C53.5103 16.2614 53.3351 16.053 53.0768 16.0193C52.8215 15.9856 52.5825 16.1384 52.5425 16.3611Z" fill="#040606"/>
    <path d="M56.6586 23.9295C56.8916 22.9961 55.0228 21.9345 54.3652 22.8576Z" fill="#F57C8F"/>
    <path d="M57.1207 24.0163C57.1415 23.9335 57.1519 23.8493 57.1519 23.7678C57.1504 23.5282 57.0702 23.3043 56.9485 23.1088C56.7659 22.8149 56.4913 22.5728 56.1752 22.3928C55.8575 22.2142 55.4938 22.0951 55.1049 22.0938C54.8956 22.0925 54.6774 22.1313 54.4756 22.2232C54.2737 22.3152 54.0956 22.4589 53.9679 22.6414C53.8299 22.833 53.8981 23.0855 54.1193 23.2046C54.3405 23.3237 54.6299 23.2641 54.7665 23.0725C54.817 23.0039 54.8615 22.9716 54.912 22.947C54.9609 22.9249 55.0233 22.912 55.1049 22.912C55.2044 22.9107 55.332 22.9353 55.4656 22.9858C55.6645 23.0609 55.8679 23.1955 56.0059 23.3457C56.0757 23.4208 56.1292 23.4985 56.1618 23.5723C56.1959 23.6435 56.2108 23.7095 56.2108 23.7678C56.2108 23.7937 56.2093 23.8195 56.2019 23.8428C56.147 24.0642 56.3088 24.2817 56.5626 24.3296C56.8164 24.3775 57.0673 24.2364 57.1207 24.0163Z" fill="#040606"/>
    <path d="M45.8378 13.5815C48.149 9.54865 41.113 6.05571 38.2734 9.20428Z" fill="#F57C8F"/>
    <path d="M46.2579 13.764C46.6053 13.1581 46.7656 12.5496 46.7656 11.967C46.7656 11.3391 46.5801 10.7449 46.2639 10.2154C45.7904 9.42047 45.0333 8.76668 44.1472 8.30579C43.261 7.84619 42.2457 7.5769 41.2333 7.5769C40.6173 7.5769 40.0028 7.67789 39.4298 7.90186C38.8598 8.12583 38.3329 8.47409 37.9039 8.95181C37.7451 9.12918 37.7807 9.38681 37.984 9.52664C38.1889 9.66516 38.4843 9.63538 38.6431 9.45672C38.983 9.08128 39.3794 8.82106 39.8172 8.64887C40.2551 8.47668 40.7346 8.39512 41.2333 8.39512C42.3229 8.39253 43.497 8.79387 44.3728 9.45025C44.8122 9.7778 45.1773 10.1662 45.4297 10.5921C45.6835 11.0181 45.826 11.479 45.826 11.967C45.8245 12.4189 45.7043 12.8966 45.4163 13.3989C45.3005 13.6009 45.3955 13.8469 45.6271 13.9478C45.8601 14.0488 46.1422 13.966 46.2579 13.764Z" fill="#040606"/>
    <path d="M44.0742 8.74983C46.2963 9.36868 47.6412 7.48756 47.0222 5.53394Z" fill="#F57C8F"/>
    <path d="M43.9302 9.13955C44.2657 9.23277 44.5922 9.27808 44.9069 9.27808C45.3225 9.27937 45.7129 9.19652 46.0558 9.04634C46.5709 8.82107 46.9702 8.44951 47.2374 8.00285C47.5031 7.5562 47.6411 7.03446 47.6411 6.48424C47.6411 6.13986 47.5862 5.78254 47.4749 5.42522C47.4066 5.20772 47.1468 5.07955 46.896 5.1391C46.6466 5.19995 46.4996 5.42522 46.5679 5.64272C46.6585 5.93013 46.7015 6.21366 46.7015 6.48424C46.7015 7.06035 46.5056 7.56785 46.1894 7.91482C46.0321 8.0883 45.845 8.22294 45.6343 8.31616C45.422 8.40808 45.183 8.45986 44.9069 8.45986C44.6976 8.45986 44.469 8.43009 44.2167 8.36018C43.9688 8.29027 43.7046 8.40937 43.6259 8.62428C43.5472 8.84049 43.6823 9.07094 43.9302 9.13955Z" fill="#040606"/>
    <path d="M38.8484 11.1682C39.3827 9.96939 37.9548 8.08957 36.123 8.98287Z" fill="#F57C8F"/>
    <path d="M39.2876 11.3159C39.3885 11.0893 39.433 10.8524 39.433 10.6155C39.4316 10.0653 39.1985 9.51895 38.7948 9.08783C38.5914 8.87292 38.342 8.68778 38.0511 8.55444C37.7616 8.41979 37.4277 8.34082 37.0729 8.34082C36.6899 8.34082 36.2862 8.43403 35.8943 8.62564C35.6687 8.73698 35.587 8.98555 35.7147 9.18363C35.8423 9.38042 36.1273 9.45033 36.3545 9.33899C36.6261 9.20694 36.8621 9.15903 37.0729 9.15903C37.2673 9.15903 37.4455 9.20176 37.6132 9.27814C37.8641 9.39207 38.0882 9.59145 38.247 9.83613C38.4059 10.0782 38.4934 10.3605 38.4934 10.6155C38.4934 10.7631 38.4652 10.899 38.4118 11.0194C38.3183 11.2305 38.437 11.4674 38.679 11.5489C38.9209 11.6318 39.1941 11.5269 39.2876 11.3159Z" fill="#040606"/>
    <path d="M32.5481 51.3256V8.11296C32.5481 4.51515 29.5423 1.59572 25.8343 1.59572C24.8576 1.59572 23.9343 1.80934 23.0956 2.17573C22.0818 1.17885 20.6776 0.558716 19.1234 0.558716C16.2215 0.558716 13.8658 2.713 13.5927 5.45765C9.43344 5.77483 6.15 9.11372 6.15 13.2294C6.15 14.5409 6.51219 15.7565 7.09852 16.8414C3.66219 17.0926 0.947266 19.8476 0.947266 23.246C0.947266 25.579 2.23719 27.6077 4.15352 28.7405C2.21641 30.1711 0.947266 32.4082 0.947266 34.9535C0.947266 38.5811 3.50188 41.6054 6.95156 42.4948C6.71555 43.3441 6.5775 44.2322 6.5775 45.154C6.5775 50.7857 11.283 55.3545 17.0884 55.3545C18.2432 55.3545 19.3491 55.1668 20.3881 54.8327C21.3292 57.11 23.6152 58.7231 26.2989 58.7231C29.8198 58.7231 32.6728 55.95 32.6728 52.5348C32.6728 52.1205 32.6298 51.7178 32.5481 51.3256Z" fill="#F57C8F"/>
    <path d="M32.5499 51.3255H33.0205V8.11289C33.0205 6.21365 32.2278 4.48789 30.9334 3.23208C29.642 1.97628 27.8355 1.18655 25.8361 1.18655C24.7807 1.18655 23.7832 1.41829 22.8866 1.80927L23.0974 2.17565L23.4477 1.90507C22.3597 0.830519 20.8263 0.149536 19.1252 0.149536C17.5384 0.149536 16.1001 0.742483 15.0373 1.69405C13.973 2.6469 13.2723 3.95838 13.1254 5.42262L13.5945 5.45757L13.5529 5.04976C11.3397 5.21936 9.36547 6.19164 7.95383 7.65588C6.5407 9.12012 5.68125 11.0763 5.68125 13.2293C5.68125 14.6068 6.06273 15.8833 6.67578 17.0161L7.10031 16.8414L7.06023 16.4336C5.20922 16.5682 3.55562 17.3799 2.37703 18.5995C1.19547 19.8191 0.478516 21.4516 0.478516 23.246C0.478516 25.7123 1.84266 27.8666 3.89109 29.0783L4.15531 28.7404L3.85102 28.4284C1.80703 29.9367 0.478516 32.2891 0.478516 34.9534C0.478516 36.8501 1.14648 38.5966 2.27312 39.987C3.39828 41.3762 4.98508 42.4145 6.81977 42.887L6.95336 42.4947L6.49617 42.3989C6.25273 43.2754 6.11023 44.1959 6.11023 45.1539C6.11023 48.0695 7.32742 50.7157 9.30906 52.6396C11.2877 54.5621 14.0442 55.7648 17.0902 55.7635C18.3029 55.7648 19.4666 55.5667 20.5532 55.2172L20.3899 54.8327L19.9476 54.9712C20.4478 56.1804 21.3058 57.2174 22.4042 57.9567C23.5041 58.6946 24.8505 59.1322 26.3007 59.1322C28.2066 59.1322 29.927 58.38 31.1576 57.1838C32.3911 55.9862 33.1452 54.342 33.1452 52.5347C33.1452 52.0945 33.0977 51.6673 33.013 51.2543L32.5499 51.3255H33.0205H32.5499L32.0883 51.3967C32.164 51.7683 32.2055 52.1463 32.2055 52.5347C32.2055 54.1426 31.5331 55.5926 30.4584 56.6374C29.3823 57.6809 27.9172 58.314 26.3007 58.314C25.0687 58.314 23.9287 57.945 22.9802 57.308C22.0302 56.6711 21.2731 55.7622 20.8323 54.6954C20.7892 54.5919 20.7016 54.509 20.5873 54.4624C20.4745 54.4158 20.3439 54.4119 20.2266 54.4495C19.2366 54.7679 18.1856 54.9453 17.0902 54.9453C14.3322 54.9453 11.8325 53.8617 10.0082 52.0932C8.18539 50.3234 7.04984 47.8701 7.04984 45.1539C7.04984 44.2671 7.18195 43.4113 7.40906 42.5905C7.46844 42.3782 7.32742 42.1646 7.08695 42.1012C5.47195 41.6869 4.05586 40.7664 3.04055 39.5145C2.02672 38.2638 1.41812 36.6831 1.41812 34.9534C1.41664 32.5273 2.62789 30.4041 4.45961 29.0524C4.57242 28.9696 4.6318 28.8466 4.62437 28.7184C4.61695 28.589 4.54125 28.4737 4.41953 28.4012C2.63828 27.35 1.41664 25.4469 1.41812 23.246C1.41812 21.6419 2.05937 20.1971 3.09547 19.1264C4.13156 18.057 5.55508 17.3657 7.14039 17.2492C7.29328 17.2388 7.43133 17.1624 7.50851 17.0459C7.58422 16.9294 7.59164 16.7883 7.52484 16.6666C6.96523 15.6296 6.62086 14.4761 6.62086 13.2293C6.62086 11.2666 7.40461 9.49557 8.67226 8.1815C9.94289 6.86744 11.69 6.01427 13.6345 5.86539C13.8631 5.84726 14.0427 5.69061 14.0635 5.49253C14.1897 4.21213 14.8042 3.07543 15.7097 2.26498C16.6196 1.45324 17.8101 0.969045 19.1252 0.967751C20.5339 0.969045 21.809 1.52704 22.7456 2.44753C22.8852 2.58605 23.1167 2.62489 23.3067 2.54204C24.0905 2.20025 24.938 2.00605 25.8361 2.00605C27.5461 2.00605 29.0973 2.67539 30.2343 3.77842C31.3698 4.88016 32.0809 6.41302 32.0809 8.11289V51.3255C32.0809 51.3501 32.0838 51.3734 32.0883 51.3967L32.5499 51.3255Z" fill="#040606"/>
    <path d="M24.3095 51.8071C24.3318 51.7929 24.9656 51.3838 25.6128 50.6601C25.9349 50.2989 26.26 49.8574 26.5079 49.3434C26.7543 48.8307 26.9235 48.2443 26.9235 47.6021C26.922 46.6532 26.7172 45.8984 26.3936 45.3054C25.9082 44.416 25.163 43.9098 24.55 43.6418C23.934 43.3725 23.4471 43.3259 23.4085 43.322C23.1502 43.2987 22.9202 43.4619 22.8934 43.6871C22.8652 43.9111 23.0523 44.1131 23.312 44.1351L23.3373 43.9176L23.3091 44.1351H23.312L23.3373 43.9176L23.3091 44.1351L23.3373 44.139C23.4887 44.1597 24.1626 44.2814 24.7741 44.7539C25.0799 44.9895 25.3768 45.3119 25.6024 45.7689C25.828 46.2259 25.9824 46.8215 25.9824 47.6021C25.9824 48.12 25.8488 48.5964 25.641 49.0275C25.3308 49.6736 24.8528 50.2121 24.4535 50.5837C24.2531 50.7701 24.0735 50.9138 23.9459 51.0096C23.882 51.0575 23.8316 51.0938 23.7974 51.1184L23.7588 51.143L23.7514 51.1494H23.7499L23.8568 51.275L23.7499 51.1494L23.8568 51.275L23.7499 51.1494C23.5421 51.2828 23.4976 51.5404 23.652 51.7217C23.8063 51.9029 24.1002 51.9418 24.3095 51.8071Z" fill="#040606"/>
    <path d="M13.1247 5.43427C13.1143 5.5715 13.1113 5.70614 13.1113 5.8369C13.1113 6.8752 13.3741 7.74391 13.6368 8.35627C13.8995 8.96993 14.1638 9.32596 14.1786 9.34538C14.3196 9.53569 14.6105 9.58877 14.8288 9.46578C15.0455 9.34279 15.1078 9.08904 14.9668 8.90002C14.952 8.87931 14.7204 8.55694 14.4948 8.01837C14.2691 7.4798 14.0509 6.72502 14.0509 5.8369C14.0509 5.72168 14.0554 5.60257 14.0628 5.48087C14.0777 5.25561 13.8802 5.0627 13.6205 5.04976C13.3607 5.03681 13.1395 5.209 13.1247 5.43427Z" fill="#040606"/>
    <path d="M20.8704 54.7446C20.7784 54.4741 20.713 54.0442 20.7145 53.6054C20.713 53.173 20.7769 52.7237 20.903 52.3962C20.9669 52.2318 21.0426 52.0997 21.1212 52.013C21.1999 51.9249 21.2667 51.8861 21.3335 51.8667C21.5799 51.7955 21.712 51.5637 21.6304 51.3501C21.5487 51.1352 21.283 51.0187 21.0366 51.0899C20.7591 51.1701 20.5379 51.3294 20.3776 51.5132C20.1327 51.7916 19.9946 52.1295 19.9026 52.4881C19.812 52.8467 19.7734 53.2312 19.7734 53.6054C19.7749 54.1129 19.8417 54.5945 19.9679 54.9738C20.0406 55.1913 20.3034 55.3156 20.5512 55.2521C20.8006 55.1887 20.9431 54.9608 20.8704 54.7446Z" fill="#040606"/>
    <path d="M22.7423 50.5138C22.8136 50.5487 22.9249 50.629 23.0377 50.7442C23.2069 50.9151 23.3791 51.1585 23.5023 51.411C23.624 51.6634 23.6968 51.9288 23.6953 52.1334C23.6953 52.2279 23.6819 52.3082 23.6582 52.3716C23.6344 52.4363 23.6033 52.4829 23.5617 52.5231C23.3865 52.6901 23.4014 52.949 23.5944 53.1005C23.7858 53.2519 24.0842 53.2403 24.2579 53.072C24.3974 52.9386 24.4939 52.782 24.5533 52.6228C24.6112 52.4622 24.6349 52.2978 24.6349 52.1334C24.6319 51.6595 24.4464 51.187 24.1896 50.7727C24.0619 50.5656 23.9135 50.3753 23.7502 50.2108C23.5869 50.0451 23.4118 49.9053 23.2055 49.803C22.9798 49.6904 22.6933 49.7603 22.5657 49.9571C22.4365 50.1539 22.5167 50.4024 22.7423 50.5138Z" fill="#040606"/>
    <path d="M12.9473 47.3833C14.8176 47.5632 16.4222 45.5733 16.2203 43.7078Z" fill="#F57C8F"/>
    <path d="M12.8972 47.7898C12.9937 47.8002 13.0902 47.804 13.1837 47.804C13.6914 47.804 14.1738 47.6746 14.5983 47.4597C15.2366 47.136 15.7561 46.6259 16.1243 46.0278C16.4909 45.4284 16.7061 44.7344 16.7076 44.0289C16.7076 43.9097 16.7017 43.7893 16.6883 43.6702C16.6646 43.445 16.436 43.2793 16.1777 43.3C15.9194 43.3207 15.7279 43.5214 15.7532 43.7453C15.7636 43.8385 15.768 43.9343 15.768 44.0289C15.7695 44.7733 15.4533 45.5384 14.9605 46.0951C14.7156 46.3735 14.4291 46.6 14.1263 46.7515C13.8235 46.9043 13.5088 46.9858 13.1837 46.9858C13.1229 46.9858 13.0605 46.9819 12.9997 46.9768C12.7414 46.9522 12.5098 47.114 12.4816 47.3393C12.4519 47.5632 12.639 47.7652 12.8972 47.7898Z" fill="#040606"/>
    <path d="M7.4464 42.5116C7.65421 41.8422 8.00452 41.2454 8.38156 40.7832C8.57156 40.5528 8.76601 40.3547 8.9471 40.2019C9.12968 40.0466 9.30039 39.9365 9.42508 39.8783C9.65367 39.7708 9.73976 39.5235 9.61656 39.3242C9.49336 39.1261 9.20836 39.051 8.97976 39.1585C8.74968 39.2672 8.52257 39.4213 8.29398 39.6142C7.95109 39.9029 7.60523 40.2835 7.29647 40.7379C6.98921 41.191 6.71905 41.718 6.53944 42.298C6.47264 42.5168 6.62108 42.7407 6.87046 42.8003C7.12132 42.8585 7.3796 42.7304 7.4464 42.5116Z" fill="#040606"/>
    <path d="M14.8164 43.3415C15.1474 44.0017 17.463 43.8062 17.6219 42.8469Z" fill="#F57C8F"/>
    <path d="M14.3862 43.5033C14.4516 43.6353 14.5555 43.7441 14.6683 43.8269C14.8419 43.9499 15.0364 44.0224 15.2412 44.0703C15.4446 44.1169 15.6598 44.1376 15.8795 44.1376C16.3293 44.1364 16.8013 44.0535 17.214 43.8697C17.4218 43.7764 17.6133 43.656 17.7721 43.4968C17.9294 43.3375 18.0497 43.1343 18.0868 42.9051C18.1239 42.6812 17.9458 42.474 17.689 42.4416C17.4322 42.4093 17.1932 42.5646 17.1576 42.7886C17.1457 42.8495 17.119 42.9012 17.0596 42.9621C16.972 43.054 16.7998 43.1511 16.5816 43.2171C16.3664 43.2832 16.1111 43.3194 15.8795 43.3194C15.6791 43.3207 15.498 43.2922 15.3852 43.2521C15.3273 43.2327 15.2887 43.2107 15.2694 43.1964L15.2487 43.1783C15.1448 42.9699 14.8687 42.8754 14.6297 42.966C14.3922 43.0553 14.2838 43.2961 14.3862 43.5033Z" fill="#040606"/>
    <path d="M9.0215 22.6777C9.0215 22.6777 8.47822 21.2937 9.71174 19.2508C10.9438 17.2091 12.3495 17.2829 12.3495 17.2829" fill="#F57C8F"/>
    <path d="M9.4682 22.5455L9.25891 22.6077L9.46969 22.5481L9.4682 22.5455L9.25891 22.6077L9.46969 22.5481C9.4682 22.5468 9.37469 22.2905 9.37469 21.84C9.37469 21.2962 9.50976 20.4676 10.1287 19.441C10.672 18.5438 11.2242 18.1153 11.6309 17.903C12.0391 17.6919 12.3152 17.6919 12.3316 17.6919V17.657V17.6919V17.657V17.6919L12.3405 17.4227L12.3227 17.6906L12.3316 17.6919L12.3405 17.4227L12.3227 17.6906C12.5809 17.7036 12.8036 17.5327 12.8199 17.3074C12.8362 17.0822 12.6388 16.888 12.3805 16.8737C12.3702 16.8724 12.3553 16.8724 12.3316 16.8724C12.1816 16.8724 11.723 16.9022 11.15 17.2013C10.577 17.4965 9.90312 18.0544 9.2975 19.0617C8.6043 20.2048 8.43359 21.1758 8.43359 21.84C8.43359 22.4277 8.5657 22.776 8.57906 22.8109C8.66219 23.0246 8.93086 23.1385 9.17578 23.0647C9.42219 22.9922 9.55281 22.7592 9.4682 22.5455Z" fill="#040606"/>
    <path d="M12.0078 16.4232C12.1206 17.0693 12.7262 17.5703 13.4521 17.4965Z" fill="#F57C8F"/>
    <path d="M11.5408 16.4854C11.6076 16.8725 11.8125 17.222 12.1197 17.4822C12.4255 17.7438 12.8441 17.9134 13.3087 17.9134C13.3725 17.9134 13.4379 17.9095 13.5032 17.903C13.7615 17.8771 13.9455 17.6751 13.9173 17.4499C13.8876 17.2259 13.6546 17.0641 13.3963 17.09C13.3651 17.0926 13.3354 17.0938 13.3087 17.0938C13.1083 17.0938 12.9302 17.0252 12.7758 16.8958C12.6229 16.7676 12.5072 16.5773 12.4686 16.3611C12.43 16.1384 12.1895 15.9856 11.9342 16.0193C11.6774 16.053 11.5008 16.2614 11.5408 16.4854Z" fill="#040606"/>
    <path d="M8.34958 23.9295C8.1195 22.9961 9.98833 21.9345 10.6444 22.8576Z" fill="#F57C8F"/>
    <path d="M8.81133 23.8428C8.80539 23.8182 8.80242 23.7936 8.80093 23.7665C8.80093 23.6914 8.82914 23.5982 8.89148 23.4972C8.98203 23.347 9.15421 23.189 9.35015 23.079C9.5446 22.9677 9.75835 22.9094 9.90827 22.912C9.98992 22.912 10.0523 22.9249 10.1027 22.9482C10.1517 22.9715 10.1977 23.0039 10.2482 23.0725C10.3848 23.2641 10.6742 23.3237 10.8954 23.2046C11.1151 23.0855 11.1833 22.833 11.0453 22.6401C10.9176 22.4589 10.7395 22.3139 10.5376 22.2232C10.3358 22.1313 10.1176 22.0925 9.90827 22.0938C9.64999 22.0938 9.40062 22.1482 9.17054 22.2362C8.82468 22.3695 8.51594 22.5754 8.27547 22.833C8.15672 22.9625 8.0543 23.1036 7.98156 23.2603C7.90734 23.4169 7.86281 23.5878 7.86133 23.7665C7.86133 23.8493 7.87172 23.9335 7.8925 24.0163C7.94742 24.2377 8.19828 24.3775 8.45211 24.3296C8.70445 24.2817 8.86625 24.0642 8.81133 23.8428Z" fill="#040606"/>
    <path d="M19.1738 13.5815C16.8611 9.54865 23.8971 6.05571 26.7352 9.20428Z" fill="#F57C8F"/>
    <path d="M19.5934 13.3989C19.3055 12.8966 19.1852 12.4189 19.1838 11.9657C19.1838 11.479 19.3263 11.0181 19.5801 10.5908C19.9586 9.95257 20.5924 9.39847 21.3435 9.00878C22.0946 8.6178 22.9585 8.39512 23.7749 8.39512C24.2752 8.39512 24.7546 8.47668 25.1925 8.64757C25.6289 8.82106 26.0267 9.08128 26.3652 9.45672C26.527 9.63538 26.8224 9.66516 27.0257 9.52664C27.2291 9.38681 27.2647 9.12918 27.1059 8.95181C26.6754 8.47409 26.1499 8.12583 25.5784 7.90186C25.007 7.67789 24.3924 7.5769 23.7749 7.5769C22.4271 7.5782 21.0704 8.05204 20.0254 8.82882C19.5029 9.21722 19.0605 9.68458 18.7444 10.2154C18.4297 10.7449 18.2441 11.3391 18.2441 11.9657C18.2441 12.5496 18.4045 13.1581 18.7518 13.764C18.8676 13.966 19.1511 14.0488 19.3827 13.9478C19.6157 13.8469 19.7092 13.6009 19.5934 13.3989Z" fill="#040606"/>
    <path d="M20.9397 8.74983C18.7161 9.36868 17.3727 7.48756 17.9902 5.53394Z" fill="#F57C8F"/>
    <path d="M20.7946 8.36018C20.5408 8.43009 20.3107 8.45986 20.1029 8.45986C19.8268 8.45986 19.5878 8.40808 19.3755 8.31616C19.0594 8.17634 18.7952 7.94201 18.6052 7.62482C18.4166 7.31022 18.3083 6.91535 18.3083 6.48424C18.3083 6.21366 18.3498 5.93013 18.4419 5.64272C18.5102 5.42522 18.3632 5.19995 18.1138 5.1391C17.863 5.07955 17.6047 5.20772 17.5364 5.42522C17.4221 5.78254 17.3672 6.13986 17.3672 6.48424C17.3687 7.21701 17.6121 7.90187 18.0827 8.42232C18.3172 8.68125 18.6111 8.89616 18.954 9.04634C19.2954 9.19652 19.6873 9.27937 20.1029 9.27808C20.4161 9.27808 20.7441 9.23277 21.0796 9.13955C21.3275 9.07094 21.4641 8.84049 21.3854 8.62428C21.3067 8.40937 21.041 8.29027 20.7946 8.36018Z" fill="#040606"/>
    <path d="M26.1632 11.1682C25.6259 9.96939 27.0568 8.08957 28.8885 8.98287Z" fill="#F57C8F"/>
    <path d="M26.6009 11.0194C26.5474 10.899 26.5177 10.7618 26.5177 10.6155C26.5163 10.275 26.678 9.88662 26.9438 9.60828C27.0759 9.46845 27.2317 9.35453 27.398 9.27814C27.5657 9.20176 27.7438 9.15903 27.9383 9.15903C28.1491 9.15903 28.3866 9.20694 28.6582 9.34028C28.8853 9.45033 29.1718 9.38042 29.298 9.18234C29.4256 8.98555 29.344 8.73569 29.1184 8.62564C28.725 8.43403 28.3227 8.34082 27.9383 8.34082C27.5835 8.34082 27.2495 8.41979 26.9601 8.55444C26.5237 8.75511 26.1838 9.071 25.9477 9.43091C25.7132 9.79212 25.5796 10.2012 25.5781 10.6155C25.5781 10.8511 25.6227 11.0906 25.7251 11.3159C25.8186 11.5269 26.0917 11.6318 26.3337 11.5489C26.5756 11.4674 26.6944 11.2305 26.6009 11.0194Z" fill="#040606"/>
    <path d="M23.3011 29.8164C23.3011 31.9007 21.3595 33.5902 18.9652 33.5902C16.5709 33.5902 14.6309 31.9007 14.6309 29.8164C14.6309 27.732 16.5709 26.0425 18.9652 26.0425C21.3595 26.0425 23.3011 27.732 23.3011 29.8164Z" fill="#231F20"/>
    <path d="M22.4743 28.7236C22.4743 29.3968 21.8479 29.9419 21.076 29.9419C20.3027 29.9419 19.6777 29.3968 19.6777 28.7236C19.6777 28.0504 20.3027 27.5054 21.076 27.5054C21.8479 27.5054 22.4743 28.0504 22.4743 28.7236Z" fill="white"/>
    <path d="M19.7967 30.1478C19.7967 30.474 19.4924 30.7407 19.1169 30.7407C18.7398 30.7407 18.4355 30.474 18.4355 30.1478C18.4355 29.8189 18.7398 29.5548 19.1169 29.5548C19.4924 29.5548 19.7967 29.8189 19.7967 30.1478Z" fill="white"/>
    <path d="M51.0008 29.8164C51.0008 31.9007 49.0607 33.5902 46.6664 33.5902C44.2736 33.5902 42.332 31.9007 42.332 29.8164C42.332 27.732 44.2736 26.0425 46.6664 26.0425C49.0607 26.0425 51.0008 27.732 51.0008 29.8164Z" fill="#231F20"/>
    <path d="M50.177 28.7236C50.177 29.3968 49.5506 29.9419 48.7787 29.9419C48.0053 29.9419 47.3789 29.3968 47.3789 28.7236C47.3789 28.0504 48.0053 27.5054 48.7787 27.5054C49.5506 27.5054 50.177 28.0504 50.177 28.7236Z" fill="white"/>
    <path d="M47.4979 30.1478C47.4979 30.474 47.1936 30.7407 46.8181 30.7407C46.441 30.7407 46.1367 30.474 46.1367 30.1478C46.1367 29.8189 46.441 29.5548 46.8181 29.5548C47.1936 29.5548 47.4979 29.8189 47.4979 30.1478Z" fill="white"/>
    <path d="M44.6719 23.0919C44.8842 22.6271 45.1855 22.3177 45.5313 22.1157C45.8757 21.9151 46.2691 21.8205 46.6758 21.8205C47.1805 21.8192 47.7 21.9707 48.1216 22.2439C48.5416 22.5171 48.8608 22.9029 48.9944 23.3858C49.0523 23.5994 49.2987 23.7301 49.5436 23.6796C49.7885 23.6279 49.9399 23.4142 49.8806 23.2006C49.6965 22.5261 49.2423 21.9785 48.6649 21.6056C48.0874 21.2328 47.3868 21.0256 46.6758 21.0256C46.1058 21.0256 45.5269 21.1616 45.0222 21.4568C44.516 21.7506 44.093 22.2025 43.8228 22.7993C43.7308 23.0038 43.8451 23.2343 44.0796 23.3146C44.3142 23.3961 44.5784 23.2964 44.6719 23.0919Z" fill="#231F20"/>
    <path d="M21.5296 22.7993C21.2594 22.2025 20.8349 21.7506 20.3302 21.4568C19.8255 21.1616 19.2466 21.0256 18.6766 21.0256C17.9656 21.0256 17.2635 21.2328 16.6861 21.6056C16.1087 21.9785 15.6559 22.5274 15.4719 23.2006C15.4125 23.4142 15.5639 23.6279 15.8088 23.6796C16.0538 23.7301 16.3002 23.5994 16.3595 23.3858C16.4916 22.9029 16.8108 22.5171 17.2323 22.2439C17.6509 21.9707 18.172 21.8192 18.6766 21.8205C19.0834 21.8205 19.4767 21.9151 19.8226 22.1157C20.1655 22.3177 20.4683 22.6271 20.6805 23.0919C20.7741 23.2964 21.0383 23.3961 21.2728 23.3146C21.5073 23.2343 21.6216 23.0038 21.5296 22.7993Z" fill="#231F20"/>
    <path d="M50.1757 35.6137C50.1757 36.0565 48.5399 36.4164 46.5227 36.4164C44.5069 36.4164 42.8711 36.0565 42.8711 35.6137C42.8711 35.1709 44.5069 34.811 46.5227 34.811C48.5399 34.811 50.1757 35.1709 50.1757 35.6137Z" fill="#E196B4"/>
    <path d="M22.6191 35.6137C22.6191 36.0565 20.9833 36.4164 18.966 36.4164C16.9488 36.4164 15.3145 36.0565 15.3145 35.6137C15.3145 35.1709 16.9488 34.811 18.966 34.811C20.9833 34.811 22.6191 35.1709 22.6191 35.6137Z" fill="#E196B4"/>
    <path d="M35.6314 33.4037C35.6314 33.4037 35.9668 37.8211 32.6196 37.8948C29.2723 37.9673 29.4831 33.6355 29.4831 33.6355C29.4831 33.6355 32.1936 33.7533 32.5602 32.86C33.5622 34.0187 35.6314 33.4037 35.6314 33.4037Z" fill="#EF3643"/>
    <path d="M35.6299 33.4038L35.1742 33.4297L35.1757 33.4323C35.1757 33.453 35.1831 33.5617 35.1831 33.7326C35.1861 34.2181 35.1223 35.2072 34.7497 36.0293C34.5641 36.4423 34.3073 36.8061 33.9674 37.0624C33.626 37.3175 33.2074 37.4819 32.6063 37.4974C32.5825 37.4974 32.5573 37.4974 32.5335 37.4974C32.2233 37.4974 31.962 37.4534 31.7349 37.3783C31.3386 37.2463 31.0343 37.0184 30.7849 36.7168C30.4123 36.2675 30.1867 35.6513 30.0709 35.0881C29.9507 34.525 29.9344 34.0188 29.9344 33.7857C29.9344 33.7417 29.9344 33.708 29.9359 33.6847L29.9373 33.6601V33.655L29.4816 33.6355L29.4579 34.033C29.4653 34.033 29.59 34.0369 29.7904 34.0369C30.1704 34.0369 30.8116 34.02 31.4336 33.9035C31.7453 33.844 32.0526 33.7624 32.3287 33.6265C32.4667 33.5592 32.5988 33.4763 32.7146 33.3727C32.8289 33.2692 32.9284 33.1423 32.9877 32.9947L32.5588 32.86L32.1951 33.0996C32.492 33.4452 32.8794 33.6679 33.2698 33.7961C33.6616 33.9242 34.0565 33.9644 34.4113 33.9644C35.1638 33.9631 35.7502 33.787 35.7769 33.7792L35.6299 33.4038L35.1742 33.4297L35.6299 33.4038L35.483 33.0271L35.5394 33.1695L35.4845 33.0271H35.483L35.5394 33.1695L35.4845 33.0271C35.4785 33.0296 34.9783 33.1708 34.4113 33.1695C34.1352 33.1695 33.8472 33.1371 33.5919 33.053C33.3351 32.9675 33.1109 32.8367 32.9239 32.6218C32.823 32.5053 32.6567 32.4458 32.4905 32.4678C32.3242 32.4898 32.1847 32.5882 32.1298 32.7267C32.1179 32.7552 32.0971 32.785 32.057 32.8199C31.9902 32.8834 31.8566 32.9571 31.677 33.0167C31.4069 33.1086 31.0447 33.1695 30.6973 33.2018C30.35 33.2355 30.016 33.2433 29.7904 33.2433C29.6998 33.2433 29.6271 33.242 29.5766 33.2407C29.5514 33.2407 29.5321 33.2394 29.5202 33.2394H29.5039C29.3822 33.2329 29.2649 33.2692 29.1744 33.3417C29.0838 33.4129 29.0304 33.5113 29.0259 33.6161C29.0259 33.6213 29.0215 33.6821 29.0215 33.7857C29.023 34.1896 29.0601 35.2512 29.495 36.265C29.7132 36.7712 30.0353 37.2722 30.5326 37.6567C30.782 37.8496 31.0744 38.0101 31.4098 38.1215C31.7453 38.2328 32.1223 38.2937 32.5335 38.2937C32.5647 38.2937 32.5959 38.2924 32.6285 38.2911C33.4227 38.2768 34.0802 38.0334 34.5656 37.6619C34.9308 37.3861 35.2054 37.0443 35.4117 36.6857C35.7234 36.1458 35.8897 35.5594 35.9832 35.0312C36.0767 34.5042 36.096 34.0356 36.096 33.7326C36.096 33.5164 36.0856 33.3844 36.0856 33.3779C36.0752 33.2549 36.001 33.1423 35.8838 33.0724C35.765 33.005 35.6166 32.9869 35.483 33.0271L35.6299 33.4038Z" fill="#231F20"/>
    <path d="M32.9575 33.8012L32.5597 35.8532L32.0446 33.8219C31.9882 33.6031 32.147 33.3869 32.3979 33.339C32.6487 33.2911 32.8966 33.4283 32.9515 33.6471C32.9649 33.6989 32.9664 33.752 32.9575 33.8012Z" fill="#231F20"/>
    <path d="M27.1339 32.6386C27.2289 32.8858 27.3877 33.1034 27.5881 33.2833C27.8879 33.5565 28.2739 33.7507 28.6969 33.8788C29.12 34.0083 29.5861 34.0705 30.0596 34.0717C30.5598 34.0705 31.0719 33.9992 31.5573 33.8491C32.0412 33.6989 32.4999 33.4671 32.8784 33.1435L32.5593 32.86L32.2283 33.1344C32.5415 33.4205 32.92 33.6225 33.3208 33.7507C33.7215 33.8788 34.1461 33.9345 34.5661 33.9345C35.197 33.9345 35.8234 33.8089 36.3697 33.5863C36.9129 33.3623 37.385 33.0425 37.6789 32.6179C37.808 32.4301 37.7368 32.1854 37.5215 32.0728C37.3048 31.9602 37.0243 32.0223 36.8951 32.21C36.7304 32.4547 36.4023 32.6955 35.9808 32.8664C35.5622 33.0386 35.0545 33.1422 34.5661 33.1409C34.2396 33.1409 33.9204 33.0956 33.6354 33.005C33.349 32.913 33.0981 32.7758 32.8903 32.5855C32.8057 32.5091 32.6884 32.4651 32.5667 32.4625C32.445 32.4612 32.3262 32.5026 32.2401 32.5764C31.9685 32.8082 31.6271 32.9842 31.2501 33.1021C30.873 33.2186 30.4604 33.2768 30.0596 33.2768C29.5534 33.2768 29.0665 33.1836 28.7014 33.0205C28.5173 32.9389 28.3644 32.8405 28.2472 32.7344C28.1299 32.6282 28.0468 32.513 27.9978 32.3848C27.9176 32.1764 27.6579 32.065 27.4204 32.135C27.1814 32.2062 27.0522 32.4314 27.1339 32.6386Z" fill="#231F20"/>
</svg>