<svg viewBox="0 0 152 198" fill="none" xmlns="http://www.w3.org/2000/svg">
    <g clip-path="url(#clip0_1017_1691)">
        <path d="M90.8353 77.1217C90.982 76.8261 91.4052 76.7443 91.6276 76.9986C94.1492 79.9128 93.6854 85.801 94.2378 89.4893C94.8726 93.7215 95.0687 98.2603 97.0271 102.095C97.6938 103.394 96.0242 105.002 95.045 103.779C92.6269 100.766 92.1656 96.7307 91.6807 92.9205C91.1041 88.4152 88.7878 81.2342 90.8353 77.1217Z" fill="#A6A6DB"/>
        <path d="M82.1439 95.9984C83.3038 97.0368 83.4371 99.0807 83.7836 100.557C84.3499 102.955 84.9353 105.342 85.5773 107.716C86.2182 110.087 86.9858 112.409 87.8281 114.706C88.4479 116.393 89.7443 117.496 90.4146 119.025C90.6771 119.623 90.6128 120.362 90.0223 120.722C86.6362 122.781 84.1774 114.921 83.4675 112.781C82.4976 109.84 81.767 106.805 81.0514 103.782C80.5876 101.826 79.23 98.6719 79.8874 96.6742C80.2365 95.6166 81.3263 95.2682 82.1439 95.9984Z" fill="#A6A6DB"/>
        <path d="M75.6916 113C77.1995 116.915 78.2878 120.714 80.3724 124.39C81.7392 126.802 85.6807 130.585 85.3559 133.522C85.3353 133.717 85.2225 133.881 85.0218 133.883C81.9889 133.901 79.3005 128.378 77.8667 126.004C75.7117 122.441 73.2168 117.726 73.1293 113.386C73.0963 111.698 75.1634 111.632 75.6916 113Z" fill="#A6A6DB"/>
        <path d="M103.349 68.4073C104.984 62.9746 102.131 58.4357 98.9456 54.526C97.4429 52.6866 95.6348 51.0339 95.4258 48.4587C95.2147 45.8599 96.6135 42.9639 97.2338 40.5025C98.5827 35.1653 96.806 30.4738 93.1626 26.7926C91.2567 24.8674 88.9915 23.1983 86.508 22.2527C85.2775 21.7846 83.9483 21.5011 82.6396 21.5764C82.1073 21.6066 81.5518 21.805 81.0374 21.6522C80.4588 21.4802 80.0016 20.8951 79.4945 20.5786C76.8658 18.9424 74.2881 18.0925 71.2017 18.2276C65.7075 18.4644 60.2632 23.1423 57.8857 28.2233C54.5759 35.2912 59.2258 41.87 59.4709 48.8686C59.5888 52.3756 56.3614 54.9046 54.3891 57.2627C52.1866 59.8862 50.9722 62.8356 50.8769 66.3574C50.7981 69.4375 52.8765 72.0863 54.4261 74.446C56.2893 77.2739 55.636 80.298 54.4647 83.2858C52.2947 88.846 49.3752 93.5485 50.4419 99.8246C51.5246 106.214 57.2613 110.253 62.5619 112.198C68.0082 114.201 74.2515 114.14 79.9187 113.506C87.9382 112.612 96.5466 109.153 100.721 101.334C103.411 96.2874 102.662 90.5266 101.021 85.278C100.04 82.144 99.1541 79.5716 100.256 76.3201C101.171 73.6241 102.529 71.1478 103.349 68.4073Z" fill="#483D9E"/>
        <path d="M68.7313 72.5681C68.4738 74.9329 68.3451 77.3635 68.4404 79.7398C68.7307 86.9746 68.0733 94.1694 67.3881 101.36C66.8079 100.432 66.2493 99.5389 65.5764 98.7433C65.5471 98.6384 65.5198 98.5461 65.4951 98.4939C65.1965 97.8742 64.7908 97.317 64.3774 96.7813C63.634 95.8204 62.7963 94.9419 62.0015 94.0298C60.2969 92.07 58.7514 90.0174 57.9158 87.4587C56.8681 84.2412 56.3173 80.3931 57.1168 77.0438C57.8844 73.8159 60.1625 71.3621 62.5894 69.4216C63.6921 68.5381 66.9221 65.7344 68.3734 67.2145C69.573 68.437 68.8955 71.06 68.7313 72.5681ZM107.044 22.5126C106.25 19.3875 105.145 16.1789 103.55 13.4147C103.011 12.4807 102.384 11.6021 101.657 10.8258C101.092 10.2236 100.487 9.75058 100.391 8.84402C100.299 7.97319 100.051 7.24957 99.6733 6.46939C98.7667 4.59641 97.4894 2.98218 96.2409 1.36356C95.1866 -0.00340271 93.3837 1.60258 94.4952 2.90692C94.5976 3.0278 94.6939 3.15196 94.7881 3.27779C94.3242 2.91022 93.8599 2.54153 93.4022 2.16573C92.2001 1.20863 90.6824 2.84811 91.7887 4.01674C91.8855 4.11839 91.9849 4.21455 92.0822 4.31509C91.8 4.17938 91.5102 4.05576 91.2049 3.95686C89.8365 3.51237 89.2831 5.65018 90.3936 6.36005C90.425 6.38037 90.4543 6.40236 90.4862 6.42268C89.0318 6.38368 89.0993 8.56984 90.3107 8.98465C91.2852 9.31926 92.3005 9.47859 93.3064 9.67584C93.0995 9.71704 92.9002 9.73517 92.7133 9.71814C91.6116 9.45772 90.9037 10.8654 91.4855 11.7725C91.988 12.5554 93.1494 12.3197 93.9144 12.3433C94.4952 12.3609 95.0707 12.4499 95.6504 12.356C96.2451 12.2598 96.9148 11.8417 97.5177 12.0983C98.0104 12.3082 98.1993 13.0048 98.3986 13.4757C98.7147 14.2213 99.0251 14.9591 99.2887 15.7283C99.8236 17.2821 100.433 18.8046 100.988 20.3495C102.418 24.3296 102.334 28.9393 102.046 33.1254C101.964 34.3182 101.849 35.5088 101.711 36.6966C100.912 43.609 96.8912 49.3329 91.3115 52.8058C89.8854 53.6942 88.2153 54.2931 86.5293 54.5327C86.4304 54.5442 86.328 54.5596 86.2291 54.5695C82.9729 54.9425 75.4796 52.0981 79.9411 47.7824C81.6925 46.0913 82.8308 43.6392 83.4558 41.2349C84.9009 35.6906 84.1899 27.669 79.5796 24.0159C77.4091 22.2978 74.8026 22.6764 72.5389 23.8906C69.3804 25.59 68.3873 29.5733 68.0306 32.994C67.9827 33.4655 67.9513 33.9402 67.9353 34.4176C67.4993 34.3407 67.0436 34.3731 66.6884 34.5237C65.8966 34.8594 65.3241 35.5736 65.162 36.4741C65.077 36.9488 65.1136 37.3647 65.1965 37.8306C65.2145 37.9713 65.2356 38.1131 65.2562 38.2537C65.3144 38.6064 65.5846 38.9449 65.7993 39.196C66.5082 40.024 67.5399 40.1849 68.5299 40.0877C68.3364 40.1069 70.1779 44.6738 70.3339 45.0155C71.3002 47.1539 73.4537 48.7499 73.6803 51.1784C74.122 55.8766 69.1812 56.0634 66.1911 57.4073C64.0752 58.36 62.0874 59.6143 60.2819 61.1329C56.4923 64.3251 53.4553 68.6145 51.9273 73.5247C50.9811 76.5542 50.1944 79.837 50.5234 83.0539C50.8761 86.5005 52.2074 89.6921 53.9223 92.603C56.6771 97.2808 60.1342 102.656 64.9488 105.112C65.6413 105.464 66.5211 105.243 67.0725 104.706C66.8568 107.019 66.6529 109.332 66.4912 111.647C66.2745 114.779 66.0614 117.913 65.839 121.047C65.059 132.1 63.4013 143.094 62.1883 154.099C61.6004 159.426 61.0274 164.769 60.249 170.067C59.8629 172.686 59.3038 174.61 57.9158 176.801C56.984 178.268 55.8477 179.968 55.7571 181.815C55.4879 187.311 62.6764 190.024 66.7929 191.089C68.2458 191.466 70.3452 191.401 70.946 189.628C71.9154 186.752 69.1436 184.237 67.6949 182.226C64.6456 177.988 66.3425 172.258 67.9729 167.796C70.4724 160.958 72.4061 153.996 74.3403 146.962C74.5323 146.265 74.7423 145.572 74.9642 144.884C75.321 142.001 76.3388 139.36 76.9741 136.519C77.6635 133.431 77.8174 130.253 78.5392 127.175C78.5696 127.045 78.6128 126.931 78.6643 126.823C78.9099 125.413 80.9722 125.233 81.3733 126.646C81.5077 126.845 81.5998 127.095 81.6142 127.411C81.676 128.722 81.709 130.032 81.7301 131.343C81.8454 133.812 81.8547 136.283 81.7193 138.743C81.6683 142.254 81.5916 145.763 81.6034 149.273C81.8892 151.979 82.1878 154.685 82.5121 157.394C83.3235 164.149 83.4619 170.852 83.9484 177.614C84.0967 179.626 82.5795 186.455 84.6152 188.428C86.6796 191.881 93.031 191.035 97.2011 189.92C97.3504 189.926 97.4971 189.932 97.6449 189.935C98.1793 189.952 98.6045 189.739 98.9216 189.412C99.1749 189.328 99.4133 189.244 99.63 189.165C100.27 188.934 100.72 188.215 100.499 187.488C99.5672 184.409 96.4659 184.113 93.8789 183.541C90.8023 182.863 90.6587 179.647 90.7539 176.927C90.8744 173.374 91.0685 169.826 91.2034 166.273C91.4598 159.476 91.8984 152.906 93.0207 146.195C95.4368 131.72 93.952 117.128 93.6802 102.554C93.4902 92.4848 93.2761 82.4111 92.5908 72.3659C92.4034 69.6265 90.8368 63.8855 92.5342 61.4835C93.1474 60.6104 94.0931 60.4961 94.9446 60.0368C96.294 59.3088 97.4358 58.2506 98.5885 57.2221C103.156 53.1519 106.338 48.1264 108.062 42.036C109.872 35.6319 108.643 28.7953 107.044 22.5126Z" fill="#FAB861"/>
        <path d="M69.2337 184.024C69.104 183.844 68.9516 183.729 68.7873 183.658C68.5176 184.325 67.8843 184.768 67.0812 184.998C65.7905 185.367 64.243 184.412 63.2288 183.688C61.1978 182.238 58.583 180.11 57.5369 177.498C55.7499 178.05 54.991 179.875 55.2392 181.695C55.651 184.714 57.5559 187.16 59.8736 188.81C62.1517 190.436 64.9745 192.228 67.7675 192.418C68.5562 192.47 69.3135 192.361 69.9714 191.987C72.976 190.276 70.6273 185.979 69.2337 184.024Z" fill="#39307D"/>
        <path d="M99.125 185.023C98.7157 184.748 98.2884 184.52 97.8771 184.34C97.3077 184.086 96.6544 183.845 96.0386 183.756C96.0057 183.753 95.9748 183.746 95.9403 183.742C95.8687 184.31 95.5619 184.869 95.0924 185.369C94.1431 186.375 92.3566 186.365 91.1411 186.276C88.7019 186.092 85.4415 185.636 83.3173 183.927C82.023 185.353 82.2176 187.341 83.2813 188.787C85.043 191.187 87.8359 192.295 90.6175 192.501C93.3492 192.7 96.6353 192.757 99.1456 191.439C99.8571 191.069 100.46 190.571 100.858 189.895C102.066 187.844 100.738 186.098 99.125 185.023Z" fill="#39307D"/>
        <path d="M83.9933 26.5499C83.8059 26.4862 83.6191 26.4434 83.4275 26.3972C83.2149 26.3554 83.0008 26.345 82.7876 26.3571C82.7598 26.3516 82.7315 26.3456 82.6872 26.3379C82.4576 26.2884 82.2337 26.0143 81.9644 25.7395C81.7574 25.528 81.3502 24.9808 80.9183 24.6467C80.9425 23.5781 80.5821 22.4781 79.7996 21.5584C78.3581 19.8662 74.9082 20.8491 73.2067 21.3617C70.5744 22.1545 68.1547 24.4363 66.7117 26.8439C65.5476 28.7878 65.1044 32.0316 66.2962 34.0578C67.767 36.5588 70.6851 36.7061 73.0677 35.9308C76.0182 34.9699 79.2734 31.6019 80.3926 28.0241C80.9023 29.163 81.3054 30.4272 82.5173 30.9217C83.6355 31.3789 84.8793 31.158 85.4807 29.9262C86.188 28.4768 85.335 27.0043 83.9933 26.5499Z" fill="#483D9E"/>
        <path d="M77.9947 150.421C78.353 149.143 79.396 141.681 79.7497 140.404C80.0251 143.839 79.6107 153.461 79.7415 156.911C79.8975 161.106 80.0437 165.308 80.5039 169.484C80.6012 170.34 80.6836 171.352 80.8277 172.383C85.1446 173.918 89.5293 173.879 93.6881 171.888C94.1241 170.026 94.2467 168.001 94.3687 166.293C94.692 161.723 95.4251 157.202 95.9322 152.663C96.5171 147.412 96.9603 142.053 97.2007 136.712C97.0252 132.832 96.8476 128.961 96.5145 125.083C96.0985 120.24 95.7108 115.388 95.0807 110.57C94.8027 108.449 94.3157 106.238 94.0742 104.036C93.1522 104.036 92.2296 104.03 91.307 104.059C87.8119 104.167 84.3208 104.381 80.8257 104.513C77.2518 104.646 73.665 104.334 70.1008 104.493C69.0732 104.539 67.9597 104.684 66.8811 104.637C66.826 105.647 66.6891 106.652 66.5424 107.677C66.5784 108.301 66.6016 108.917 66.5697 109.503C66.4703 111.303 66.2803 113.091 66.1356 114.887C65.8983 117.832 65.7876 120.787 65.559 123.733C65.4432 125.234 65.3001 126.741 65.105 128.238C64.8069 134.136 63.7294 140.138 62.833 145.78C62.0145 150.93 60.8916 156.021 60.0782 161.171C59.6797 163.709 59.3178 166.514 59.5613 169.185C61.4353 170.245 63.3396 171.334 65.4097 171.649C67.3846 171.948 69.3585 171.999 71.338 172.007C72.7141 169.568 73.5445 166.658 74.2946 164.077C75.6095 159.556 76.7261 154.96 77.9947 150.421Z" fill="#D8225A"/>
        <path d="M73.7106 38.6027C73.7621 39.101 73.4253 39.5515 72.9574 39.6076C72.4904 39.6647 72.0667 39.3048 72.0153 38.8049C71.9622 38.306 72.2994 37.8549 72.7674 37.7994C73.2364 37.7428 73.6575 38.1021 73.7106 38.6027Z" fill="#1D181B"/>
        <path d="M81.7685 38.7352C81.822 39.2346 81.4843 39.6857 81.0158 39.7423C80.5488 39.7972 80.1262 39.4373 80.0737 38.939C80.0217 38.4396 80.3578 37.989 80.8258 37.9324C81.2943 37.8764 81.7165 38.2374 81.7685 38.7352Z" fill="#1D181B"/>
        <path d="M73.0293 42.441L79.6597 42.8514C79.6597 42.8514 78.6378 45.8831 76.1322 45.676C73.6244 45.4705 73.0293 42.441 73.0293 42.441Z" fill="#1D181B"/>
        <path d="M77.7354 45.877C77.6757 47.0214 76.4571 47.8774 75.0187 47.7884C73.5797 47.6989 72.4641 46.6984 72.5259 45.5534C72.5892 44.4089 73.8057 43.5535 75.2447 43.6425C76.6836 43.7331 77.7992 44.7325 77.7354 45.877Z" fill="#EE2A30"/>
        <path d="M77.8213 39.1509C77.8115 39.1465 77.9114 39.2196 77.9773 39.3163C78.0643 39.4465 78.1348 39.586 78.2063 39.7926C78.28 39.9904 78.3129 40.2558 78.264 40.5283C78.2038 40.8041 78.0328 41.0381 77.8588 41.1783C77.499 41.4651 76.979 41.5151 76.6011 41.4557C76.216 41.4035 75.9586 41.2497 75.9586 41.2497C75.9226 41.2299 76.0271 40.9414 76.06 40.9414C76.06 40.9414 76.3025 41.0063 76.6217 40.9783C76.9394 40.9607 77.3142 40.8343 77.5046 40.6706C77.5994 40.5915 77.6874 40.4964 77.7394 40.3678C77.7791 40.2343 77.8007 40.0701 77.7724 39.9091C77.7548 39.7574 77.7065 39.5882 77.6828 39.5179C77.638 39.4118 77.6179 39.4058 77.6174 39.3937C77.6241 39.3525 77.7718 39.1272 77.8213 39.1509Z" fill="#1D181B"/>
        <path d="M106.541 134.202C106.136 130.939 105.55 127.697 104.697 124.452C102.782 117.166 100.23 110.118 98.2241 102.866C96.1628 95.4234 94.8381 88.005 94.2435 80.2702C93.8183 74.7408 93.0512 69.1163 93.2494 63.5457C91.8285 60.3057 90.7257 56.9361 90.2654 53.3785C90.0039 53.2978 89.7388 53.2308 89.4664 53.1906C89.2883 53.2703 89.1071 53.3478 88.9145 53.4137C87.473 53.9098 85.9625 53.9302 84.4644 53.8456C84.3995 58.7278 84.1364 65.6445 78.3071 65.3753C75.1141 65.2286 73.5007 62.3402 72.6425 59.4211C72.3212 58.3322 71.9346 56.8806 71.8486 55.5032C71.8043 55.4394 71.7652 55.368 71.7189 55.3087C71.5654 55.107 71.3013 55.1219 71.1026 55.2389C71.0686 55.2252 71.0336 55.2191 70.9986 55.2076C70.5255 55.5004 70.0014 55.7372 69.4644 55.9279C68.1444 56.6366 66.6489 57.1102 65.229 57.4509C65.8607 61.3156 65.6254 65.5648 64.2348 69.2361C64.2529 69.3361 64.2673 69.4388 64.2771 69.546C65.3685 81.7811 66.2483 94.1449 65.3299 106.428C64.9299 111.787 63.7813 116.605 61.3925 121.362C59.7538 124.624 57.7208 127.354 55.5605 130.047C55.6295 130.379 55.7835 130.699 56.0651 130.973C62.3866 137.181 70.9116 142.785 79.7985 141.796C88.3544 140.842 96.0408 134.284 104.898 136.431C105.544 136.588 106.325 136.11 106.424 135.378C106.475 134.985 106.512 134.593 106.541 134.202Z" fill="#39307D"/>
        <path d="M10.7051 148.601C10.7391 148.423 11.0778 146.829 12.3922 145.933C12.9657 145.542 13.9464 145.151 15.3576 145.506C16.7872 145.867 17.5044 146.689 17.8545 147.314C18.6349 148.712 18.2818 150.238 18.239 150.409L16.2503 149.837C16.2503 149.837 16.4289 149.04 16.0788 148.428C15.8647 148.055 15.4631 147.791 14.8839 147.645C14.3109 147.501 13.8615 147.545 13.5104 147.779C12.9096 148.18 12.7222 149.043 12.7206 149.051L10.7051 148.601Z" fill="#EE2159"/>
        <path d="M22.6096 165.119C21.825 168.662 18.4966 170.857 15.176 170.019L5.23883 167.512C1.91821 166.675 -0.137488 163.123 0.64762 159.579L2.12774 152.895C2.91234 149.352 6.24068 147.158 9.56079 147.996L19.4985 150.503C22.8186 151.34 24.8743 154.892 24.0897 158.435L22.6096 165.119Z" fill="#EE2159"/>
        <path d="M24.0065 157.614C23.3038 160.789 20.323 162.754 17.3478 162.004L6.65898 159.308C3.68432 158.558 1.8433 155.376 2.54604 152.201C3.24929 149.026 6.23013 147.062 9.2053 147.812L19.8941 150.508C22.8688 151.258 24.7098 154.44 24.0065 157.614Z" fill="#D8225A"/>
        <path d="M13.311 162.915C13.0875 163.924 12.1403 164.548 11.1945 164.31C10.2493 164.071 9.66396 163.06 9.88739 162.051L10.5196 159.199C10.7425 158.19 11.6898 157.566 12.6355 157.805C13.5813 158.042 14.1666 159.053 13.9427 160.063L13.311 162.915Z" fill="#A6A6DB"/>
        <path d="M13.7075 161.12C13.5695 161.742 12.6917 162.053 11.746 161.815C10.8007 161.576 10.1464 160.879 10.2839 160.257L10.6731 158.498C10.811 157.876 11.6888 157.565 12.6346 157.804C13.5803 158.042 14.2346 158.74 14.0972 159.362L13.7075 161.12Z" fill="#C4D4EF"/>
        <path d="M39.4679 88.8609C37.1672 87.1192 34.2198 85.8314 31.362 86.4269C30.2942 86.6489 29.2847 87.0264 28.3513 87.5329C27.1497 88.1862 26.1288 89.0345 25.2716 90.0098C24.2013 88.9411 22.6929 88.1461 21.622 87.6741C18.5665 86.3286 14.2322 86.5791 11.7724 89.0856C9.25127 91.6525 9.74293 95.6699 11.1088 98.7594C12.1353 101.082 14.3697 102.99 14.2852 105.758C14.2842 105.793 14.2796 105.823 14.2775 105.856C14.3522 108.029 11.8347 108.701 9.9813 108.316C9.92364 108.452 9.89224 108.6 9.91643 108.759C10.8467 114.875 19.6142 114.702 21.5031 109.345C22.63 106.149 20.7144 102.803 19.5462 99.9714C19.0067 98.6632 18.0445 96.1859 19.7089 95.4062C20.5738 95.0007 21.5988 95.4908 22.4087 96.0622C21.951 98.5687 22.1677 101.248 23.1171 103.737C24.0438 106.165 25.4008 108.668 27.3057 110.341C30.008 112.715 34.0937 114.917 37.6403 113.474C43.638 111.031 45.5259 103.417 44.3274 97.2638C43.6998 94.0382 42.0251 90.7965 39.4679 88.8609Z" fill="#EA5163"/>
        <path d="M67.6437 100.963C67.5948 100.971 67.5418 100.966 67.4929 100.974C67.758 100.859 68.0128 100.754 68.2435 100.681C69.4384 100.405 69.0487 98.4649 67.8496 98.705C67.5104 98.7726 67.1788 98.877 66.8514 98.9984C66.9626 98.8825 67.0779 98.7715 67.1855 98.6528C68.0031 97.7528 66.8571 96.3304 65.9638 97.1836C65.4964 97.6287 65.0057 98.0479 64.5182 98.4682C64.6016 98.3962 64.3936 97.7874 64.3437 97.6984C64.2268 97.482 64.0533 97.3468 63.8268 97.2831C62.9279 97.0309 62.5737 97.7391 62.3765 98.5413C62.1392 99.4984 62.1021 100.506 61.3448 101.203C59.6732 102.745 57.8754 104.255 56.0514 105.584C54.6094 106.636 53.0819 107.423 51.5323 108.264C50.3971 108.882 49.3406 109.634 48.1782 110.201C46.9359 110.809 45.6617 111.342 44.3916 111.881C43.2709 112.357 42.2005 112.909 41.0329 113.254C40.7297 113.344 37.3529 114.243 37.3323 114.145C37.322 114.098 37.3081 114.053 37.3092 113.997C37.3179 113.322 38.5942 112.931 39.005 112.671C39.8267 112.155 40.5356 111.482 41.1379 110.699C42.4023 109.061 43.156 107.052 43.8536 105.086C44.2876 103.847 44.6042 102.475 44.8122 101.174C45.3909 97.4358 44.1975 93.5849 41.0041 91.6438C34.1147 87.4527 28.2241 93.5777 27.0544 100.735C26.9293 100.714 26.8006 100.704 26.6703 100.713C25.5197 100.796 24.5678 101.747 24.5914 103.024C24.6131 104.215 25.6 105.327 26.7558 105.243C26.8819 105.233 27.0039 105.21 27.1244 105.181C27.2927 106.06 27.5393 106.92 27.8596 107.73C28.6225 109.652 29.7021 110.554 30.9593 112.03C32.0245 113.281 32.4724 114.462 30.5387 114.997C29.9508 115.16 29.3165 115.272 28.6575 115.347C28.6503 115.367 28.6416 115.386 28.6333 115.406C26.6533 115.821 25.0306 117.291 23.7255 119.23C22.7854 120.627 22.0729 122.202 21.3192 123.717C20.8667 124.626 20.147 125.631 19.7557 126.672C18.0537 129.698 16.4644 132.869 15.0939 136.079C14.2949 137.952 13.9526 139.967 13.3214 141.878C13.255 142.075 13.1845 142.221 13.1114 142.352C12.7113 143.044 12.2187 143.414 11.5447 143.795C11.0835 144.055 10.2819 144.478 10.5197 145.177C10.6325 145.512 11.0016 145.883 11.3496 145.85C11.0953 146.251 10.8523 146.701 10.8466 147.2C10.8384 147.881 11.4438 148.67 12.1538 148.269C12.4797 148.083 12.77 147.853 13.0357 147.593C12.978 147.957 12.9332 148.321 12.9168 148.689C12.8601 149.932 14.4 150.118 14.6811 148.942C14.7372 148.707 14.8401 148.451 14.9539 148.192C15.0337 148.578 15.182 148.936 15.478 149.218C16.0145 149.726 16.9659 149.294 17.0256 148.542C17.059 148.109 16.9571 147.69 16.919 147.26C16.885 146.87 16.8603 146.48 16.814 146.092C17.0935 146.412 17.3834 146.719 17.664 147.005C18.2828 147.637 19.1431 146.72 18.9521 146.005C18.7811 145.363 18.1798 144.825 17.7762 144.345C17.3067 143.788 17.0498 143.188 17.2979 142.46C17.6305 141.489 18.1561 140.539 18.6128 139.627C20.1547 136.559 21.9952 133.804 23.6498 130.855C24.2594 129.766 24.9209 128.709 25.6499 127.703C25.9161 127.337 26.1962 126.948 26.4839 126.552C29.0375 136.997 29.4504 148.072 29.2939 158.781C29.2403 162.416 29.1111 166.048 28.953 169.68C28.761 174.054 28.4439 178.423 28.3152 182.801C28.2791 184.031 28.2462 185.262 28.1705 186.49C28.0969 187.687 27.9512 189.149 26.9838 189.935C26.1256 190.634 25.1691 191.176 24.228 191.73C23.5381 192.139 22.6593 192.542 22.4307 193.434C22.1332 194.6 22.6166 195.52 23.7718 195.633C25.1181 195.763 26.4716 195.817 27.8009 195.462C28.6817 195.229 29.5544 194.941 30.4182 194.646C31.0788 194.419 31.902 194.22 32.4384 193.72C33.223 192.985 33.3054 191.488 33.4253 190.454C33.6266 188.718 33.6925 186.976 33.9793 185.25C34.2743 183.479 34.6918 181.734 35.0439 179.976C35.4862 177.761 35.6937 175.526 35.9634 173.283C36.1065 172.091 36.2522 170.897 36.4093 169.706C36.7372 167.226 37.1115 164.759 37.6227 162.314C37.86 161.185 38.2858 156.972 39.7948 156.815C40.1227 156.78 40.395 157.084 40.5829 157.333C41.1457 158.07 41.4829 159.032 41.714 159.939C42.1892 161.807 42.2608 163.725 42.2793 165.649C42.2901 166.679 42.2958 167.715 42.3478 168.745C42.5661 173.158 42.6119 177.607 42.703 182.026C42.7282 183.296 42.7154 184.569 42.616 185.835C42.4739 187.7 41.7526 190.029 42.2783 191.867C42.5887 192.952 43.6065 193.469 44.5456 193.789C45.7992 194.216 47.1171 194.375 48.4232 194.489C49.754 194.604 52.1269 194.92 52.8214 193.328C53.3583 192.097 52.15 191.247 51.195 190.933C50.5268 190.714 49.7551 190.544 49.145 190.159C47.8384 189.335 47.7689 188.319 47.9522 186.757C48.5612 181.574 49.3962 176.414 50.1077 171.239C50.7255 164.383 51.2723 157.508 51.5817 150.646C51.7001 148.02 51.698 145.383 51.4643 142.763C50.9948 137.501 50.448 132.16 48.6204 127.204C47.8569 125.13 47.1537 122.653 45.8815 120.861C45.5706 120.423 45.0748 119.524 45.3538 118.965C45.5423 118.591 46.0998 118.316 46.4365 118.127C46.5544 118.061 46.6759 118.006 46.7953 117.948C46.8067 117.943 46.8149 117.937 46.8262 117.933C49.0055 117.002 50.8892 115.466 52.7462 113.966C55.099 112.064 57.479 110.312 59.6711 108.189C60.7615 107.133 61.7134 105.912 62.8703 104.93C63.8721 104.082 64.8446 104.414 65.9685 104.639C66.7706 104.8 67.4126 104.513 67.3137 103.505C67.3039 103.405 67.2622 103.315 67.2236 103.224C67.5361 103.19 67.8332 103.143 68.0643 103.068C69.2999 102.672 68.9416 100.732 67.6437 100.963Z" fill="#FAB861"/>
        <path d="M25.4986 192.243C25.1711 192.027 24.9292 191.739 24.8592 191.367C24.8478 191.354 24.8334 191.345 24.8226 191.331C22.3128 191.828 19.4931 195.349 22.9713 196.373C24.7964 196.912 26.8891 195.916 28.6962 195.644C30.6767 195.347 32.8323 194.987 33.4979 192.765C33.5906 192.452 33.5371 192.158 33.4017 191.903C30.7318 193.128 27.1481 194.142 25.4986 192.243Z" fill="#1D181B"/>
        <path d="M50.0082 191.438C50.3407 191.214 50.5863 190.916 50.6574 190.535C50.6697 190.522 50.6841 190.512 50.6954 190.499C53.249 191.009 56.1166 194.631 52.5797 195.687C50.7222 196.241 48.5934 195.215 46.755 194.936C44.7389 194.629 42.5473 194.259 41.8703 191.973C41.7745 191.652 41.8296 191.348 41.9676 191.087C44.6833 192.348 48.3288 193.391 50.0082 191.438Z" fill="#1D181B"/>
        <path d="M33.0117 103.482C33.0266 103.983 32.658 104.403 32.1859 104.42C31.7164 104.437 31.3215 104.042 31.3071 103.539C31.2917 103.038 31.6603 102.617 32.1313 102.601C32.6034 102.584 32.9962 102.978 33.0117 103.482Z" fill="#1D181B"/>
        <path d="M41.0341 104.296C41.0491 104.797 40.6794 105.219 40.2084 105.236C39.7389 105.251 39.344 104.856 39.3285 104.356C39.3141 103.853 39.6832 103.432 40.1538 103.416C40.6249 103.4 41.0187 103.795 41.0341 104.296Z" fill="#1D181B"/>
        <path d="M32.0449 107.25L38.6239 108.221C38.6239 108.221 37.3796 111.156 34.8971 110.738C32.4125 110.32 32.0449 107.25 32.0449 107.25Z" fill="#1D181B"/>
        <path d="M36.4816 111.074C36.3369 112.21 35.0586 112.961 33.6315 112.749C32.2039 112.539 31.1655 111.446 31.3127 110.31C31.4605 109.174 32.7373 108.426 34.1649 108.636C35.593 108.847 36.6309 109.939 36.4816 111.074Z" fill="#EE2A30"/>
        <path d="M37.0685 104.376C37.0587 104.371 37.1529 104.452 37.2116 104.554C37.2888 104.692 37.3491 104.837 37.4052 105.048C37.4633 105.252 37.4773 105.519 37.4083 105.786C37.3285 106.056 37.14 106.275 36.9562 106.4C36.5763 106.656 36.0538 106.662 35.6815 106.571C35.3011 106.486 35.057 106.311 35.057 106.311C35.0215 106.288 35.1471 106.01 35.1806 106.012C35.1806 106.012 35.4174 106.097 35.7376 106.096C36.0558 106.106 36.4383 106.012 36.6407 105.865C36.741 105.794 36.8363 105.706 36.897 105.583C36.9465 105.453 36.9804 105.291 36.9645 105.128C36.9578 104.975 36.9223 104.802 36.9032 104.731C36.8661 104.621 36.8466 104.613 36.8466 104.602C36.8569 104.561 37.0211 104.349 37.0685 104.376Z" fill="#1D181B"/>
        <path d="M44.8253 102.924C45.5568 101.818 45.7535 99.6303 45.7664 98.8919C45.8173 96.097 44.3851 93.1246 42.3747 91.373C41.134 90.2934 39.3882 89.5077 37.8133 89.205C32.1482 88.1177 26.1371 93.0554 26.3554 99.4243C26.3677 99.7875 26.5165 100.097 26.7333 100.332C26.7811 100.812 27.0648 101.234 27.6512 101.36C31.2998 102.142 35.0611 100.18 37.2836 97.031C38.4136 99.843 41.03 102.358 43.237 103.43C43.9372 103.77 44.452 103.488 44.8253 102.924Z" fill="#EA5163"/>
        <path d="M52.0431 146.072C51.8675 144.628 51.9566 143.059 51.8855 141.706C51.8742 141.482 51.8619 141.258 51.8505 141.033C51.7553 139.809 51.6544 138.586 51.5241 137.365C51.1704 134.073 50.4502 130.995 49.6399 127.81C49.2398 126.239 48.8512 124.677 48.2241 123.186C47.875 122.356 47.5543 121.549 47.5929 120.625C47.6099 120.211 47.8848 119.76 48.2529 119.382C48.255 119.379 48.2565 119.377 48.2596 119.374C48.2637 119.369 48.2694 119.365 48.274 119.36C48.3477 119.286 48.4228 119.215 48.5026 119.148C48.7883 118.881 49.0916 118.634 49.4077 118.401C49.4937 118.136 49.539 117.859 49.5354 117.573C49.3696 115.013 47.8493 112.388 45.93 110.81C45.7849 110.786 45.635 110.784 45.4837 110.786C44.5452 111.351 43.5176 111.628 42.4699 112.019C42.2336 112.107 41.9978 112.194 41.762 112.279C41.102 112.617 40.4652 112.969 39.8839 113.245C39.2234 113.558 38.5474 113.781 37.8607 113.948C37.4071 115.36 36.3023 117.799 34.5756 117.478C33.1284 117.209 32.1065 115.91 31.1772 114.69C30.7849 114.737 30.3931 114.793 30.006 114.864C25.4765 115.698 20.8807 118.564 19.9808 123.71C19.919 124.075 19.9756 124.501 20.3185 124.705C20.6686 124.911 21.0326 125.161 21.4074 125.424C21.445 125.442 21.4815 125.463 21.5201 125.481C22.853 126.113 24.1838 127.002 25.5862 127.424C25.6197 127.424 25.6516 127.428 25.684 127.427C25.6866 127.438 25.6881 127.449 25.6897 127.46C25.8349 127.33 26.0882 127.339 26.1371 127.592C26.2194 128.01 26.2853 128.439 26.36 128.862C26.3631 128.873 26.3693 128.879 26.3713 128.891C26.3986 129.046 26.4197 129.2 26.447 129.355C26.5474 129.947 26.6467 130.538 26.7363 131.136C27.2542 134.456 27.6563 137.793 28.0996 141.125C28.5171 144.256 28.5475 147.319 28.5398 150.451C28.6834 150.554 28.8523 150.614 29.0443 150.604C34.3496 150.329 39.7321 149.561 45.042 149.645C47.6259 149.69 50.7035 150.041 52.0817 147.874C51.9751 147.289 51.9854 146.683 52.0431 146.072Z" fill="#FF8E8E"/>
        <path d="M39.6023 171.64C43.6658 172.393 47.7098 171.815 51.4114 169.601C53.6102 168.284 55.6025 166.694 57.4642 164.795C57.6258 164.631 57.7839 164.458 57.9399 164.279C57.9337 164.256 57.928 164.23 57.9218 164.206C57.0956 161.127 55.9681 158.204 55.079 155.162C53.8892 151.096 52.5393 146.368 52.2315 141.836C49.3212 142.811 46.1931 143.059 43.186 143.412C38.3219 143.988 33.3029 144.557 28.393 144.628C28.1196 149.539 26.901 154.385 25.5851 159.047C24.799 161.827 23.8821 164.547 23.1418 167.339C22.8663 168.367 22.526 169.409 22.1914 170.461C27.7062 168.421 33.6864 170.543 39.6023 171.64Z" fill="#39307D"/>
        <path d="M27.7872 115.007C26.6118 115.225 25.559 115.69 24.5664 116.402C24.6071 116.75 24.7312 117.084 24.8789 117.407C26.0908 121.377 25.7541 126.244 24.8079 130.281C24.5072 131.562 25.5054 132.646 26.4795 132.407C26.9547 132.372 27.4021 132.052 27.5987 131.426C28.338 129.082 29.0181 127.032 29.1339 124.459C29.1509 124.076 29.1638 123.43 29.1514 122.642C29.1144 120.294 28.8472 116.687 27.7872 115.007Z" fill="#EE2159"/>
        <path d="M51.1302 124.542C50.2951 122.105 49.5944 119.947 48.0762 117.815C47.8502 117.497 47.4564 116.975 46.9493 116.359C45.6869 114.822 43.7295 112.71 41.9678 111.765C41.9045 111.76 41.8406 111.762 41.7773 111.76C41.5534 111.906 41.3104 112.026 41.0643 112.144C41.0406 112.155 41.0221 112.164 41.0061 112.17C40.9809 112.185 40.9495 112.201 40.9129 112.22C40.6926 112.337 40.4722 112.452 40.2503 112.563C39.9914 112.693 39.735 112.824 39.4812 112.967C39.458 112.98 39.4338 112.988 39.4102 113.001C39.577 113.158 39.7448 113.314 39.8987 113.486C40.0233 113.587 40.1464 113.691 40.2632 113.803C40.3111 113.849 40.3533 113.9 40.3986 113.948C41.3171 114.648 42.1825 115.45 42.9712 116.339C43.4315 116.793 43.8716 117.266 44.2912 117.754C44.3375 117.798 44.3839 117.837 44.4282 117.891C46.5935 120.534 48.2281 123.553 49.3973 126.815C49.9188 126.855 50.4475 126.649 50.7806 126.193C51.1688 125.793 51.3541 125.192 51.1302 124.542Z" fill="#EE2159"/>
        <path d="M26.1599 89.7961C26.3952 88.6 25.0309 87.8336 24.322 88.8692C23.2182 90.4812 22.3435 92.1971 21.7474 94.063C21.5461 94.4673 21.3448 94.8728 21.1327 95.2706C20.2672 96.8942 22.6792 98.0996 23.2769 96.3524C23.713 95.0772 24.2077 93.8322 24.7761 92.6174C24.7931 92.5812 24.8137 92.5443 24.8317 92.5081C25.1082 92.0405 25.4176 91.5581 25.659 91.051C25.8819 90.6455 26.0745 90.2307 26.1599 89.7961Z" fill="#EE2159"/>
        <path d="M145.787 8.56341L144.839 20.4673L50.0664 11.8726L51.0147 -0.0318184L145.787 8.56341Z" fill="#39307D"/>
        <path d="M149.174 8.86993L148.227 20.7749L135.043 19.5788L135.991 7.67492L149.174 8.86993Z" fill="#1D181B"/>
        <path d="M152.022 9.12813L151.074 21.032L142.66 20.2705L143.609 8.36497L152.022 9.12813Z" fill="#D8225A"/>
        <path d="M31.2988 4.45236L49.9993 11.8784L50.9435 0.0245457L31.2988 4.45236Z" fill="#FAB861"/>
        <path d="M56.0023 10.3204L50.3191 7.8222L49.9922 11.9242L56.0023 10.3204Z" fill="#FAB861"/>
        <path d="M56.3142 6.39855L50.6316 3.90086L50.3047 8.00122L56.3142 6.39855Z" fill="#FAB861"/>
        <path d="M56.6267 2.4768L50.9431 -0.0214581L50.6172 4.07947L56.6267 2.4768Z" fill="#FAB861"/>
        <path d="M39.7785 2.54092L31.2988 4.45237L39.3713 7.65662L39.7785 2.54092Z" fill="#1E171A"/>
    </g>
    <defs>
        <clipPath id="clip0_1017_1691">
            <rect width="152" height="198" fill="white"/>
        </clipPath>
    </defs>
</svg>