<svg viewBox="0 0 148 172" fill="none" xmlns="http://www.w3.org/2000/svg">
    <g clip-path="url(#clip0_1019_3310)">
        <path d="M105.062 54.7607V100.4C105.062 117.647 91.1753 131.626 74.0419 131.626C56.9084 131.626 43.0195 117.647 43.0195 100.4V54.7607C43.0195 46.8 49.4299 40.3472 57.3382 40.3472H90.7455C98.6538 40.3472 105.062 46.8 105.062 54.7607Z" fill="#EFBE9A"/>
        <path d="M78.8147 117.214C78.8147 117.529 78.7855 117.842 78.7233 118.151C78.6629 118.461 78.5715 118.761 78.4526 119.052C78.3319 119.344 78.1856 119.621 78.0118 119.884C77.8362 120.145 77.6387 120.388 77.4174 120.611C77.1961 120.834 76.9547 121.033 76.695 121.208C76.4335 121.384 76.1591 121.532 75.8701 121.653C75.5793 121.773 75.2812 121.865 74.974 121.926C74.6667 121.988 74.3558 122.018 74.043 122.018C73.7303 122.018 73.4194 121.988 73.1121 121.926C72.8049 121.865 72.5067 121.773 72.2159 121.653C71.927 121.532 71.6526 121.384 71.3911 121.209C71.1314 121.033 70.89 120.834 70.6687 120.611C70.4474 120.388 70.248 120.145 70.0743 119.884C69.9005 119.621 69.7542 119.344 69.6335 119.052C69.5128 118.761 69.4232 118.461 69.3628 118.151C69.3006 117.842 69.2695 117.529 69.2695 117.214C69.2695 116.898 69.3006 116.587 69.3628 116.277C69.4232 115.968 69.5128 115.666 69.6335 115.375C69.7542 115.084 69.9005 114.808 70.0743 114.545C70.248 114.283 70.4474 114.04 70.6687 113.818C70.89 113.593 71.1314 113.394 71.3911 113.219C71.6526 113.044 71.927 112.897 72.2159 112.776C72.5067 112.654 72.8049 112.564 73.1121 112.501C73.4194 112.44 73.7303 112.409 74.043 112.409C74.3558 112.409 74.6667 112.44 74.974 112.501C75.2812 112.564 75.5793 112.654 75.8701 112.776C76.1591 112.897 76.4335 113.044 76.695 113.219C76.9547 113.394 77.1961 113.593 77.4174 113.818C77.6387 114.04 77.8362 114.283 78.0118 114.545C78.1856 114.808 78.3319 115.084 78.4526 115.375C78.5715 115.666 78.6629 115.968 78.7233 116.277C78.7855 116.587 78.8147 116.898 78.8147 117.214Z" fill="#4D5D7A"/>
        <path d="M105.063 150.843H133.942C140.398 150.843 145.631 145.576 145.631 139.079C145.631 137.337 145.246 135.614 144.504 134.04L119.382 90.7917L108.849 97.8154L121.768 131.626L105.063 126.823L93.1328 124.42" fill="#EFBE9A"/>
        <path d="M43.0189 150.843H14.14C7.6857 150.843 2.45312 145.576 2.45312 139.079C2.45312 137.337 2.8372 135.614 3.57975 134.04L28.702 90.7917L39.2348 97.8154L26.3152 131.626L43.0189 126.823L54.9508 124.42" fill="#EFBE9A"/>
        <path d="M43.0195 126.823V172.462H105.062V126.823" fill="#C66B60"/>
        <path d="M43.0195 166.074C46.8127 167.087 50.8071 167.657 54.9515 167.657C78.6728 167.657 97.904 149.913 97.904 128.023C97.904 127.618 97.8528 127.226 97.8382 126.823H43.0195V166.074Z" fill="#E47C6E"/>
        <path d="M126.167 67.4544L143.403 45.9677H133.827L139.572 36.2019H128.082L120.422 51.8289H129.998L126.167 67.4544Z" fill="#F5B953"/>
        <path d="M23.6685 67.4544L6.43359 45.9677H16.0095L10.2631 36.2019H21.7545L29.415 51.8289H19.839L23.6685 67.4544Z" fill="#F5B953"/>
        <path d="M105.062 100.4C114.289 100.4 121.768 92.8719 121.768 83.5857C121.768 74.2976 114.289 66.7695 105.062 66.7695" fill="#DB9B7C"/>
        <path d="M43.0201 100.4C33.7949 100.4 26.3164 92.8722 26.3164 83.5859C26.3164 74.2978 33.7949 66.7698 43.0201 66.7698" fill="#DB9B7C"/>
        <path d="M57.3398 126.823V143.637C57.3398 152.924 64.8184 160.452 74.0435 160.452C83.2686 160.452 90.7472 152.924 90.7472 143.637V126.823" fill="#DB9B7C"/>
        <path d="M105.062 76.3783V54.7607C105.062 46.8 98.6538 40.3472 90.7455 40.3472H57.3382C49.4299 40.3472 43.0195 46.8 43.0195 54.7607V76.3783H64.4967C73.7218 76.3783 81.2003 68.8503 81.2003 59.564C81.2003 68.8503 88.6788 76.3783 97.904 76.3783H105.062Z" fill="#976947"/>
        <path d="M53.759 66.7699C75.3972 66.7699 92.9439 55.0553 93.1159 40.5607C92.3422 40.4319 91.554 40.3472 90.7456 40.3472H57.3383C49.4299 40.3472 43.0195 46.8 43.0195 54.7607V65.75C46.4378 66.3999 50.0317 66.7699 53.759 66.7699Z" fill="#C18E59"/>
        <path d="M105.062 102.801V97.9975C112.96 97.9975 119.381 91.5336 119.381 83.5858C119.381 75.6361 112.96 69.1722 105.062 69.1722V64.3689C115.59 64.3689 124.153 72.9887 124.153 83.5858C124.153 94.181 115.59 102.801 105.062 102.801Z" fill="#422121"/>
        <path d="M74.0421 134.029C55.6192 134.029 40.6348 118.943 40.6348 100.4V54.7604C40.6348 45.487 48.1297 37.946 57.3384 37.946H90.7457C99.9544 37.946 107.449 45.487 107.449 54.7604V100.4C107.449 118.943 92.4631 134.029 74.0421 134.029ZM57.3384 42.7493C50.7597 42.7493 45.4065 48.1381 45.4065 54.7604V100.4C45.4065 116.294 58.251 129.223 74.0421 129.223C89.8312 129.223 102.678 116.294 102.678 100.4V54.7604C102.678 48.1381 97.3244 42.7493 90.7457 42.7493H57.3384Z" fill="#422121"/>
        <path d="M102.678 126.823H107.449V174.863H102.678V126.823Z" fill="#422121"/>
        <path d="M40.6348 126.823H45.4064V174.863H40.6348V126.823Z" fill="#422121"/>
        <path d="M74.0416 162.854C63.5161 162.854 54.9512 154.232 54.9512 143.637V126.823H59.7247V143.637C59.7247 151.585 66.1461 158.049 74.0416 158.049C81.9371 158.049 88.3585 151.585 88.3585 143.637V126.823H93.132V143.637C93.132 154.232 84.5671 162.854 74.0416 162.854Z" fill="#422121"/>
        <path d="M64.4967 78.7806H43.0195V73.9773H64.4967C72.3922 73.9773 78.8136 67.5134 78.8136 59.5637H83.5871C83.5871 70.159 75.0222 78.7806 64.4967 78.7806Z" fill="#422121"/>
        <path d="M105.063 78.7806H97.9049C87.3794 78.7806 78.8145 70.159 78.8145 59.5637H83.588C83.588 67.5134 90.0094 73.9773 97.9049 73.9773H105.063V78.7806Z" fill="#422121"/>
        <path d="M43.0201 102.801C32.4946 102.801 23.9297 94.181 23.9297 83.5858C23.9297 72.9887 32.4946 64.3689 43.0201 64.3689V69.1722C35.1246 69.1722 28.7032 75.6361 28.7032 83.5858C28.7032 91.5336 35.1246 97.9975 43.0201 97.9975V102.801Z" fill="#422121"/>
        <path d="M26.3155 134.028C25.6571 134.028 25.0133 133.752 24.5542 133.248C23.9434 132.578 23.7641 131.615 24.0897 130.764L36.0217 99.5364L40.4769 101.261L30.2624 127.992L42.3662 124.512L54.4829 122.063L55.4212 126.775L43.4892 129.175L26.9721 133.935C26.7545 133.997 26.535 134.028 26.3155 134.028Z" fill="#422121"/>
        <path d="M43.0209 153.246H14.142C6.38184 153.246 0.0683594 146.889 0.0683594 139.079C0.0683594 136.993 0.536567 134.896 1.4236 133.013L26.6428 89.5806L30.7634 92.0071L5.64112 135.253C5.15097 136.314 4.84188 137.7 4.84188 139.079C4.84188 144.239 9.0155 148.441 14.142 148.441H43.0209V153.246Z" fill="#422121"/>
        <path d="M105.062 102.801V97.9975C112.96 97.9975 119.381 91.5336 119.381 83.5858C119.381 75.6361 112.96 69.1722 105.062 69.1722V64.3689C115.59 64.3689 124.153 72.9887 124.153 83.5858C124.153 94.181 115.59 102.801 105.062 102.801Z" fill="#422121"/>
        <path d="M121.768 134.029C121.548 134.029 121.329 133.997 121.113 133.937L104.409 129.133L92.6641 126.777L93.6023 122.066L105.532 124.468L117.825 127.997L107.61 101.264L112.065 99.5403L123.996 130.766C124.321 131.617 124.142 132.58 123.531 133.25C123.07 133.753 122.426 134.029 121.768 134.029Z" fill="#422121"/>
        <path d="M133.941 153.246H105.062V148.44H133.941C139.07 148.44 143.243 144.239 143.243 139.079C143.243 137.702 142.934 136.315 142.349 135.071L117.322 92.0049L121.442 89.5784L146.565 132.828C147.549 134.894 148.017 136.991 148.017 139.079C148.017 146.888 141.702 153.246 133.941 153.246Z" fill="#422121"/>
        <path d="M74.0412 124.421C70.0944 124.421 66.8828 121.188 66.8828 117.215C66.8828 113.242 70.0944 110.009 74.0412 110.009C77.9881 110.009 81.1997 113.242 81.1997 117.215C81.1997 121.188 77.9881 124.421 74.0412 124.421ZM74.0412 114.812C72.7244 114.812 71.6545 115.889 71.6545 117.215C71.6545 118.54 72.7244 119.617 74.0412 119.617C75.3581 119.617 76.428 118.54 76.428 117.215C76.428 115.889 75.3581 114.812 74.0412 114.812Z" fill="#422121"/>
        <path d="M89.3144 104.723L79.7692 97.517C79.1674 97.0623 78.8145 96.3516 78.8145 95.595C78.8145 94.8383 79.1674 94.1276 79.7692 93.6729L89.3144 86.467L92.1766 90.3112L85.1791 95.595L92.1785 100.881L89.3144 104.723Z" fill="#422121"/>
        <path d="M58.7704 104.723L55.9062 100.881L62.9056 95.595L55.9062 90.3112L58.7667 86.467L68.3119 93.6729C68.9136 94.1258 69.2666 94.8383 69.2666 95.595C69.2666 96.3516 68.9136 97.0623 68.3119 97.517L58.7704 104.723Z" fill="#422121"/>
        <path d="M126.201 69.2928C125.913 69.2928 125.619 69.2244 125.348 69.0876C124.551 68.6801 124.138 67.7639 124.355 66.8834L127.57 53.7684H120.489C119.828 53.7684 119.218 53.4188 118.87 52.8492C118.521 52.2766 118.49 51.5627 118.785 50.9603L126.401 35.4359C126.725 34.7785 127.385 34.3635 128.106 34.3635H139.53C140.216 34.3635 140.848 34.7398 141.188 35.3466C141.526 35.9549 141.516 36.7016 141.163 37.3009L137.183 44.0667H143.339C144.076 44.0667 144.744 44.4995 145.058 45.1762C145.375 45.8529 145.277 46.6546 144.813 47.2376L127.675 68.5834C127.305 69.0444 126.758 69.2928 126.201 69.2928ZM123.57 49.888H130.01C130.597 49.888 131.15 50.1631 131.511 50.6346C131.871 51.1061 132 51.7189 131.857 52.3004L130.111 59.4201L139.321 47.9471H133.818C133.134 47.9471 132.5 47.5708 132.162 46.964C131.823 46.3556 131.832 45.609 132.186 45.0096L136.166 38.2439H129.282L123.57 49.888Z" fill="#422121"/>
        <path d="M23.6375 69.2928C23.0829 69.2928 22.5357 69.0444 22.165 68.5804L5.0279 47.2346C4.56091 46.6546 4.46605 45.8529 4.78273 45.1762C5.09649 44.4995 5.76487 44.0667 6.50184 44.0667H12.6574L8.67772 37.3039C8.32456 36.7031 8.31434 35.9564 8.65291 35.3466C8.99148 34.7383 9.62484 34.3635 10.3093 34.3635H21.7345C22.4554 34.3635 23.115 34.7785 23.4375 35.4359L31.0539 50.9603C31.3501 51.5627 31.3195 52.2766 30.9707 52.8492C30.6219 53.4188 30.0104 53.7684 29.3508 53.7684H22.2686L25.4835 66.8804C25.701 67.7624 25.2865 68.6786 24.4912 69.0861C24.2212 69.2244 23.9279 69.2928 23.6375 69.2928ZM10.5194 47.9471L19.7293 59.4201L17.9825 52.3004C17.8409 51.7189 17.9679 51.1046 18.3298 50.6346C18.6917 50.1646 19.2434 49.888 19.83 49.888H26.2701L20.5568 38.2439H13.6745L17.6556 45.0067C18.0102 45.6075 18.0175 46.3542 17.6804 46.961C17.3433 47.5693 16.707 47.9471 16.0226 47.9471H10.5194Z" fill="#422121"/>
        <path d="M55.8445 28.8485L41.3672 10.5215H49.411L44.584 2.19189H54.2368L60.6715 15.5208H52.6277L55.8445 28.8485Z" fill="#F5B953"/>
        <path d="M55.941 30.6869C55.4629 30.6869 54.9911 30.4712 54.6716 30.0682L39.8982 11.5311C39.4957 11.0273 39.4139 10.3312 39.6869 9.74348C39.9574 9.1558 40.5336 8.77994 41.1689 8.77994H46.4754L43.0446 2.90702C42.7402 2.38521 42.7314 1.73682 43.0233 1.20727C43.3151 0.679 43.8611 0.353516 44.4511 0.353516H54.3005C54.9219 0.353516 55.4906 0.713874 55.7686 1.28476L62.3344 14.7665C62.5898 15.2896 62.5634 15.9096 62.2627 16.4069C61.962 16.9016 61.4349 17.2051 60.8663 17.2051H54.7609L57.5324 28.5919C57.7199 29.3578 57.3626 30.1534 56.6769 30.5073C56.4442 30.6274 56.1913 30.6869 55.941 30.6869ZM44.6323 12.1497L52.5719 22.1132L51.066 15.9303C50.944 15.4253 51.0534 14.8918 51.3654 14.4837C51.6774 14.0755 52.153 13.8353 52.6587 13.8353H58.2105L53.2852 3.72331H47.3522L50.7842 9.59624C51.0899 10.118 51.0962 10.7664 50.8056 11.2934C50.515 11.8217 49.9665 12.1497 49.3764 12.1497H44.6323Z" fill="#422121"/>
        <path d="M90.5479 28.8485L102.957 10.5215H96.0624L100.2 2.19189H91.926L86.4104 15.5208H93.3051L90.5479 28.8485Z" fill="#F5B953"/>
        <path d="M90.3509 30.6869C90.7716 30.6869 91.1868 30.4712 91.468 30.0682L104.469 11.5311C104.823 11.0273 104.895 10.3312 104.655 9.74348C104.416 9.1558 103.909 8.77994 103.35 8.77994H98.6807L101.7 2.90702C101.968 2.38521 101.975 1.73682 101.719 1.20727C101.462 0.679 100.981 0.353516 100.462 0.353516H91.7946C91.2477 0.353516 90.7473 0.713874 90.5026 1.28476L84.7247 14.7665C84.5 15.2896 84.5232 15.9096 84.7878 16.4069C85.0524 16.9016 85.5163 17.2051 86.0167 17.2051H91.3894L88.9505 28.5919C88.7855 29.3578 89.0999 30.1534 89.7033 30.5073C89.9081 30.6274 90.1306 30.6869 90.3509 30.6869ZM100.303 12.1497L93.3157 22.1132L94.6409 15.9303C94.7483 15.4253 94.652 14.8918 94.3774 14.4837C94.1028 14.0755 93.6844 13.8353 93.2393 13.8353H88.3537L92.688 3.72331H97.909L94.8889 9.59624C94.6199 10.118 94.6143 10.7664 94.8701 11.2934C95.1258 11.8217 95.6085 12.1497 96.1277 12.1497H100.303Z" fill="#422121"/>
    </g>
    <defs>
        <clipPath id="clip0_1019_3310">
            <rect width="148" height="172" fill="white"/>
        </clipPath>
    </defs>
</svg>