<svg width="36" height="36" viewBox="0 0 36 36" fill="none" xmlns="http://www.w3.org/2000/svg">
<path d="M29.0427 31.4895H6.95672C5.60648 31.4878 4.51255 30.3932 4.51172 29.043V6.95696C4.51337 5.60731 5.60707 4.51362 6.95672 4.51196H29.0412C30.3914 4.51361 31.4859 5.60683 31.4892 6.95696V29.043C31.4876 30.3934 30.3932 31.4878 29.0427 31.4895ZM10.0092 14.505L9.42722 16.65H11.3442L10.1052 21.699C10.0142 22.0983 9.96391 22.5059 9.95522 22.9155C9.8855 23.5746 10.1214 24.2293 10.5954 24.6925C11.0694 25.1557 11.7294 25.3764 12.3867 25.2915C13.7814 25.231 15.0341 24.4206 15.6612 23.1735L15.1707 25.1235H17.8872L19.4367 18.912C19.8267 17.322 20.5947 16.512 21.7152 16.512C22.1133 16.4823 22.5044 16.6289 22.7849 16.9131C23.0653 17.1973 23.2067 17.5903 23.1717 17.988C23.1757 18.2834 23.1326 18.5776 23.0442 18.8595L22.2522 21.7185C22.138 22.1144 22.0804 22.5244 22.0812 22.9365C22.0383 23.5946 22.2902 24.2377 22.7688 24.6916C23.2473 25.1454 23.9028 25.3631 24.5577 25.2855C26.1027 25.2855 27.1797 24.2355 27.7632 22.164L26.7027 21.7545C26.2887 22.938 25.8477 23.514 25.3527 23.514C24.9912 23.514 24.8007 23.2635 24.8007 22.788C24.8109 22.5386 24.8486 22.2911 24.9132 22.05L25.6932 19.263C25.8701 18.6895 25.9611 18.0931 25.9632 17.493C26.0524 16.6956 25.8014 15.8975 25.2718 15.2948C24.7421 14.692 23.983 14.3405 23.1807 14.3265C21.6085 14.5412 20.251 15.5353 19.5717 16.9695L20.1117 14.544H15.9297L15.3432 16.644H17.2842L16.0842 21.426C15.6652 22.6008 14.5896 23.4154 13.3452 23.5005C13.299 23.5011 13.2528 23.4976 13.2072 23.49C12.8427 23.4045 12.6312 23.265 12.6312 22.812C12.6397 22.4375 12.6952 22.0656 12.7962 21.705L14.6202 14.505H10.0092ZM13.5267 9.76196C12.9426 9.76196 12.4028 10.0736 12.1108 10.5795C11.8187 11.0853 11.8187 11.7086 12.1108 12.2145C12.4028 12.7203 12.9426 13.032 13.5267 13.032V12.9945C13.964 12.998 14.3851 12.8287 14.6982 12.5235C15.0053 12.2203 15.1767 11.8059 15.1737 11.3745C15.1622 10.4752 14.426 9.75446 13.5267 9.76196Z" fill="#CE4768"/>
</svg>
