<svg width="218" height="133" viewBox="0 0 218 133" fill="none" xmlns="http://www.w3.org/2000/svg">
<path d="M10.9194 126.08C10.0981 126.08 9.3141 125.941 8.56744 125.664C7.83144 125.376 7.25544 125.008 6.83944 124.56L7.20744 123.952C7.6021 124.368 8.1301 124.709 8.79144 124.976C9.46344 125.232 10.1674 125.36 10.9034 125.36C11.9701 125.36 12.7754 125.157 13.3194 124.752C13.8634 124.347 14.1354 123.819 14.1354 123.168C14.1354 122.667 13.9914 122.267 13.7034 121.968C13.4154 121.669 13.0581 121.44 12.6314 121.28C12.2048 121.12 11.6288 120.955 10.9034 120.784C10.0821 120.581 9.42077 120.384 8.91944 120.192C8.42877 120 8.00744 119.707 7.65544 119.312C7.3141 118.907 7.14344 118.368 7.14344 117.696C7.14344 117.152 7.28744 116.656 7.57544 116.208C7.86344 115.749 8.30077 115.387 8.88744 115.12C9.48477 114.853 10.2261 114.72 11.1114 114.72C11.7301 114.72 12.3381 114.811 12.9354 114.992C13.5328 115.173 14.0501 115.419 14.4874 115.728L14.1834 116.384C13.7354 116.075 13.2394 115.84 12.6954 115.68C12.1621 115.52 11.6341 115.44 11.1114 115.44C10.0768 115.44 9.29277 115.648 8.75944 116.064C8.2261 116.48 7.95944 117.019 7.95944 117.68C7.95944 118.181 8.10344 118.581 8.39144 118.88C8.67944 119.179 9.03677 119.408 9.46344 119.568C9.8901 119.728 10.4714 119.899 11.2074 120.08C12.0288 120.283 12.6848 120.48 13.1754 120.672C13.6661 120.864 14.0821 121.157 14.4234 121.552C14.7754 121.936 14.9514 122.459 14.9514 123.12C14.9514 123.664 14.8021 124.16 14.5034 124.608C14.2154 125.056 13.7674 125.413 13.1594 125.68C12.5514 125.947 11.8048 126.08 10.9194 126.08ZM19.7132 115.536H15.6812V114.8H24.5612V115.536H20.5292V126H19.7132V115.536ZM32.9503 122.848H26.4543L25.0303 126H24.1503L29.3023 114.8H30.1183L35.2703 126H34.3903L32.9503 122.848ZM32.6463 122.16L29.7023 115.696L26.7743 122.16H32.6463ZM47.8956 126L47.8796 116.416L43.1916 124.512H42.7916L38.1036 116.448V126H37.3036V114.8H37.9916L42.9996 123.456L48.0076 114.8H48.6796L48.6956 126H47.8956ZM56.6164 114.8C58.0244 114.8 59.1284 115.136 59.9284 115.808C60.7284 116.469 61.1284 117.392 61.1284 118.576C61.1284 119.749 60.7284 120.672 59.9284 121.344C59.1284 122.005 58.0244 122.336 56.6164 122.336H53.4164V126H52.6004V114.8H56.6164ZM56.6164 121.6C57.8111 121.6 58.7231 121.339 59.3524 120.816C59.9818 120.293 60.2964 119.547 60.2964 118.576C60.2964 117.605 59.9818 116.859 59.3524 116.336C58.7231 115.803 57.8111 115.536 56.6164 115.536H53.4164V121.6H56.6164ZM72.8993 126.08C71.8006 126.08 70.8086 125.835 69.9233 125.344C69.038 124.843 68.3393 124.16 67.8273 123.296C67.326 122.432 67.0753 121.467 67.0753 120.4C67.0753 119.333 67.326 118.368 67.8273 117.504C68.3393 116.64 69.038 115.963 69.9233 115.472C70.8086 114.971 71.8006 114.72 72.8993 114.72C73.998 114.72 74.99 114.965 75.8753 115.456C76.7606 115.947 77.454 116.624 77.9553 117.488C78.4673 118.352 78.7233 119.323 78.7233 120.4C78.7233 121.477 78.4673 122.448 77.9553 123.312C77.454 124.176 76.7606 124.853 75.8753 125.344C74.99 125.835 73.998 126.08 72.8993 126.08ZM72.8993 125.328C73.838 125.328 74.686 125.115 75.4433 124.688C76.2006 124.261 76.798 123.675 77.2353 122.928C77.6726 122.171 77.8913 121.328 77.8913 120.4C77.8913 119.472 77.6726 118.635 77.2353 117.888C76.798 117.131 76.2006 116.539 75.4433 116.112C74.686 115.685 73.838 115.472 72.8993 115.472C71.9606 115.472 71.1073 115.685 70.3393 116.112C69.582 116.539 68.9846 117.131 68.5473 117.888C68.11 118.635 67.8913 119.472 67.8913 120.4C67.8913 121.328 68.11 122.171 68.5473 122.928C68.9846 123.675 69.582 124.261 70.3393 124.688C71.1073 125.115 71.9606 125.328 72.8993 125.328ZM82.3696 115.536V120.32H88.3376V121.056H82.3696V126H81.5536V114.8H89.0416V115.536H82.3696ZM102.685 122.848H96.1887L94.7647 126H93.8847L99.0367 114.8H99.8527L105.005 126H104.125L102.685 122.848ZM102.381 122.16L99.4367 115.696L96.5087 122.16H102.381ZM111.188 126.08C109.769 126.08 108.665 125.669 107.876 124.848C107.097 124.027 106.708 122.827 106.708 121.248V114.8H107.524V121.216C107.524 122.592 107.838 123.621 108.468 124.304C109.097 124.987 110.009 125.328 111.204 125.328C112.388 125.328 113.294 124.987 113.924 124.304C114.553 123.621 114.868 122.592 114.868 121.216V114.8H115.684V121.248C115.684 122.827 115.289 124.027 114.5 124.848C113.71 125.669 112.606 126.08 111.188 126.08ZM121.416 115.536H117.384V114.8H126.264V115.536H122.232V126H121.416V115.536ZM137.408 114.8V126H136.592V120.672H129.104V126H128.288V114.8H129.104V119.952H136.592V114.8H137.408ZM149.047 125.264V126H141.319V114.8H148.807V115.536H142.135V119.952H148.103V120.672H142.135V125.264H149.047ZM161.142 114.8V126H160.47L152.838 116.272V126H152.022V114.8H152.71L160.326 124.528V114.8H161.142ZM167.198 115.536H163.166V114.8H172.046V115.536H168.014V126H167.198V115.536ZM174.069 114.8H174.885V126H174.069V114.8ZM183.524 126.08C182.425 126.08 181.433 125.835 180.548 125.344C179.673 124.853 178.98 124.176 178.468 123.312C177.967 122.448 177.716 121.477 177.716 120.4C177.716 119.323 177.967 118.352 178.468 117.488C178.98 116.624 179.673 115.947 180.548 115.456C181.433 114.965 182.425 114.72 183.524 114.72C184.335 114.72 185.081 114.853 185.764 115.12C186.447 115.376 187.028 115.76 187.508 116.272L186.996 116.8C186.1 115.915 184.953 115.472 183.556 115.472C182.617 115.472 181.764 115.685 180.996 116.112C180.228 116.539 179.625 117.131 179.188 117.888C178.751 118.635 178.532 119.472 178.532 120.4C178.532 121.328 178.751 122.171 179.188 122.928C179.625 123.675 180.228 124.261 180.996 124.688C181.764 125.115 182.617 125.328 183.556 125.328C184.943 125.328 186.089 124.88 186.996 123.984L187.508 124.512C187.028 125.024 186.441 125.413 185.748 125.68C185.065 125.947 184.324 126.08 183.524 126.08ZM190.241 114.8H191.057V126H190.241V114.8ZM197.104 115.536H193.072V114.8H201.952V115.536H197.92V126H197.104V115.536ZM207.385 122.144V126H206.569V122.144L202.057 114.8H202.953L207.001 121.392L211.049 114.8H211.897L207.385 122.144Z" fill="#FD6062"/>
<path d="M157.744 48.9653C157.744 51.0754 155.075 52.9905 154.809 55.0265C154.535 57.1132 156.617 59.6485 156.084 61.6416C155.54 63.6698 152.464 64.8282 151.67 66.7355C150.864 68.6701 152.214 71.6577 151.173 73.4519C150.12 75.2578 146.849 75.5854 145.577 77.2314C144.305 78.8851 144.833 82.1186 143.354 83.5851C141.878 85.0594 138.634 84.5329 136.979 85.8044C135.323 87.0681 134.999 90.3288 133.187 91.3742C131.386 92.4117 128.389 91.0699 126.448 91.8734C124.534 92.6652 123.368 95.7309 121.337 96.2691C119.337 96.8035 116.793 94.7324 114.699 95.0015C112.657 95.2667 110.735 97.9307 108.618 97.9307C106.501 97.9307 104.579 95.2667 102.532 95.0015C100.443 94.7324 97.8989 96.8035 95.8992 96.2691C93.8641 95.7309 92.7019 92.6652 90.7843 91.8695C88.8471 91.0699 85.8494 92.4117 84.0492 91.3742C82.2372 90.3288 81.9085 87.0681 80.257 85.8044C78.5977 84.5329 75.3535 85.0594 73.8781 83.5851C72.4027 82.1186 72.931 78.8851 71.6552 77.2314C70.3873 75.5815 67.1117 75.2578 66.0629 73.4519C65.0258 71.6577 66.3721 68.6701 65.5659 66.7355C64.7715 64.8282 61.6955 63.6659 61.1515 61.6416C60.6193 59.6485 62.7012 57.1132 62.4273 55.0265C62.1573 52.9905 59.4883 51.0754 59.4883 48.9653C59.4883 46.8552 62.1573 44.9402 62.4273 42.9003C62.7012 40.8175 60.6193 38.2822 61.1515 36.2891C61.6955 34.2648 64.7715 33.1064 65.5659 31.1952C66.3721 29.2606 65.0258 26.2729 66.0668 24.4788C67.1117 22.6729 70.3873 22.3492 71.6552 20.7032C72.931 19.0494 72.4027 15.816 73.8781 14.3417C75.3535 12.8751 78.6016 13.3978 80.257 12.1302C81.9085 10.8626 82.2372 7.60184 84.0492 6.55654C85.8494 5.51513 88.8471 6.86076 90.7843 6.06119C92.7019 5.26551 93.8681 2.19981 95.8992 1.65766C97.8989 1.12721 100.443 3.20221 102.532 2.92918C104.579 2.66006 106.501 0 108.618 0C110.735 0 112.657 2.66006 114.699 2.92918C116.793 3.20221 119.337 1.12721 121.337 1.65766C123.368 2.19981 124.534 5.26551 126.448 6.06119C128.389 6.86076 131.386 5.51513 133.187 6.55654C134.999 7.60184 135.323 10.8626 136.979 12.1302C138.634 13.3978 141.878 12.8751 143.354 14.3417C144.833 15.816 144.305 19.0494 145.577 20.7032C146.849 22.3492 150.12 22.6729 151.173 24.4788C152.214 26.2729 150.864 29.2606 151.67 31.1952C152.464 33.1064 155.54 34.2648 156.084 36.2891C156.617 38.2822 154.535 40.8175 154.809 42.9003C155.075 44.9402 157.744 46.8552 157.744 48.9653Z" fill="#16CFFA"/>
<path d="M151.414 48.9653C151.414 72.5236 132.253 91.6237 108.616 91.6237C84.9787 91.6237 65.8145 72.5236 65.8145 48.9653C65.8145 25.407 84.9787 6.30688 108.616 6.30688C132.253 6.30688 151.414 25.407 151.414 48.9653Z" fill="#16CFFA"/>
<path d="M151.415 48.9653H150.843C150.843 60.5884 146.116 71.1078 138.473 78.7252C130.83 86.3426 120.279 91.0504 108.617 91.0504C96.9549 91.0504 86.4003 86.3426 78.7573 78.7252C71.1143 71.1078 66.3908 60.5884 66.3908 48.9653C66.3908 37.3422 71.1143 26.8268 78.7573 19.2054C86.4003 11.5919 96.9549 6.88024 108.617 6.88024C120.279 6.88024 130.83 11.5919 138.473 19.2054C146.116 26.8268 150.843 37.3422 150.843 48.9653H151.99C151.99 25.0911 132.571 5.73743 108.617 5.73743C84.6588 5.73743 65.2441 25.0911 65.2441 48.9653C65.2441 72.8395 84.6588 92.1932 108.617 92.1932C132.571 92.1932 151.99 72.8395 151.99 48.9653H151.415Z" fill="white"/>
<path d="M80.2425 63.3825C80.857 64.4434 81.0174 65.4419 80.7278 66.378C80.4343 67.3141 79.7103 68.1176 78.5519 68.7807L77.8162 69.2019L79.632 72.369L77.0492 73.8356L71.5703 64.303L74.8889 62.4153C76.0864 61.7288 77.1431 61.4792 78.051 61.6664C78.9589 61.8458 79.6868 62.4153 80.2425 63.3825ZM76.5952 67.1113L77.0648 66.8305C77.4483 66.6121 77.6949 66.3312 77.8005 65.988C77.914 65.637 77.8632 65.2703 77.644 64.8959C77.2683 64.2523 76.7204 64.1314 76.0004 64.5371L75.3429 64.9271L76.5952 67.1113Z" fill="white"/>
<path d="M91.1748 65.7548L85.5081 68.9999L80.0293 59.4674L85.696 56.2223L86.8857 58.2973L83.8019 60.0759L84.6628 61.558L87.5275 59.9198L88.7172 61.9948L85.8525 63.633L86.8857 65.4428L89.9695 63.6642L91.1748 65.7548Z" fill="white"/>
<path d="M98.1116 55.2043C99.0273 56.7878 99.2935 58.2583 98.9099 59.6195C98.5225 60.9847 97.5363 62.1236 95.9514 63.0363L92.8519 64.7992L87.373 55.2667L90.6917 53.3789C92.214 52.5052 93.6189 52.2205 94.9026 52.5208C96.194 52.8251 97.2663 53.7183 98.1116 55.2043ZM95.4817 56.8269C94.9808 55.9532 94.4329 55.4071 93.8381 55.1887C93.2511 54.9625 92.6053 55.0483 91.897 55.4539L91.1456 55.8908L94.2138 61.2265L94.793 60.8832C95.5757 60.4386 96.0179 59.8808 96.1236 59.2139C96.2253 58.5508 96.014 57.7551 95.4817 56.8269Z" fill="white"/>
<path d="M108.546 55.8273L107.028 54.3296L103.944 56.0926L104.476 58.152L101.643 59.7745L99.248 48.4322L102.692 46.4664L111.364 54.2204L108.546 55.8273ZM105.29 52.5042L103.976 51.1781C103.682 50.8895 103.306 50.5072 102.848 50.0392C102.398 49.5633 102.085 49.2123 101.909 48.9939C101.98 49.2435 102.105 49.6569 102.285 50.2264C102.461 50.7998 102.786 51.9504 103.255 53.6743L105.29 52.5042Z" fill="white"/>
<path d="M116.964 47.1493C117.308 47.7539 117.465 48.3662 117.434 48.9903C117.402 49.6143 117.171 50.2189 116.745 50.8001C116.326 51.3851 115.735 51.9 114.976 52.3446C114.338 52.6995 113.775 52.9531 113.285 53.1091C112.804 53.2651 112.268 53.3704 111.673 53.4211L110.342 51.1277C110.992 51.0887 111.614 50.9873 112.221 50.8313C112.835 50.6675 113.368 50.4568 113.818 50.2072C114.201 49.981 114.444 49.7509 114.538 49.5207C114.639 49.2945 114.636 49.0761 114.522 48.8655C114.436 48.7329 114.334 48.6393 114.209 48.5846C114.084 48.5222 113.912 48.4871 113.692 48.4754C113.481 48.4676 112.945 48.5027 112.08 48.5846C111.29 48.6705 110.663 48.6705 110.202 48.5846C109.732 48.491 109.325 48.3155 108.981 48.0542C108.636 47.7968 108.331 47.4301 108.057 46.9621C107.556 46.0884 107.49 45.2264 107.854 44.3722C108.21 43.5103 108.941 42.7614 110.045 42.1256C111.047 41.5562 112.19 41.2051 113.473 41.0803L113.833 43.5142C112.694 43.6195 111.802 43.8574 111.156 44.2318C110.824 44.419 110.616 44.618 110.53 44.8247C110.448 45.0236 110.46 45.2108 110.562 45.3863C110.667 45.5736 110.859 45.6906 111.141 45.7296C111.423 45.7608 112.1 45.7257 113.176 45.6204C114.209 45.519 115.007 45.5892 115.571 45.8388C116.134 46.0806 116.596 46.5174 116.964 47.1493Z" fill="white"/>
<path d="M124.691 42.731C125.035 43.3355 125.192 43.9479 125.16 44.572C125.129 45.196 124.898 45.8006 124.471 46.3817C124.053 46.9668 123.462 47.4816 122.703 47.9263C122.065 48.2812 121.501 48.5347 121.012 48.6908C120.531 48.8468 119.994 48.9521 119.4 49.0028L118.069 46.7094C118.719 46.6704 119.341 46.5689 119.948 46.4129C120.562 46.2491 121.094 46.0385 121.544 45.7889C121.928 45.5626 122.17 45.3325 122.264 45.1024C122.366 44.8762 122.362 44.6578 122.249 44.4471C122.163 44.3145 122.061 44.2209 121.936 44.1663C121.81 44.1039 121.638 44.0688 121.419 44.0571C121.208 44.0493 120.672 44.0844 119.807 44.1663C119.016 44.2521 118.39 44.2521 117.928 44.1663C117.459 44.0727 117.052 43.8972 116.707 43.6359C116.363 43.3784 116.058 43.0118 115.784 42.5438C115.283 41.6701 115.216 40.8081 115.58 39.9539C115.936 39.0919 116.668 38.3431 117.772 37.7073C118.773 37.1378 119.916 36.7868 121.2 36.662L121.56 39.0958C120.421 39.2011 119.529 39.4391 118.883 39.8135C118.55 40.0007 118.343 40.1996 118.257 40.4063C118.175 40.6053 118.186 40.7925 118.288 40.968C118.394 41.1552 118.586 41.2722 118.867 41.3112C119.149 41.3424 119.826 41.3073 120.902 41.202C121.936 41.1006 122.734 41.1708 123.297 41.4204C123.861 41.6623 124.323 42.0991 124.691 42.731Z" fill="white"/>
<path d="M127.842 44.7882L122.363 35.2557L124.962 33.7736L130.441 43.3061L127.842 44.7882Z" fill="white"/>
<path d="M137.075 35.6487C137.42 36.2533 137.576 36.8656 137.545 37.4897C137.514 38.1137 137.283 38.7183 136.856 39.2995C136.438 39.8845 135.847 40.3994 135.087 40.844C134.449 41.1989 133.886 41.4525 133.397 41.6085C132.915 41.7645 132.379 41.8698 131.784 41.9205L130.454 39.6271C131.103 39.5881 131.726 39.4867 132.332 39.3307C132.947 39.1668 133.479 38.9562 133.929 38.7066C134.312 38.4804 134.555 38.2503 134.649 38.0201C134.751 37.7939 134.747 37.5755 134.633 37.3649C134.547 37.2323 134.446 37.1386 134.32 37.084C134.195 37.0216 134.023 36.9865 133.804 36.9748C133.592 36.967 133.056 37.0021 132.191 37.084C131.401 37.1698 130.775 37.1698 130.313 37.084C129.843 36.9904 129.436 36.8149 129.092 36.5536C128.748 36.2962 128.442 35.9295 128.168 35.4615C127.667 34.5878 127.601 33.7258 127.965 32.8716C128.321 32.0096 129.053 31.2608 130.156 30.625C131.158 30.0556 132.301 29.7045 133.585 29.5797L133.945 32.0135C132.806 32.1189 131.914 32.3568 131.268 32.7312C130.935 32.9184 130.728 33.1174 130.642 33.3241C130.559 33.523 130.571 33.7102 130.673 33.8857C130.779 34.0729 130.97 34.19 131.252 34.229C131.534 34.2602 132.211 34.2251 133.287 34.1198C134.32 34.0183 135.119 34.0885 135.682 34.3382C136.246 34.58 136.708 35.0168 137.075 35.6487Z" fill="white"/>
<path d="M144.455 35.2877L141.856 36.7699L137.583 29.3592L135.266 30.7009L134.061 28.5791L141.293 24.4291L142.498 26.5509L140.181 27.877L144.455 35.2877Z" fill="white"/>
</svg>
