<svg width="112" height="123" viewBox="0 0 112 123" fill="none" xmlns="http://www.w3.org/2000/svg">
<g clip-path="url(#clip0_1000_11899)">
<path d="M96.3025 110.967C96.3025 110.967 104.3 113.489 108.237 102.058C113.344 87.2281 106.175 73.14 93.8096 72.1252C75.9747 70.6623 85.8589 32.7799 57.7157 43.0583C49.8018 45.9485 32.5897 31.0292 22.4572 56.309C20.7343 60.6072 15.5839 60.3962 8.72189 67.7295C-3.38277 80.6655 0.974809 111.104 11.1738 111.242C21.3728 111.38 96.3025 110.967 96.3025 110.967Z" fill="#FFD5A8"/>
<path d="M12.7837 111.32C12.7837 111.32 13.1569 107.8 17.9187 106.853C22.6806 105.905 27.1083 98.3119 34.9611 99.4142C42.8142 100.516 49.3301 107.431 58.269 105.312C67.2079 103.194 72.8054 105.894 74.8103 108.024C76.8151 110.154 85.1132 107.525 85.7261 111.427L12.7837 111.32Z" fill="#A8D29F"/>
<path d="M32.3582 27.4392C32.3582 27.4392 26.9838 27.0613 29.8349 50.6404C29.8349 50.6404 31.7529 58.6447 29.3316 63.8036H64.9739V27.4392H32.3582Z" fill="#AFCDFB"/>
<path d="M36.0188 88.744C36.0188 88.744 33.5288 84.5623 35.8653 81.9056C35.8653 81.9056 37.5721 80.418 38.9635 80.5392C38.9635 80.5392 36.9918 85.299 37.6298 85.7728C38.2678 86.246 39.5614 80.2403 39.5614 80.2403C39.5614 80.2403 43.4448 79.6983 44.6944 80.563C44.6944 80.563 41.3742 84.4745 42.0737 84.7073C42.7727 84.9402 46.3592 81.1009 46.3592 81.1009C46.3592 81.1009 49.9736 81.9867 49.7811 85.1608C49.5881 88.3348 48.3428 89.3153 47.7951 89.2308C47.2479 89.1464 44.0455 87.3871 43.976 88.0326C43.906 88.678 45.8337 90.7886 47.1836 90.8873C47.1836 90.8873 44.6353 94.9329 42.9411 93.7653C41.2475 92.5976 41.1032 90.7471 40.0471 90.0526C38.9914 89.3582 38.09 89.3602 38.5261 90.0683C38.9621 90.7764 40.8729 91.464 41.4764 93.0014C42.0803 94.5394 42.6219 95.5756 40.8696 95.1964C39.1173 94.8172 36.2689 92.9707 36.1439 90.8574C36.0188 88.744 36.0188 88.744 36.0188 88.744Z" fill="#599DAD"/>
<path d="M48.0053 85.2465C48.0053 85.2465 38.1871 84.7018 36.019 88.744C36.019 88.744 35.5395 90.8111 34.064 92.6937L33.834 93.5958C33.834 93.5958 35.5353 91.0133 36.1441 90.8574C36.1441 90.8574 35.192 85.8497 48.0053 85.2465Z" fill="#599DAD"/>
<path d="M34.0637 92.6936C34.0637 92.6936 31.9564 94.937 31.8101 98.9458L32.1925 98.9948C32.1925 98.9948 32.8656 94.8498 34.082 93.2294C35.2985 91.6083 34.0637 92.6936 34.0637 92.6936Z" fill="#599DAD"/>
<path d="M27.3132 83.4845C27.3132 83.4845 31.2742 80.2913 29.4257 75.9577C29.4257 75.9577 27.947 73.297 26.3626 72.6127C26.3626 72.6127 27.2076 79.0753 26.3626 79.2272C25.5175 79.379 25.7816 71.9285 25.7816 71.9285C25.7816 71.9285 21.6094 69.0397 19.9722 69.2677C19.9722 69.2677 22.56 75.5778 21.715 75.426C20.87 75.2735 17.9653 68.8872 17.9653 68.8872C17.9653 68.8872 13.6874 67.7467 13.0008 71.3961C12.3142 75.0454 13.4233 76.8701 14.0571 77.0982C14.6908 77.3262 18.7575 77.2507 18.6518 78.0105C18.5462 78.771 15.7999 79.987 14.2683 79.3034C14.2683 79.3034 15.9583 85.3092 18.1765 85.0048C20.3946 84.7012 21.0812 82.7247 22.4544 82.5722C23.8275 82.4203 24.831 82.9528 24.1444 83.4845C23.4579 84.0169 21.1341 83.6588 20.025 85.0164C18.9159 86.3733 18.018 87.2101 20.0778 87.8181C22.1375 88.4261 25.8344 88.0462 26.5738 85.7653C27.3132 83.4845 27.3132 83.4845 27.3132 83.4845Z" fill="#6BB7BF"/>
<path d="M14.9546 72.5364C14.9546 72.5364 26.0454 77.7068 27.3129 83.4845C27.3129 83.4845 27.2601 86.0697 28.3692 89.0348V90.1752C28.3692 90.1752 27.2073 86.2978 26.5735 85.7653C26.5735 85.7653 29.0558 80.7475 14.9546 72.5364Z" fill="#6BB7BF"/>
<path d="M28.3692 89.0347C28.3692 89.0347 30.0796 92.7733 29.1046 97.3247L28.6645 97.1545C28.6645 97.1545 29.0916 92.1414 28.1968 89.6203C27.302 87.0991 28.3692 89.0347 28.3692 89.0347Z" fill="#6BB7BF"/>
<path d="M33.6147 79.0808C33.6147 79.0808 28.3933 74.8717 30.83 69.1594C30.83 69.1594 32.7793 65.6515 34.8678 64.7496C34.8678 64.7496 33.7539 73.2684 34.8678 73.4685C35.9817 73.6687 35.6336 63.8476 35.6336 63.8476C35.6336 63.8476 41.1336 60.0393 43.2918 60.3399C43.2918 60.3399 39.8803 68.6583 40.9941 68.4575C42.1079 68.2573 45.937 59.8388 45.937 59.8388C45.937 59.8388 51.5761 58.3355 52.4813 63.1461C53.3861 67.9564 51.9242 70.3618 51.0889 70.6627C50.2532 70.963 44.8927 70.8629 45.0322 71.8651C45.1713 72.8673 48.7913 74.4707 50.8104 73.5686C50.8104 73.5686 48.5827 81.4862 45.6584 81.0852C42.7346 80.6841 41.8294 78.0785 40.0194 77.8784C38.2094 77.6775 36.8867 78.3795 37.7917 79.0808C38.697 79.7827 41.7598 79.3109 43.2218 81.1001C44.6841 82.8887 45.8675 83.9917 43.1522 84.7931C40.4375 85.5951 35.564 85.094 34.5893 82.0874C33.6147 79.0807 33.6147 79.0808 33.6147 79.0808Z" fill="#86D1CD"/>
<path d="M49.905 64.6494C49.905 64.6494 35.2853 71.4641 33.6145 79.0808C33.6145 79.0808 33.6841 82.4884 32.2222 86.3965V87.8998C32.2222 87.8998 33.7538 82.7887 34.5891 82.0874C34.5891 82.0874 31.3171 75.473 49.905 64.6494Z" fill="#6BB7BF"/>
<path d="M32.2223 86.3965C32.2223 86.3965 29.9676 91.3251 31.253 97.3247L31.8331 97.1007C31.8331 97.1007 31.2699 90.4924 32.4496 87.1692C33.6292 83.8453 32.2223 86.3965 32.2223 86.3965Z" fill="#6BB7BF"/>
<path d="M33.4387 110.335C39.0876 110.335 43.6663 103.743 43.6663 95.6118H23.2109C23.2109 103.743 27.79 110.335 33.4387 110.335Z" fill="#EFCBAB"/>
<path d="M35.9556 110.223C35.5395 110.298 35.1154 110.335 34.6848 110.335C29.0363 110.335 24.4575 103.743 24.4575 95.6118H26.9984C26.9984 103.124 30.9065 109.322 35.9556 110.223Z" fill="#FFEBDC"/>
<path d="M43.8079 111.085H23.0698C23.0698 110.081 23.6348 109.268 24.3317 109.268H42.5461C43.2432 109.268 43.8079 110.081 43.8079 111.085Z" fill="#EFCBAB"/>
<path d="M43.8989 96.0632H22.8745V95.6109H43.8989V96.0632Z" fill="#EFCDAF"/>
<path d="M70.4483 39.6297C70.4483 39.6297 68.6568 34.763 71.3413 32.9098C71.3413 32.9098 73.2331 31.9981 74.5725 32.5557C74.5725 32.5557 71.923 36.5761 72.4731 37.2399C73.0231 37.9031 75.2011 32.4529 75.2011 32.4529C75.2011 32.4529 79.0727 33.1515 80.1601 34.3899C80.1601 34.3899 76.3244 37.1569 76.9709 37.6049C77.6179 38.0529 81.7019 35.4405 81.7019 35.4405C81.7019 35.4405 85.0935 37.4469 84.4214 40.4828C83.7493 43.5187 82.3849 44.0811 81.8632 43.8258C81.342 43.5705 78.4863 40.8423 78.3198 41.4503C78.1533 42.0583 79.7122 44.7258 81.0137 45.2487C81.0137 45.2487 77.9107 48.3908 76.4365 46.716C74.9622 45.0418 75.1032 43.1905 74.179 42.1795C73.2549 41.1684 72.3752 40.8859 72.6925 41.7138C73.0099 42.5424 74.7693 43.8176 75.124 45.5081C75.4782 47.1994 75.849 48.382 74.197 47.4581C72.5454 46.5335 70.0477 43.8333 70.2483 41.7315C70.4483 39.6297 70.4483 39.6297 70.4483 39.6297Z" fill="#599DAD"/>
<path d="M82.6753 40.0049C82.6753 40.0049 73.1803 36.3712 70.4485 39.6297C70.4485 39.6297 69.6657 41.4953 67.939 42.8658L67.5771 43.6733C67.5771 43.6733 69.6307 41.6914 70.2484 41.7315C70.2484 41.7315 70.0829 36.5455 82.6753 40.0049Z" fill="#599DAD"/>
<path d="M67.9389 42.8658C67.9389 42.8658 65.541 44.3889 64.7871 48.2534L65.1527 48.4222C65.1527 48.4222 66.441 44.5911 67.875 43.3941C69.3091 42.1972 67.9389 42.8658 67.9389 42.8658Z" fill="#599DAD"/>
<path d="M58.6516 30.8516C58.6516 30.8516 53.3455 26.8679 55.663 21.0542C55.663 21.0542 57.5388 17.4641 59.6079 16.4734C59.6079 16.4734 58.6705 25.0358 59.7881 25.1883C60.9057 25.3408 60.3548 15.5386 60.3548 15.5386C60.3548 15.5386 65.7734 11.4964 67.9368 11.7048C67.9368 11.7048 64.6989 20.165 65.808 19.9172C66.9175 19.6693 70.5707 11.0906 70.5707 11.0906C70.5707 11.0906 76.1762 9.34632 77.1803 14.1157C78.1844 18.885 76.7726 21.3524 75.944 21.688C75.1149 22.0251 69.7548 22.1544 69.9147 23.1498C70.0745 24.1459 73.7262 25.5934 75.7254 24.6055C75.7254 24.6055 73.6624 32.6143 70.7315 32.3392C67.8005 32.0642 66.8423 29.498 65.0285 29.3755C63.2152 29.2523 61.9075 30.0107 62.8269 30.6725C63.7459 31.3356 66.7979 30.7324 68.2962 32.4584C69.7945 34.1843 71.0006 35.2355 68.3033 36.1526C65.606 37.0711 60.7241 36.779 59.6879 33.8153C58.6516 30.8516 58.6516 30.8516 58.6516 30.8516Z" fill="#86D1CD"/>
<path d="M74.6367 15.7286C74.6367 15.7286 60.1642 23.1668 58.6517 30.8516C58.6517 30.8516 58.7917 34.2551 57.4111 38.2245L57.4424 39.7271C57.4424 39.7271 58.8674 34.5526 59.688 33.8153C59.688 33.8153 56.2808 27.3438 74.6367 15.7286Z" fill="#6BB7BF"/>
<path d="M57.4109 38.2245C57.4109 38.2245 55.2595 43.2471 56.6684 49.1888L57.2435 48.9403C57.2435 48.9403 56.544 42.3593 57.654 38.9864C58.7645 35.6141 57.4109 38.2245 57.4109 38.2245Z" fill="#6BB7BF"/>
<path d="M34.6182 41.3959V111.256H71.8298V41.3959H34.6182Z" fill="#9ABCEF"/>
<path d="M35.835 41.3959V111.256H72.4207V41.3959H35.835Z" fill="#E9F3FE"/>
<path d="M98.2182 111.085H90.8458C90.4508 110.603 91.1191 109.507 91.8177 109.434C92.1208 109.4 92.5049 109.491 92.9428 109.625C93.0445 107.685 93.6239 98.9649 95.807 99.3156C98.2621 99.7077 95.807 103.156 95.1132 105.197C94.5991 106.709 94.0566 108.877 93.8088 109.901C94.0084 109.963 94.2146 110.024 94.4255 110.08C94.7509 108.641 95.9617 103.803 97.5012 104.085C99.3093 104.415 98.5823 106.355 97.3011 107.506C96.3609 108.353 95.2069 109.556 94.6582 110.138C95.1231 110.247 95.6079 110.321 96.0998 110.304C97.3631 110.261 97.9793 110.797 98.2182 111.085Z" fill="#A8D29F"/>
<path d="M72.4209 41.3952C72.4204 41.3959 72.4204 41.3959 72.4204 41.3959H35.8344C36.0368 37.4129 35.7319 34.5213 35.2433 32.4413C34.305 28.4427 32.688 27.4391 32.688 27.4391H67.1923C70.1369 27.4391 72.4204 29.993 73.0418 33.383C73.065 33.511 73.0868 33.6376 73.1057 33.7642C73.6955 37.643 72.445 41.3244 72.4209 41.3952Z" fill="#E9F3FE"/>
<path d="M72.4212 41.3952C72.4207 41.3959 72.4207 41.3959 72.4207 41.3959H35.8348C36.0371 37.4129 35.7323 34.5213 35.2437 32.4413C38.9826 33.4272 48.2426 35.5269 58.1549 35.1736C64.5672 34.9441 69.6345 34.3266 73.106 33.7642C73.6958 37.643 72.4453 41.3244 72.4212 41.3952Z" fill="#D8E8FD"/>
<path d="M62.7561 57.505H43.354C43.1549 57.505 42.9922 57.2704 42.9922 56.9836V56.7162C42.9922 56.4295 43.1549 56.1949 43.354 56.1949H62.7561C62.9552 56.1949 63.1184 56.4295 63.1184 56.7162V56.9836C63.1184 57.2704 62.9552 57.505 62.7561 57.505Z" fill="#BBD5FC"/>
<path d="M55.2469 59.7092H43.2779C43.1208 59.7092 42.9922 59.524 42.9922 59.2976V58.8106C42.9922 58.5842 43.1208 58.399 43.2779 58.399H55.2469C55.404 58.399 55.5326 58.5842 55.5326 58.8106V59.2976C55.5326 59.524 55.404 59.7092 55.2469 59.7092Z" fill="#BBD5FC"/>
<path d="M41.1232 59.4971V56.821H40.8782C40.7292 56.821 40.6549 56.7319 40.6549 56.5534C40.6549 56.425 40.7131 56.334 40.8299 56.2804C40.8891 56.252 40.9841 56.2305 41.1142 56.2162C41.2443 56.2019 41.3488 56.1949 41.4282 56.1949C41.5048 56.1949 41.5536 56.2172 41.5734 56.2617C41.5928 56.3063 41.6032 56.4195 41.6032 56.6015V59.4971H41.8558C42.0194 59.4971 42.1012 59.5987 42.1012 59.8021C42.1012 60.0162 42.0194 60.1232 41.8558 60.1232H40.837C40.7651 60.1232 40.7051 60.0957 40.6568 60.0403C40.6086 59.985 40.5845 59.9074 40.5845 59.8075C40.5845 59.6006 40.6672 59.4971 40.8332 59.4971H41.1232Z" fill="#BBD5FC"/>
<path d="M62.7561 71.3021H43.354C43.1549 71.3021 42.9922 71.0679 42.9922 70.7806V70.5137C42.9922 70.2271 43.1549 69.9922 43.354 69.9922H62.7561C62.9552 69.9922 63.1184 70.2271 63.1184 70.5137V70.7806C63.1184 71.0679 62.9552 71.3021 62.7561 71.3021Z" fill="#D2E4FD"/>
<path d="M55.2469 73.5066H43.2779C43.1208 73.5066 42.9922 73.3215 42.9922 73.0947V72.608C42.9922 72.3812 43.1208 72.1961 43.2779 72.1961H55.2469C55.404 72.1961 55.5326 72.3812 55.5326 72.608V73.0947C55.5326 73.3215 55.404 73.5066 55.2469 73.5066Z" fill="#D2E4FD"/>
<path d="M42.1395 73.2391C42.1395 73.4174 42.0529 73.5066 41.8799 73.5066H40.8025C40.6469 73.5066 40.5688 73.4168 40.5688 73.237C40.5688 73.1798 40.5897 73.1138 40.6313 73.0382C40.6928 72.9374 40.7826 72.7856 40.9009 72.5841C41.0806 72.2593 41.2305 71.9788 41.3511 71.7419C41.3927 71.6636 41.4518 71.5437 41.5285 71.3824C41.5918 71.2217 41.6235 71.0862 41.6235 70.9759C41.6235 70.8527 41.5961 70.7512 41.5417 70.6709C41.4868 70.5905 41.4168 70.5504 41.3312 70.5504C41.248 70.5504 41.1756 70.5878 41.1142 70.6634C41.0725 70.7145 41.0399 70.8084 41.0158 70.9473C40.985 71.1271 40.9656 71.2312 40.9567 71.2598C40.924 71.3606 40.8701 71.411 40.7959 71.411C40.7301 71.411 40.6786 71.3762 40.6412 71.3068C40.6062 71.2469 40.5887 71.1679 40.5887 71.0705C40.5887 70.9602 40.6005 70.8479 40.6247 70.7349C40.6776 70.4918 40.7703 70.3059 40.9042 70.1766C41.0309 70.0534 41.1856 69.9921 41.3672 69.9921C41.5668 69.9921 41.7332 70.0792 41.8666 70.2528C42.0047 70.436 42.0738 70.6695 42.0738 70.9534C42.0738 71.1652 42.0246 71.3831 41.9257 71.6077C41.8713 71.731 41.7583 71.9488 41.5876 72.2614C41.5001 72.4227 41.362 72.6562 41.1737 72.9626H41.8832C42.0539 72.9626 42.1395 73.0545 42.1395 73.2391Z" fill="#D2E4FD"/>
<path d="M62.7561 82.8118H43.354C43.1549 82.8118 42.9922 82.5769 42.9922 82.2903V82.0227C42.9922 81.736 43.1549 81.5011 43.354 81.5011H62.7561C62.9552 81.5011 63.1184 81.736 63.1184 82.0227V82.2903C63.1184 82.5769 62.9552 82.8118 62.7561 82.8118Z" fill="#D2E4FD"/>
<path d="M55.2469 85.0157H43.2779C43.1208 85.0157 42.9922 84.8305 42.9922 84.6045V84.117C42.9922 83.8909 43.1208 83.7058 43.2779 83.7058H55.2469C55.404 83.7058 55.5326 83.8909 55.5326 84.117V84.6045C55.5326 84.8305 55.404 85.0157 55.2469 85.0157Z" fill="#D2E4FD"/>
<path d="M42.1396 83.9182C42.1396 84.2532 42.0578 84.5228 41.8946 84.7257C41.74 84.919 41.5442 85.0157 41.3068 85.0157C41.1232 85.0157 40.9662 84.9531 40.8366 84.8271C40.6304 84.6276 40.5273 84.3873 40.5273 84.1068C40.5273 84.0264 40.5453 83.957 40.5813 83.8991C40.6172 83.8412 40.6631 83.812 40.7189 83.812C40.7771 83.812 40.8319 83.8685 40.8835 83.9808C40.9662 84.168 41.0145 84.2715 41.0282 84.2906C41.102 84.4036 41.197 84.4595 41.3134 84.4595C41.4704 84.4595 41.582 84.3757 41.6492 84.2082C41.6804 84.1245 41.6965 84.0183 41.6965 83.8889C41.6965 83.5737 41.5673 83.398 41.3101 83.3626C41.1644 83.3429 41.0916 83.2543 41.0916 83.0964C41.0916 82.9806 41.1341 82.8983 41.2183 82.8499C41.3763 82.7662 41.4567 82.7226 41.4586 82.7192C41.5432 82.6389 41.5853 82.4986 41.5853 82.2984C41.5853 82.1793 41.5607 82.0853 41.512 82.0159C41.4628 81.9464 41.3971 81.9117 41.3143 81.9117C41.2117 81.9117 41.1313 81.9471 41.0736 82.0179C41.0244 82.0792 40.9828 82.184 40.9497 82.3325C40.9227 82.4455 40.8716 82.5013 40.7955 82.5013C40.7421 82.5013 40.6981 82.468 40.6635 82.3999C40.629 82.3325 40.6115 82.2583 40.6115 82.1779C40.6115 82.0778 40.6304 81.9778 40.6688 81.8777C40.7312 81.7102 40.8277 81.5801 40.9572 81.4862C41.076 81.399 41.206 81.3561 41.347 81.3561C41.5371 81.3561 41.6955 81.4385 41.8223 81.6046C41.9485 81.7708 42.0119 81.9893 42.0119 82.2596C42.0119 82.5858 41.9178 82.8431 41.73 83.0337C42.0029 83.1917 42.1396 83.4865 42.1396 83.9182Z" fill="#D2E4FD"/>
<path d="M60.4966 46.0358H48.4097C48.203 46.0358 48.0337 45.7928 48.0337 45.4946V45.0554C48.0337 44.7579 48.203 44.5141 48.4097 44.5141H60.4966C60.7033 44.5141 60.8726 44.7579 60.8726 45.0554V45.4946C60.8726 45.7928 60.7033 46.0358 60.4966 46.0358Z" fill="#BBD5FC"/>
<path d="M63.648 48.3827H45.258C45.004 48.3827 44.7964 48.0838 44.7964 47.7189V47.5249C44.7964 47.1599 45.004 46.861 45.258 46.861H63.648C63.9015 46.861 64.1091 47.1599 64.1091 47.5249V47.7189C64.1091 48.0838 63.9015 48.3827 63.648 48.3827Z" fill="#BBD5FC"/>
<path d="M53.0355 64.5694C49.0499 64.5694 45.2676 63.8494 42.4483 62.8204C39.5997 61.7807 38.0654 60.0815 38.0654 58.5743C38.0654 57.2083 39.3155 55.9519 41.6812 54.9413C39.4143 55.9098 38.2016 57.3324 38.2016 58.5743C38.2016 59.9524 39.7733 61.3165 42.5136 62.3166C45.3234 63.3421 49.0598 63.9068 53.0355 63.9068C57.0107 63.9068 60.7476 63.3421 63.5569 62.3166C66.2973 61.3165 67.8689 59.9524 67.8689 58.5743C67.8689 57.1149 66.214 55.3008 63.5498 53.8411C60.521 52.1805 56.7865 51.5643 53.0355 51.5643C45.9927 51.5643 43.0939 52.7476 40.5783 54.2312C43.1048 52.7415 45.9681 51.053 53.0355 51.053C56.8017 51.053 60.5518 51.9721 63.5952 53.6402C66.3157 55.1313 68.0056 57.0219 68.0056 58.5743C68.0056 60.0815 66.4368 61.484 63.5882 62.5237C60.7688 63.5528 57.0211 64.5694 53.0355 64.5694Z" fill="#C65447"/>
<path d="M77.2385 78.0193C77.2385 78.0193 77.107 79.8562 76.9632 80.2035C76.819 80.5514 76.206 81.6611 75.945 81.879C75.6839 82.0969 76.1043 80.4166 76.0514 80.0891C75.9979 79.7623 75.8362 80.6862 75.7212 80.708C75.6058 80.7298 75.6356 79.8978 75.6314 79.5955C75.6271 79.2925 76.1914 78.5456 76.3905 77.9015C76.5891 77.2575 77.2385 78.0193 77.2385 78.0193Z" fill="#FFB27D"/>
<path d="M61.5626 61.079L61.2694 60.2826C61.2694 60.2826 61.4151 58.8633 60.1797 57.9655C60.1797 57.9655 59.728 57.7008 59.4731 58.2309C59.2385 58.7193 59.9205 58.631 59.8841 59.4663C59.8472 60.3015 60.1229 60.7917 60.506 61.0638L60.8229 61.5922L61.5626 61.079Z" fill="#FFB27D"/>
<path d="M73.2366 59.175C73.2366 59.175 72.1758 66.6703 66.3381 69.12C64.5153 69.8845 60.3755 61.2472 60.3755 61.2472C60.3755 61.2472 60.5207 60.4509 61.4325 60.6339C61.4325 60.6339 65.464 64.4757 65.9715 64.8931C66.4218 65.2634 69.3834 60.1326 70.7333 59.3049C72.0836 58.4774 73.2366 59.175 73.2366 59.175Z" fill="#E58638"/>
<path d="M63.1236 58.8996L62.9581 60.4511L57.5366 59.2524L57.7022 57.7009L63.1236 58.8996Z" fill="#C65447"/>
<path d="M56.3594 58.198L57.537 59.2524L57.7025 57.7009L56.3594 58.198Z" fill="#FFB27D"/>
<path d="M63.6992 59.5536L63.6467 60.0441C63.6145 60.3458 63.4182 60.5528 63.2087 60.5065L62.958 60.4511L63.1236 58.8996L63.3965 58.9599C63.5937 59.0036 63.7295 59.2694 63.6992 59.5536Z" fill="#FFB27D"/>
<path d="M80.2067 106.296C80.2067 106.296 80.9308 107.247 80.7899 107.923C80.6484 108.599 79.9948 109.05 79.9064 109.876C79.8184 110.702 79.4651 111.153 79.1469 111.153C78.829 111.153 77.6311 111.153 77.6311 111.153C77.6311 111.153 77.397 110.571 77.9621 110.396C78.5278 110.221 78.7406 109.25 78.7056 108.348C78.6701 107.447 78.7586 106.245 78.7586 106.245L79.9594 105.845L80.2067 106.296Z" fill="#233862"/>
<path d="M71.322 108.756C71.322 108.756 71.4516 110.921 71.1338 111.147L67.0649 111.135C67.0649 111.135 67.0649 110.459 67.7181 110.308C68.3717 110.158 69.5201 109.607 69.7144 108.38C69.9088 107.153 71.322 108.756 71.322 108.756Z" fill="#233862"/>
<path d="M67.8862 78.1685C67.8862 78.1685 68.1009 81.9642 68.353 86.5265C68.6959 92.7243 69.1083 100.338 69.149 101.78C69.2195 104.284 69.5023 108.29 69.5023 108.29C69.5023 108.29 70.1734 109.242 71.5161 108.841C71.5161 108.841 72.7127 103.122 73.0547 97.0715C73.0599 96.9728 73.0651 96.8727 73.0703 96.7726C73.3886 90.613 73.8828 77.6428 73.8828 77.6428L67.8862 78.1685Z" fill="#2B478B"/>
<path d="M67.8862 78.1684C67.8862 78.1684 68.1009 81.9642 68.353 86.5265L73.0547 97.0714C73.0599 96.9727 73.0651 96.8726 73.0703 96.7726C73.3886 90.6129 73.8828 77.6428 73.8828 77.6428L67.8862 78.1684Z" fill="#233862"/>
<path d="M68.8662 78.6192C68.8662 78.6192 72.735 92.3654 75.2786 98.8253C77.8221 105.286 78.6172 107.088 78.6172 107.088C78.6172 107.088 80.0743 106.262 80.2068 105.698C80.2068 105.698 79.2339 93.2274 77.5308 90.1874C76.5683 88.4696 75.4375 83.3143 75.3845 81.5114C75.3315 79.7085 75.0402 76.1402 75.0402 76.1402L68.8662 78.6192Z" fill="#2B478B"/>
<path d="M73.9567 57.4353C73.9567 57.4353 71.3393 59.2534 69.8301 58.5787C69.8301 58.5787 70.2014 57.9043 70.8517 57.4024C70.7992 56.9664 70.759 56.5879 70.7353 56.2671C70.6715 55.5266 70.6715 55.1074 70.6715 55.1074L71.6813 53.9636L72.639 52.8695C72.5638 55.9463 73.9567 57.4353 73.9567 57.4353Z" fill="#FFB27D"/>
<path d="M75.3357 76.8448C75.3419 77.0749 74.9995 77.3384 74.8486 77.4371C73.7281 78.1445 72.6834 78.6381 71.4995 78.8022C70.101 79.0078 68.4465 78.5558 67.878 78.5721C67.8199 78.5721 67.7678 78.5394 67.7215 78.4815C67.6808 78.4407 67.6515 76.0135 67.6808 72.9619C67.6808 72.838 67.6808 72.7148 67.6865 72.5915V72.55C67.6983 71.3572 67.7272 70.1071 67.7678 68.8564C67.8492 66.1088 67.9996 63.4598 68.255 61.9955C68.5629 60.268 69.2591 59.1245 69.8919 58.2936L70.4141 57.6354C70.9367 57.7836 71.4877 57.7424 72.0392 57.3559C72.6427 56.9362 73.293 56.4838 73.3975 56.5988C74.1869 57.4297 74.7209 59.2972 75.0051 61.683C75.1674 63.0568 75.2487 64.5952 75.243 66.2075C75.243 66.7996 75.2312 67.4089 75.208 68.0095C75.069 71.2666 75.208 74.0969 75.2894 75.7337C75.3126 76.2109 75.3301 76.5813 75.3357 76.8448Z" fill="#EE9849"/>
<path d="M75.2892 76.695C66.1239 76.6685 73.5989 62.3772 73.5989 62.3772L75.0839 61.683C75.2012 63.1508 75.2599 64.7943 75.2556 66.5171C75.2556 67.1496 75.2476 67.8005 75.2305 68.4418C75.1298 71.9223 75.2305 74.9459 75.2892 76.695Z" fill="#E58638"/>
<path d="M72.6565 54.046C72.6565 54.046 71.9948 55.7817 70.7352 56.2671C70.6714 55.5266 70.6714 55.1074 70.6714 55.1074L71.6812 53.9636L72.6565 54.046Z" fill="#ED985F"/>
<path d="M70.2111 55.0571C70.2111 55.0571 72.7078 55.645 72.9424 53.4353C73.1766 51.2252 73.6571 49.8131 72.0727 49.344C70.4882 48.8756 70.0881 49.6525 69.8833 50.3626C69.6785 51.0734 69.5674 54.8474 70.2111 55.0571Z" fill="#FFB27D"/>
<path d="M73.8497 49.0799C73.8724 49.0425 73.9244 49.0118 74.0407 49.003C74.0407 49.003 73.948 48.9192 73.8236 48.9145C73.7991 48.6816 73.713 48.2697 73.4344 48.1696C73.4344 48.1696 73.5843 48.284 73.6037 48.5318C73.2812 48.0552 72.5902 47.708 70.6766 47.9252C68.1548 48.2118 68.9858 50.5362 69.3121 50.8133C69.6389 51.0904 70.4605 50.3313 71.0692 50.4007C71.6774 50.4702 71.7928 51.7352 71.9995 51.9088C72.2057 52.0824 72.1243 51.7754 72.4038 51.5943C72.6829 51.4125 72.7094 52.0783 72.629 52.5114C72.5481 52.9444 72.9317 53.5156 72.9317 53.5156C72.9317 53.5156 72.9317 53.5156 73.3195 52.9144C73.7073 52.3132 74.0729 49.7676 73.8965 49.2249C73.8809 49.1773 73.8653 49.1282 73.8497 49.0799Z" fill="#2C3A64"/>
<path d="M73.3958 56.5807C73.3958 56.5807 74.976 57.6576 75.7332 59.3133C76.9085 61.8815 78.2706 71.2415 78.2957 72.1082C78.3208 72.9749 77.3015 79.0937 77.3015 79.0937C77.3015 79.0937 76.2676 78.9957 76.0009 78.2447C76.0009 78.2447 76.2076 71.9578 76.0766 71.5533C75.946 71.1489 71.7669 63.1198 72.2371 61.4064C72.7067 59.693 73.3958 56.5807 73.3958 56.5807Z" fill="#EE9849"/>
<path d="M61.2641 60.2448C61.2641 60.2448 61.3497 59.7563 61.1142 59.5367C60.8792 59.3171 60.6626 58.7199 60.5633 58.8008C60.3576 58.9683 60.6758 59.4895 60.6177 60.1394C60.5973 60.3671 60.9652 60.9635 61.2641 60.2448Z" fill="#FFB27D"/>
<path d="M22.8748 106.51C22.8748 106.51 19.1638 92.8305 16.5611 95.0085C13.9584 97.1872 22.8748 106.51 22.8748 106.51Z" fill="#A8D29F"/>
<path d="M21.0398 106.51C21.0398 106.51 16.1372 100.411 13.8977 101.543C11.6582 102.676 21.0398 106.51 21.0398 106.51Z" fill="#A8D29F"/>
<path d="M72.9507 108.48C72.9507 108.48 74.0806 102.825 75.4059 103.493C76.7317 104.16 72.9507 108.48 72.9507 108.48Z" fill="#A8D29F"/>
<path d="M73.9814 108.172C73.9814 108.172 76.8655 105.447 77.4993 106.289C78.1331 107.132 73.9814 108.172 73.9814 108.172Z" fill="#A8D29F"/>
<path d="M64.1255 96.0632H41.6283C41.4775 96.0632 41.3545 95.8862 41.3545 95.669C41.3545 95.4525 41.4775 95.2754 41.6283 95.2754H64.1255C64.2759 95.2754 64.3994 95.4525 64.3994 95.669C64.3994 95.8862 64.2759 96.0632 64.1255 96.0632Z" fill="#D2E4FD"/>
<path d="M64.1255 97.6407H41.6283C41.4775 97.6407 41.3545 97.4637 41.3545 97.2465C41.3545 97.0299 41.4775 96.8529 41.6283 96.8529H64.1255C64.2759 96.8529 64.3994 97.0299 64.3994 97.2465C64.3994 97.4637 64.2759 97.6407 64.1255 97.6407Z" fill="#D2E4FD"/>
<path d="M64.1255 99.3891H41.6283C41.4775 99.3891 41.3545 99.2121 41.3545 98.9949C41.3545 98.7784 41.4775 98.6007 41.6283 98.6007H64.1255C64.2759 98.6007 64.3994 98.7784 64.3994 98.9949C64.3994 99.2121 64.2759 99.3891 64.1255 99.3891Z" fill="#D2E4FD"/>
<path d="M61.1719 101.138H41.6099C41.4694 101.138 41.3545 100.971 41.3545 100.769V100.717C41.3545 100.515 41.4694 100.349 41.6099 100.349H61.1719C61.3124 100.349 61.4278 100.515 61.4278 100.717V100.769C61.4278 100.971 61.3124 101.138 61.1719 101.138Z" fill="#D2E4FD"/>
<path d="M111.673 111.427H0.108828C0.0489985 111.427 0 111.357 0 111.27V111.241C0 111.155 0.0489985 111.084 0.108828 111.084H111.673C111.733 111.084 111.782 111.155 111.782 111.241V111.27C111.782 111.357 111.733 111.427 111.673 111.427Z" fill="#1C468A"/>
</g>
<defs>
<clipPath id="clip0_1000_11899">
<rect width="111.549" height="121.349" fill="white" transform="translate(0 0.832733)"/>
</clipPath>
</defs>
</svg>
