<svg width="26" height="27" viewBox="0 0 26 27" fill="none" xmlns="http://www.w3.org/2000/svg">
<path d="M24.9999 26V22.3333C24.9999 20.3884 24.3678 18.5232 23.2426 17.1479C22.1173 15.7726 20.5912 15 18.9999 15C18.9999 15 18.5248 19.1247 12.9999 19.125C7.47506 19.1253 6.99991 15 6.99991 15C5.40861 15 3.88249 15.7726 2.75727 17.1479C1.63205 18.5232 0.999913 20.3884 0.999913 22.3333V26" stroke="white" stroke-width="2" stroke-linecap="round" stroke-linejoin="round"/>
<path d="M13 11C15.7614 11 18 8.76142 18 6C18 3.23858 15.7614 1 13 1C10.2386 1 8 3.23858 8 6C8 8.76142 10.2386 11 13 11Z" stroke="white" stroke-width="2" stroke-linecap="round" stroke-linejoin="round"/>
</svg>
