<svg width="24" height="24" viewBox="0 0 24 24" fill="none" xmlns="http://www.w3.org/2000/svg">
    <path d="M19.9999 19V16.6667C19.9999 15.429 19.5785 14.242 18.8284 13.3668C18.0782 12.4917 17.0608 12 15.9999 12C15.9999 12 15.6832 14.6248 11.9999 14.625C8.31671 14.6252 7.99994 12 7.99994 12C6.93908 12 5.92166 12.4917 5.17151 13.3668C4.42137 14.242 3.99994 15.429 3.99994 16.6667V19" stroke="white" stroke-width="1.5" stroke-linecap="round" stroke-linejoin="round"/>
    <path d="M12 9C13.6569 9 15 7.65685 15 6C15 4.34315 13.6569 3 12 3C10.3431 3 9 4.34315 9 6C9 7.65685 10.3431 9 12 9Z" stroke="white" stroke-width="1.5" stroke-linecap="round" stroke-linejoin="round"/>
</svg>
