<svg width="26" height="24" viewBox="0 0 26 24" fill="none" xmlns="http://www.w3.org/2000/svg">
<path d="M2 2H8.43078C9.56782 2 10.6583 2.46825 11.4623 3.30175C12.2663 4.13524 12.718 5.2657 12.718 6.44444V22C12.718 21.1159 12.3792 20.2681 11.7762 19.643C11.1732 19.0179 10.3554 18.6667 9.50258 18.6667H2V2Z" stroke="white" stroke-width="2.5" stroke-linecap="round" stroke-linejoin="round"/>
<path d="M24 2H16.8923C15.6356 2 14.4303 2.46825 13.5417 3.30175C12.653 4.13524 12.1538 5.2657 12.1538 6.44444V22C12.1538 21.1159 12.5282 20.2681 13.1947 19.643C13.8612 19.0179 14.7651 18.6667 15.7077 18.6667H24V2Z" stroke="white" stroke-width="2.5" stroke-linecap="round" stroke-linejoin="round"/>
</svg>
