<svg width="22" height="19" viewBox="0 0 22 19" fill="none" xmlns="http://www.w3.org/2000/svg">
<path d="M21.0832 0.874993C20.2054 1.52233 19.2334 2.01743 18.2048 2.34124C17.6528 1.67761 16.9191 1.20724 16.103 0.993756C15.2868 0.780272 14.4277 0.833972 13.6417 1.14759C12.8558 1.46122 12.1809 2.01963 11.7084 2.74731C11.2359 3.47498 10.9886 4.33682 10.9998 5.21624V6.17458C9.38892 6.21825 7.79267 5.84473 6.35326 5.0873C4.91385 4.32986 3.67596 3.21202 2.74984 1.83333C2.74984 1.83333 -0.916829 10.4583 7.33317 14.2917C5.44532 15.6314 3.1964 16.3031 0.916504 16.2083C9.1665 21 19.2498 16.2083 19.2498 5.18749C19.249 4.92055 19.2244 4.65427 19.1765 4.39208C20.1121 3.42751 20.7723 2.20968 21.0832 0.874993V0.874993Z" fill="black"/>
</svg>
