<svg xmlns="http://www.w3.org/2000/svg" width="1440" viewBox="0 0 1440 810" height="810" version="1.0"><path fill="#3A5A98" d="M 396 389.683594 C 396 219.21875 534.339844 81 704.933594 81 C 875.523438 81 1013.742188 219.21875 1013.742188 389.683594 C 1013.742188 560.152344 875.398438 698.367188 704.933594 698.367188 C 534.339844 698.367188 396 560.152344 396 389.683594"/><path fill="#345387" d="M 923.339844 171.898438 C 1044 292.433594 1044 487.929688 923.339844 608.464844 C 802.679688 729 607.183594 729 486.527344 608.464844 Z M 923.339844 171.898438"/><path fill="#2E4D72" d="M 1011.75 424.425781 L 788.359375 201.160156 L 672.308594 317.089844 L 679.15625 323.9375 L 613.164062 389.933594 L 667.203125 443.976562 L 660.105469 451.074219 L 718.628906 509.597656 L 651.140625 576.960938 L 766.445312 692.140625 C 896.445312 665.992188 996.808594 558.160156 1011.75 424.425781"/><path fill="#FFF" d="M 650.890625 275 L 650.890625 326.800781 L 612.914062 326.800781 L 612.914062 390.058594 L 650.890625 390.058594 L 650.890625 578.207031 L 728.839844 578.207031 L 728.839844 390.058594 L 781.140625 390.058594 C 781.140625 390.058594 785.996094 359.675781 788.359375 326.550781 C 781.511719 326.550781 729.089844 326.550781 729.089844 326.550781 C 729.089844 326.550781 729.089844 289.695312 729.089844 283.21875 C 729.089844 276.746094 737.558594 268.027344 746.023438 268.027344 L 788.484375 268.027344 C 788.484375 259.4375 788.484375 229.675781 788.484375 202.15625 C 766.570312 202.15625 741.667969 202.15625 730.707031 202.15625 C 649.023438 202.15625 650.890625 265.539062 650.890625 275"/></svg>