<svg xmlns="http://www.w3.org/2000/svg" width="1440" viewBox="0 0 1440 810" height="810" version="1.0">
    <path fill="#0177B5" d="M 996.007812 81.019531 L 443.832031 81.019531 C 417.464844 81.019531 396 101.9375 396 127.695312 L 396 682.222656 C 396 708.042969 417.464844 729 443.832031 729 L 996.046875 729 C 1022.472656 729 1044 708.042969 1044 682.222656 L 1044 127.695312 C 1044 101.9375 1022.472656 81.019531 996.007812 81.019531 Z M 996.007812 81.019531"/><path fill="#FFF" d="M 492.085938 323.9375 L 588.375 323.9375 L 588.375 633.15625 L 492.085938 633.15625 Z M 540.160156 170.039062 C 570.878906 170.039062 595.847656 195.007812 595.847656 225.726562 C 595.847656 256.445312 570.878906 281.476562 540.179688 281.476562 C 538.355469 281.472656 536.535156 281.378906 534.71875 281.195312 C 532.902344 281.011719 531.101562 280.742188 529.3125 280.382812 C 527.523438 280.023438 525.753906 279.578125 524.007812 279.046875 C 522.261719 278.515625 520.546875 277.898438 518.863281 277.199219 C 517.175781 276.5 515.527344 275.71875 513.921875 274.855469 C 512.3125 273.996094 510.75 273.058594 509.230469 272.042969 C 507.714844 271.027344 506.25 269.941406 504.839844 268.785156 C 503.429688 267.625 502.078125 266.402344 500.789062 265.113281 C 499.496094 263.824219 498.273438 262.472656 497.113281 261.0625 C 495.957031 259.652344 494.871094 258.1875 493.855469 256.671875 C 492.839844 255.15625 491.902344 253.59375 491.039062 251.984375 C 490.175781 250.375 489.394531 248.726562 488.695312 247.042969 C 487.992188 245.359375 487.378906 243.644531 486.84375 241.898438 C 486.3125 240.152344 485.867188 238.382812 485.507812 236.59375 C 485.148438 234.804688 484.875 233.003906 484.691406 231.1875 C 484.511719 229.371094 484.417969 227.550781 484.410156 225.726562 C 484.410156 223.902344 484.5 222.082031 484.679688 220.265625 C 484.859375 218.449219 485.125 216.644531 485.484375 214.855469 C 485.839844 213.066406 486.28125 211.296875 486.8125 209.550781 C 487.34375 207.804688 487.957031 206.089844 488.65625 204.402344 C 489.355469 202.714844 490.136719 201.070312 490.996094 199.460938 C 491.855469 197.851562 492.792969 196.285156 493.808594 194.769531 C 494.824219 193.253906 495.910156 191.789062 497.070312 190.378906 C 498.226562 188.96875 499.453125 187.617188 500.742188 186.328125 C 502.035156 185.039062 503.386719 183.816406 504.796875 182.65625 C 506.210938 181.5 507.675781 180.417969 509.191406 179.402344 C 510.710938 178.390625 512.273438 177.453125 513.886719 176.59375 C 515.496094 175.734375 517.144531 174.957031 518.832031 174.261719 C 520.515625 173.5625 522.234375 172.949219 523.980469 172.421875 C 525.726562 171.894531 527.496094 171.453125 529.285156 171.097656 C 531.078125 170.746094 532.878906 170.480469 534.699219 170.300781 C 536.515625 170.125 538.335938 170.039062 540.160156 170.039062 M 648.496094 323.9375 L 740.675781 323.9375 L 740.675781 366.199219 L 741.949219 366.199219 C 754.789062 341.902344 786.136719 316.265625 833.074219 316.265625 C 930.398438 316.265625 948.359375 380.316406 948.359375 463.5625 L 948.359375 633.175781 L 852.3125 633.175781 L 852.3125 482.761719 C 852.3125 446.917969 851.664062 400.746094 802.378906 400.746094 C 752.359375 400.746094 744.664062 439.828125 744.664062 480.128906 L 744.664062 633.097656 L 648.640625 633.097656 L 648.640625 323.878906 Z M 648.496094 323.9375"/>
</svg>
