<svg width="700" height="700" viewBox="0 0 700 700" fill="none" xmlns="http://www.w3.org/2000/svg">
<path d="M653.121 674.062H46V245.582H653.121V674.062Z" fill="#2F497B"/>
<path d="M46 245.582L349.559 26L653.121 245.582H46Z" fill="#2F497B"/>
<path d="M533.863 443.477H165.254V47.6875H533.863V443.477Z" fill="#E8EAE6"/>
<path d="M497.91 104.746H201.242V94.1289H497.91V104.746Z" fill="#B2CDD4"/>
<path d="M323.992 139.27H201.242V128.652H323.992V139.27Z" fill="#B2CDD4"/>
<path d="M497.91 139.27H335.227V128.652H497.91V139.27Z" fill="#B2CDD4"/>
<path d="M434.496 173.27H201.242V162.652H434.496V173.27Z" fill="#B2CDD4"/>
<path d="M495.855 173.27H444.195V162.652H495.855V173.27Z" fill="#B2CDD4"/>
<path d="M497.91 217.949H201.242V207.301H497.91V217.949Z" fill="#B2CDD4"/>
<path d="M323.992 252.473H201.242V241.824H323.992V252.473Z" fill="#B2CDD4"/>
<path d="M497.91 252.473H335.227V241.824H497.91V252.473Z" fill="#B2CDD4"/>
<path d="M434.496 286.441H201.242V275.824H434.496V286.441Z" fill="#B2CDD4"/>
<path d="M495.855 286.441H444.195V275.824H495.855V286.441Z" fill="#B2CDD4"/>
<path d="M497.91 328.539H201.242V317.926H497.91V328.539Z" fill="#B2CDD4"/>
<path d="M323.992 363.062H201.242V352.449H323.992V363.062Z" fill="#B2CDD4"/>
<path d="M497.91 363.062H335.227V352.449H497.91V363.062Z" fill="#B2CDD4"/>
<path d="M434.496 397.031H201.242V386.414H434.496V397.031Z" fill="#B2CDD4"/>
<path d="M495.855 397.031H444.195V386.414H495.855V397.031Z" fill="#B2CDD4"/>
<path d="M46 245.582L349.559 482.539L46 674.062V245.582Z" fill="#3ABDC4"/>
<path d="M653.121 245.582L349.559 482.539L653.121 674.062V245.582Z" fill="#3ABDC4"/>
<path d="M46 674.062L349.559 366.754L653.121 674.062H46Z" fill="#19B3C5"/>
</svg>
