<svg xmlns="http://www.w3.org/2000/svg" width="1440" viewBox="0 0 1440 810" height="810" version="1.0"><path fill="#D42428" d="M 396 389.933594 C 396 219.339844 534.339844 81 704.933594 81 C 875.523438 81 1013.867188 219.339844 1013.867188 389.933594 C 1013.867188 560.523438 875.523438 698.867188 704.933594 698.867188 C 534.339844 698.867188 396 560.523438 396 389.933594 Z M 396 389.933594"/><path fill="#CC202D" d="M 923.339844 171.527344 C 1044 292.183594 1044 487.804688 923.339844 608.339844 C 802.679688 729 607.0625 729 486.527344 608.339844 Z M 923.339844 171.527344"/><path fill="#BA202E" d="M 1007.640625 451.820312 L 854.730469 298.910156 L 674.425781 319.457031 L 565.347656 488.304688 L 769.183594 692.140625 C 888.972656 666.742188 983.234375 571.980469 1007.640625 451.820312"/><path fill="#FFF" d="M 866.558594 330.289062 C 866.558594 304.386719 845.640625 283.46875 819.738281 283.46875 L 599.839844 283.46875 C 573.9375 283.46875 553.019531 304.511719 553.019531 330.289062 L 553.019531 456.054688 C 553.019531 481.953125 573.9375 502.996094 599.839844 502.996094 L 819.617188 502.996094 C 845.515625 502.996094 866.433594 481.953125 866.433594 456.054688 L 866.433594 330.289062 Z M 678.410156 446.214844 L 678.410156 328.171875 L 767.941406 387.195312 Z M 678.410156 446.214844" fill-rule="evenodd"/></svg>